<svg width="106" height="100" viewBox="0 0 106 100" fill="none" xmlns="http://www.w3.org/2000/svg">
<path d="M90.2465 96.1476C93.5117 96.1476 96.3685 94.094 97.2171 91.1465C97.3851 90.7322 97.4724 90.3039 97.4724 89.8724V81.3541V72.8353V55.3052V54.3721H96.4752H56.828C56.824 52.5998 56.0737 50.8746 54.7195 49.607C53.3559 48.3325 51.5436 47.6294 49.6166 47.6294C47.906 47.6294 46.2507 48.1976 44.949 49.2291C44.8268 49.3173 44.7086 49.4139 44.596 49.5179L31.7208 61.5636C31.3927 61.871 31.1289 62.2312 30.937 62.6371C29.3106 65.2818 29.7793 68.6231 32.0877 70.7822C33.4503 72.0558 35.2606 72.7579 37.1876 72.7579C38.455 72.7579 39.7009 72.4472 40.7933 71.858C41.2306 71.6742 41.616 71.4283 41.9406 71.1227L45.7447 67.5641V78.373L41.2869 82.5433C40.9579 82.8531 40.6946 83.2137 40.5022 83.6186C38.8778 86.2634 39.3475 89.6037 41.6549 91.7618C43.0165 93.0355 44.8268 93.7366 46.7538 93.7366C48.0197 93.7366 49.2636 93.4259 50.3575 92.8391C50.7922 92.658 51.1786 92.4112 51.5067 92.1047L62.0002 82.2867H83.0212V89.8719C83.0212 90.3039 83.1084 90.7322 83.2764 91.146C84.1255 94.094 86.9823 96.1476 90.2465 96.1476Z" fill="#333333"/>
<path d="M49.6162 48.5621C48.1778 48.5621 46.739 49.0259 45.5768 49.9519C45.481 50.021 45.3878 50.0956 45.3001 50.1772L32.4248 62.2229C32.1646 62.4665 31.9677 62.7497 31.827 63.0571C30.4266 65.2899 30.7431 68.2057 32.7918 70.1217C34.0063 71.2586 35.5958 71.8245 37.1862 71.8245C38.2781 71.8245 39.371 71.5577 40.3427 71.024C40.6713 70.8924 40.9739 70.7081 41.2342 70.4651L46.7409 65.3128V78.7594L41.9915 83.2026C41.7318 83.4462 41.5348 83.7293 41.3947 84.0358C39.9947 86.2696 40.3108 89.1854 42.3595 91.1014C43.5735 92.2378 45.163 92.8037 46.7534 92.8037C47.8458 92.8037 48.9387 92.5364 49.9104 92.0027C50.239 91.8726 50.5416 91.6883 50.8013 91.4447L61.587 81.3533H84.018V89.8716C84.018 90.2155 84.0927 90.5457 84.2259 90.856C84.9234 93.3612 87.3504 95.2138 90.2472 95.2138C93.1439 95.2138 95.5709 93.3612 96.2685 90.856C96.4016 90.5457 96.4764 90.2155 96.4764 89.8716V81.3533V72.8346V55.3053H55.7547C56.0583 53.5255 55.482 51.6393 54.0147 50.2668C52.7996 49.1299 51.2082 48.5621 49.6162 48.5621ZM49.6162 46.697C51.81 46.697 53.8726 47.4966 55.4236 48.9484C56.7274 50.167 57.5391 51.7583 57.7625 53.4401H96.4764H98.4697V55.3053V72.8355V81.3542V89.8726C98.4697 90.403 98.368 90.9283 98.167 91.4354C97.1853 94.7645 93.9461 97.0804 90.2477 97.0804C86.5492 97.0804 83.31 94.765 82.3288 91.4354C82.1274 90.9274 82.0256 90.4021 82.0256 89.8726V83.2194H62.4127L52.2108 92.7645C51.8105 93.1401 51.3403 93.4443 50.8138 93.6691C49.5793 94.3237 48.1783 94.6698 46.7534 94.6698C44.5612 94.6698 42.5001 93.8711 40.95 92.4207C38.335 89.9752 37.794 86.194 39.6168 83.1891C39.8576 82.6988 40.1817 82.2616 40.581 81.8866L44.7486 77.9878V69.8157L42.6441 71.7849C42.2433 72.1595 41.7746 72.4632 41.2491 72.689C40.0142 73.3445 38.6127 73.6902 37.1872 73.6902C34.9945 73.6902 32.9329 72.891 31.3833 71.4406C28.7678 68.9946 28.2268 65.2143 30.0496 62.2108C30.2904 61.7191 30.6155 61.2801 31.0169 60.9046L43.8921 48.8588C44.0232 48.7361 44.1638 48.62 44.3204 48.5047C45.7991 47.3389 47.6783 46.697 49.6162 46.697Z" fill="black"/>
<path d="M49.6162 48.5622C48.1778 48.5622 46.7389 49.0259 45.5772 49.952C45.4815 50.021 45.3883 50.0957 45.3005 50.1773L32.4253 62.223C32.165 62.4665 31.9681 62.7497 31.8275 63.0571C30.427 65.2899 30.7436 68.2057 32.7922 70.1217C34.0068 71.2587 35.5962 71.8246 37.1867 71.8246C38.2786 71.8246 39.3714 71.5577 40.3432 71.024C40.6717 70.8924 40.9744 70.7082 41.2346 70.4651L46.7414 65.3128V78.7595L41.992 83.2026C41.7322 83.4462 41.5353 83.7294 41.3952 84.0359C39.9952 86.2696 40.3113 89.1854 42.3599 91.1014C43.5744 92.2378 45.1634 92.8037 46.7539 92.8037C47.8462 92.8037 48.9391 92.5364 49.9108 92.0027C50.2394 91.8726 50.542 91.6883 50.8018 91.4447L61.5875 81.3533H84.0179V89.8716C84.0179 90.2155 84.0927 90.5458 84.2258 90.856C84.9233 93.3612 87.3504 95.2138 90.2471 95.2138C93.1438 95.2138 95.5709 93.3612 96.2684 90.856C96.4015 90.5458 96.4763 90.2155 96.4763 89.8716V81.3533V72.8346V55.3054H55.7546C56.0583 53.5256 55.4819 51.6394 54.0146 50.2669C52.7996 49.13 51.2081 48.5622 49.6162 48.5622ZM49.6162 50.4269C50.7455 50.4269 51.8069 50.8384 52.6051 51.5853C53.5734 52.4908 54.0037 53.7392 53.7868 55.011L53.4183 57.1705H55.7551H94.483V72.8355V81.3543V89.8726C94.483 89.9668 94.4621 90.0615 94.4192 90.1618L94.3718 90.2719L94.3399 90.3867C93.8543 92.131 92.1711 93.3496 90.2476 93.3496C88.3241 93.3496 86.6409 92.1315 86.1553 90.3867L86.1234 90.2724L86.0765 90.1632C86.0332 90.061 86.0117 89.9663 86.0117 89.8726V81.3543V79.4891H84.0184H61.587H60.7613L60.1775 80.0354L49.3918 90.1268C49.3205 90.194 49.2363 90.2458 49.1321 90.2868L49.0129 90.3344L48.9012 90.396C48.2526 90.7524 47.5097 90.9404 46.7529 90.9404C45.6251 90.9404 44.5656 90.5294 43.7689 89.7839C42.4083 88.5108 42.139 86.536 43.1143 84.9806L43.1776 84.8793L43.2269 84.772C43.2733 84.6708 43.3306 84.5882 43.4034 84.5206L48.1509 80.0793L48.7347 79.533V78.7604V65.3137V60.8118L45.3324 63.9949L39.8257 69.1472C39.7549 69.2139 39.6671 69.2675 39.5584 69.3109L39.4432 69.3576L39.335 69.4168C38.6864 69.7733 37.944 69.9613 37.1872 69.9613C36.0594 69.9613 34.9994 69.5502 34.2022 68.8047C32.8411 67.5316 32.5719 65.5573 33.5471 64.0028L33.6114 63.9002L33.6613 63.7905C33.7066 63.6912 33.7635 63.6104 33.8348 63.5437L46.71 51.4981C46.7304 51.4789 46.7588 51.4561 46.7947 51.4299L46.8331 51.4019L46.87 51.3726C47.6338 50.7628 48.6091 50.4269 49.6162 50.4269Z" fill="#262626"/>
<path d="M81.041 72.7575C82.3069 72.7575 83.5518 72.4468 84.6452 71.8581C85.081 71.6761 85.4664 71.4302 85.7919 71.1251L98.6672 59.0789C98.7853 58.9675 98.893 58.8513 98.9922 58.73C101.386 56.1025 101.215 52.0801 98.5724 49.6071C97.2093 48.332 95.397 47.629 93.47 47.629C91.7529 47.629 90.0882 48.2019 88.7834 49.2427C88.6917 49.3075 88.567 49.4078 88.4484 49.5184L75.5731 61.5641C75.2461 61.8706 74.9838 62.2299 74.7919 62.6334C73.1625 65.2791 73.6317 68.6213 75.9421 70.7813C77.3027 72.0559 79.114 72.7575 81.041 72.7575Z" fill="#333333"/>
<path d="M93.4693 48.5621C92.0304 48.5617 90.592 49.0254 89.4298 49.9519C89.3341 50.021 89.2408 50.0956 89.1536 50.1772L76.2779 62.2229C76.0176 62.4665 75.8207 62.7497 75.6801 63.0571C74.2796 65.2899 74.5962 68.2057 76.6448 70.1217C77.8589 71.2582 79.4488 71.8245 81.0393 71.8245C82.1317 71.8245 83.224 71.5577 84.1958 71.024C84.5243 70.8924 84.827 70.7081 85.0872 70.4651L97.9629 58.4184C98.0507 58.3368 98.1299 58.25 98.2037 58.16C100.289 55.8698 100.181 52.4301 97.8677 50.2664C96.6522 49.1299 95.0607 48.5621 93.4693 48.5621ZM93.4688 46.697H93.4693C95.663 46.697 97.7256 47.4966 99.2767 48.9484C102.274 51.7513 102.479 56.306 99.7513 59.3365C99.6267 59.4844 99.5015 59.6179 99.3679 59.7415L86.4962 71.7844C86.0953 72.159 85.6267 72.4627 85.1012 72.6885C83.8662 73.3435 82.4642 73.6897 81.0393 73.6897C78.8465 73.6897 76.7854 72.8905 75.2354 71.4401C72.6198 68.9941 72.0789 65.2138 73.9017 62.2103C74.1425 61.7186 74.4676 61.2801 74.8689 60.9041L87.7446 48.8584C87.8742 48.7366 88.0148 48.62 88.1729 48.5043C89.6517 47.3389 91.5308 46.697 93.4688 46.697Z" fill="black"/>
<path d="M93.4689 48.5622C92.0306 48.5617 90.5917 49.0255 89.43 49.952C89.3343 50.021 89.241 50.0957 89.1538 50.1773L76.2781 62.223C76.0178 62.4665 75.8209 62.7497 75.6803 63.0572C74.2798 65.29 74.5964 68.2057 76.645 70.1218C77.8591 71.2582 79.449 71.8246 81.0395 71.8246C82.1313 71.8246 83.2237 71.5577 84.1954 71.024C84.524 70.8925 84.8266 70.7082 85.0869 70.4651L97.9626 58.4185C98.0504 58.3369 98.1296 58.2501 98.2034 58.16C100.289 55.8699 100.18 52.4302 97.8674 50.2664C96.6524 49.13 95.0609 48.5622 93.4689 48.5622ZM93.4689 50.4269C94.5987 50.4269 95.6602 50.8388 96.4584 51.5853C98.007 53.0339 98.1077 55.3907 96.6868 56.9508L96.6543 56.9863L96.6239 57.0231L96.5576 57.0959L83.6779 69.1463C83.6071 69.213 83.5194 69.2666 83.4107 69.31L83.2955 69.3567L83.1873 69.4159C82.5387 69.7723 81.7963 69.9603 81.04 69.9603C79.9117 69.9603 78.8517 69.5493 78.055 68.8038C76.6939 67.5307 76.4247 65.5563 77.3999 64.0019L77.4642 63.8992L77.514 63.7896C77.5594 63.6902 77.6162 63.6095 77.6875 63.5428L90.5633 51.4971C90.5782 51.4831 90.6036 51.4612 90.6475 51.429L90.6859 51.401L90.7228 51.3716C91.4866 50.7628 92.4618 50.4269 93.4689 50.4269Z" fill="#262626"/>
<path d="M70.3706 65.7367C89.4675 65.7367 105.003 51.2002 105.003 33.3341C105.003 15.468 89.467 0.930115 70.3706 0.930115C51.2742 0.930115 35.7375 15.4666 35.7375 33.3341C35.7375 51.2016 51.2737 65.7367 70.3706 65.7367Z" fill="#333333"/>
<path d="M70.3703 1.86471C51.7934 1.86471 36.7339 15.9543 36.7339 33.3352C36.7339 50.7161 51.7934 64.8056 70.3703 64.8056C88.9472 64.8056 104.007 50.7161 104.007 33.3352C104.007 15.9543 88.9472 1.86471 70.3703 1.86471ZM70.3703 0C90.0167 0 106 14.954 106 33.3356C106 51.7172 90.0167 66.6713 70.3703 66.6713C50.7239 66.6713 34.7411 51.7168 34.7411 33.3356C34.7411 14.9545 50.7239 0 70.3703 0Z" fill="black"/>
<path d="M70.3707 1.8645C51.7938 1.8645 36.7343 15.954 36.7343 33.3349C36.7343 50.7158 51.7938 64.8054 70.3707 64.8054C88.9476 64.8054 104.007 50.7158 104.007 33.3349C104.007 15.954 88.9476 1.8645 70.3707 1.8645ZM70.3707 3.72967C87.8188 3.72967 102.014 17.0107 102.014 33.3349C102.014 49.6591 87.8188 62.9402 70.3707 62.9402C52.9226 62.9402 38.7276 49.6591 38.7276 33.3349C38.7276 17.0107 52.9226 3.72967 70.3707 3.72967Z" fill="#262626"/>
<path d="M70.3702 58.5944C81.1912 58.5944 90.7569 52.1423 94.1736 42.5379L94.6378 41.2321L93.2363 41.6506C86.2782 43.7299 78.3718 44.829 70.3702 44.829C62.3685 44.829 54.4631 43.7299 47.505 41.6506L46.1035 41.2321L46.5677 42.5379C49.9854 52.1423 59.5506 58.5944 70.3702 58.5944Z" fill="#F0D0B4"/>
<path d="M47.2761 42.317C50.4954 51.3667 59.6144 57.8962 70.3691 57.8962C81.1239 57.8962 90.2433 51.3671 93.4626 42.317C86.6182 44.3627 78.7467 45.5295 70.3691 45.5295C61.9916 45.5295 54.1206 44.3627 47.2761 42.317ZM44.9288 40.1472L47.7308 40.9846C54.6172 43.0429 62.4453 44.1308 70.3691 44.1308C78.293 44.1308 86.1211 43.0429 93.0079 40.9846L95.8099 40.1472L94.8811 42.7592C91.3626 52.6496 81.5123 59.2948 70.3691 59.2948C59.226 59.2948 49.3761 52.6496 45.8577 42.7592L44.9288 40.1472Z" fill="black"/>
<path d="M47.2763 42.3171C50.4956 51.3668 59.6146 57.8963 70.3693 57.8963C81.1241 57.8963 90.2435 51.3672 93.4628 42.3171C86.6184 44.3628 78.7469 45.5296 70.3693 45.5296C61.9918 45.5296 54.1208 44.3628 47.2763 42.3171ZM90.9141 44.4743C87.1334 51.7652 79.2111 56.4972 70.3688 56.4972C61.5266 56.4972 53.6052 51.7647 49.824 44.4743C56.2312 46.0838 63.2681 46.9282 70.3688 46.9282C77.4695 46.9282 84.5069 46.0843 90.9141 44.4743Z" fill="#DFB28B"/>
<path d="M73.1616 50.5838C73.1616 50.151 73.3454 49.7359 73.6724 49.4298C73.9995 49.1238 74.4431 48.9518 74.9056 48.9518C75.3682 48.9518 75.8118 49.1238 76.1388 49.4298C76.4659 49.7359 76.6497 50.151 76.6497 50.5838C76.6497 51.0166 76.4659 51.4317 76.1388 51.7377C75.8118 52.0438 75.3682 52.2157 74.9056 52.2157C74.4431 52.2157 73.9995 52.0438 73.6724 51.7377C73.3454 51.4317 73.1616 51.0166 73.1616 50.5838Z" fill="#231F20"/>
<path d="M64.0936 50.5838C64.0936 50.151 64.2773 49.7359 64.6044 49.4298C64.9314 49.1238 65.375 48.9518 65.8376 48.9518C66.3001 48.9518 66.7437 49.1238 67.0708 49.4298C67.3979 49.7359 67.5816 50.151 67.5816 50.5838C67.5816 51.0166 67.3979 51.4317 67.0708 51.7377C66.7437 52.0438 66.3001 52.2157 65.8376 52.2157C65.375 52.2157 64.9314 52.0438 64.6044 51.7377C64.2773 51.4317 64.0936 51.0166 64.0936 50.5838Z" fill="#231F20"/>
<path d="M12.0422 98.7245H13.9822C14.6946 98.7245 15.275 98.1819 15.275 97.5148V80.8397C15.275 80.1731 14.6946 79.63 13.9822 79.63H12.0422C11.3288 79.63 10.7484 80.1731 10.7484 80.8397V97.5148C10.7484 98.1814 11.3288 98.7245 12.0422 98.7245Z" fill="#8A5D3B"/>
<path d="M12.0441 80.0947C11.6074 80.0947 11.2494 80.4292 11.2494 80.8383V97.5129C11.2494 97.9221 11.6069 98.2566 12.0441 98.2566H13.9841C14.4208 98.2566 14.7788 97.9221 14.7788 97.5129V80.8383C14.7788 80.4292 14.4213 80.0947 13.9841 80.0947H12.0441ZM12.0441 79.1621H13.9841C14.9717 79.1621 15.7755 79.9137 15.7755 80.8383V97.5129C15.7755 98.4371 14.9717 99.1891 13.9841 99.1891H12.0441C11.0564 99.1891 10.2527 98.4376 10.2527 97.5129V80.8383C10.2527 79.9137 11.0564 79.1621 12.0441 79.1621Z" fill="#231F20"/>
<path d="M12.0443 80.0941C11.6075 80.0941 11.2496 80.4286 11.2496 80.8378V97.5124C11.2496 97.9215 11.607 98.256 12.0443 98.256H13.9843C14.421 98.256 14.779 97.9215 14.779 97.5124V80.8378C14.779 80.4286 14.4215 80.0941 13.9843 80.0941H12.0443ZM12.2462 81.0267H13.7823V97.3235H12.2462V81.0267Z" fill="#603813"/>
<path d="M37.5636 60.3117C38.0557 60.3117 38.5139 60.0449 38.7293 59.632L39.5774 57.9991C39.7284 57.7099 39.7479 57.3814 39.6357 57.0749C39.5235 56.7684 39.2892 56.5226 38.9801 56.3817L22.9508 49.0903C22.7743 49.0101 22.5849 48.9695 22.3879 48.9695C21.8958 48.9695 21.4377 49.2359 21.2223 49.6492L20.3742 51.2821C20.0631 51.8806 20.3303 52.6075 20.9715 52.8995L37.0007 60.1913C37.1777 60.2706 37.3672 60.3117 37.5636 60.3117Z" fill="#8A5D3B"/>
<path d="M22.3872 49.4348C22.0921 49.4348 21.8074 49.5892 21.6703 49.8528L20.8222 51.4847C20.6308 51.8523 20.7963 52.2998 21.1892 52.4789L37.2179 59.7703C37.3291 59.8207 37.4467 59.8449 37.5629 59.8449C37.858 59.8449 38.1427 59.6905 38.2798 59.4269L39.1284 57.7945C39.3194 57.4269 39.1543 56.9795 38.761 56.8004L22.7323 49.5094C22.6216 49.459 22.5039 49.4348 22.3872 49.4348ZM22.3872 48.5022C22.6565 48.5022 22.9267 48.5605 23.1685 48.6711L39.1972 55.9615C40.0857 56.366 40.4566 57.3709 40.0248 58.2023L39.1763 59.8347C38.8786 60.4076 38.2454 60.7775 37.5634 60.7775C37.2942 60.7775 37.0239 60.7192 36.7821 60.6091L20.7539 53.3182C20.3241 53.1222 20.0016 52.7817 19.845 52.3576C19.6885 51.9335 19.7174 51.4787 19.9263 51.077L20.7744 49.4455C21.0715 48.8726 21.7047 48.5022 22.3872 48.5022Z" fill="#231F20"/>
<path d="M22.3875 49.4348C22.0923 49.4348 21.8076 49.5892 21.6705 49.8528L20.8224 51.4847C20.631 51.8523 20.7965 52.2997 21.1894 52.4788L37.2181 59.7701C37.3293 59.8205 37.447 59.8447 37.5631 59.8447C37.8583 59.8447 38.143 59.6903 38.2801 59.4267L39.1286 57.7944C39.3196 57.4267 39.1546 56.9794 38.7612 56.8002L22.7325 49.5094C22.6218 49.459 22.5041 49.4348 22.3875 49.4348ZM22.4787 50.4308L38.1445 57.5564L37.4724 58.8492L21.8071 51.723L22.4787 50.4308Z" fill="#603813"/>
<path d="M12.8646 78.9112C14.1938 78.9112 15.2758 77.8998 15.2758 76.656C15.2758 75.4123 14.1933 74.4009 12.8646 74.4009C11.5359 74.4009 10.4545 75.4128 10.4545 76.656C10.4545 77.8993 11.5354 78.9112 12.8646 78.9112Z" fill="#CCCCCC"/>
<path d="M12.8648 74.8667C11.8093 74.8667 10.9533 75.6673 10.9533 76.6554C10.9533 77.6435 11.8093 78.444 12.8648 78.444C13.9203 78.444 14.7763 77.643 14.7763 76.6554C14.7763 75.6677 13.9208 74.8667 12.8648 74.8667ZM12.8648 73.9341C14.4682 73.9341 15.773 75.155 15.773 76.6554C15.773 78.1557 14.4682 79.3766 12.8648 79.3766C11.2614 79.3766 9.9566 78.1557 9.9566 76.6554C9.9566 75.155 11.2614 73.9341 12.8648 73.9341Z" fill="#4D4D4D"/>
<path d="M11.7526 72.8838C13.0817 72.8838 14.1631 71.8724 14.1631 70.6291C14.1631 69.3858 13.0817 68.3743 11.7526 68.3743C10.4234 68.3743 9.34296 69.3853 9.34296 70.6291C9.34296 71.8728 10.4239 72.8838 11.7526 72.8838Z" fill="#CCCCCC"/>
<path d="M11.753 68.839C10.6975 68.839 9.8415 69.6396 9.8415 70.6276C9.8415 71.6157 10.6975 72.4163 11.753 72.4163C12.8085 72.4163 13.6646 71.6153 13.6646 70.6276C13.6646 69.64 12.809 68.839 11.753 68.839ZM11.753 67.9064C13.3564 67.9064 14.6612 69.1273 14.6612 70.6276C14.6612 72.128 13.3564 73.3489 11.753 73.3489C10.1496 73.3489 8.84485 72.128 8.84485 70.6276C8.84485 69.1273 10.1496 67.9064 11.753 67.9064Z" fill="#4D4D4D"/>
<path d="M8.48205 67.6962C9.81125 67.6962 10.8922 66.6843 10.8922 65.4415C10.8922 64.1987 9.81125 63.1868 8.48205 63.1868C7.15286 63.1868 6.07245 64.1987 6.07245 65.4415C6.07245 66.6843 7.15336 67.6962 8.48205 67.6962Z" fill="#CCCCCC"/>
<path d="M8.4824 63.6511C7.42692 63.6511 6.57087 64.4516 6.57087 65.4397C6.57087 66.4278 7.42692 67.2284 8.4824 67.2284C9.53787 67.2284 10.3939 66.4274 10.3939 65.4397C10.3939 64.4521 9.53837 63.6511 8.4824 63.6511ZM8.4824 62.7184C10.0858 62.7184 11.3906 63.9394 11.3906 65.4397C11.3906 66.9401 10.0858 68.161 8.4824 68.161C6.87899 68.161 5.57422 66.9401 5.57422 65.4397C5.57422 63.9394 6.87899 62.7184 8.4824 62.7184Z" fill="#4D4D4D"/>
<path d="M4.91259 62.6249C6.24128 62.6249 7.32318 61.6125 7.32318 60.3692C7.32318 59.1259 6.24128 58.1136 4.91259 58.1136C3.5839 58.1136 2.5025 59.1259 2.5025 60.3692C2.5025 61.6125 3.5839 62.6249 4.91259 62.6249Z" fill="#CCCCCC"/>
<path d="M4.91263 58.5801C3.85715 58.5801 3.00111 59.3807 3.00111 60.3688C3.00111 61.3569 3.85715 62.1574 4.91263 62.1574C5.96811 62.1574 6.82416 61.3564 6.82416 60.3688C6.82416 59.3811 5.96811 58.5801 4.91263 58.5801ZM4.91263 57.6475C6.51604 57.6475 7.8208 58.8684 7.8208 60.3688C7.8208 61.8691 6.51604 63.09 4.91263 63.09C3.30922 63.09 2.00446 61.8691 2.00446 60.3688C2.00446 58.8684 3.30872 57.6475 4.91263 57.6475Z" fill="#4D4D4D"/>
<path d="M2.90812 56.9378C4.23684 56.9378 5.31726 55.9268 5.31726 54.6835C5.31726 53.4402 4.23684 52.4283 2.90812 52.4283C1.57941 52.4283 0.497986 53.4402 0.497986 54.6835C0.497986 55.9268 1.57941 56.9378 2.90812 56.9378Z" fill="#CCCCCC"/>
<path d="M2.90829 52.8934C1.85281 52.8934 0.996765 53.6939 0.996765 54.682C0.996765 55.6702 1.85281 56.4707 2.90829 56.4707C3.96377 56.4707 4.81982 55.6697 4.81982 54.682C4.81982 53.6944 3.96427 52.8934 2.90829 52.8934ZM2.90829 51.9608C4.5117 51.9608 5.81647 53.1817 5.81647 54.682C5.81647 56.1824 4.5117 57.4033 2.90829 57.4033C1.30488 57.4033 0.00012207 56.1824 0.00012207 54.682C0.00012207 53.1817 1.30488 51.9608 2.90829 51.9608Z" fill="#4D4D4D"/>
<path d="M5.10171 51.3631C6.43042 51.3631 7.51233 50.3522 7.51233 49.1084C7.51233 47.8647 6.43042 46.8538 5.10171 46.8538C3.773 46.8538 2.69208 47.8652 2.69208 49.1084C2.69208 50.3517 3.773 51.3631 5.10171 51.3631Z" fill="#CCCCCC"/>
<path d="M5.10215 47.318C4.04667 47.318 3.19062 48.1185 3.19062 49.1066C3.19062 50.0947 4.04667 50.8952 5.10215 50.8952C6.15762 50.8952 7.01367 50.0942 7.01367 49.1066C7.01367 48.119 6.15762 47.318 5.10215 47.318ZM5.10215 46.3854C6.70555 46.3854 8.01031 47.6063 8.01031 49.1066C8.01031 50.6069 6.70555 51.8278 5.10215 51.8278C3.49874 51.8278 2.19397 50.6069 2.19397 49.1066C2.19397 47.6063 3.49824 46.3854 5.10215 46.3854Z" fill="#4D4D4D"/>
<path d="M11.2343 50.0611C12.563 50.0611 13.6439 49.0501 13.6439 47.8073C13.6439 46.564 12.5625 45.5521 11.2343 45.5521C9.90562 45.5521 8.82422 46.564 8.82422 47.8073C8.82422 49.0501 9.90512 50.0611 11.2343 50.0611Z" fill="#CCCCCC"/>
<path d="M11.2346 46.0168C10.1791 46.0168 9.32307 46.8173 9.32307 47.8055C9.32307 48.7936 10.1791 49.5941 11.2346 49.5941C12.2901 49.5941 13.1462 48.7931 13.1462 47.8055C13.1462 46.8178 12.2906 46.0168 11.2346 46.0168ZM11.2346 45.0842C12.838 45.0842 14.1428 46.3051 14.1428 47.8055C14.1428 49.3058 12.838 50.5267 11.2346 50.5267C9.63119 50.5267 8.32642 49.3058 8.32642 47.8055C8.32642 46.3051 9.63119 45.0842 11.2346 45.0842Z" fill="#4D4D4D"/>
<path d="M17.571 51.1715C18.9002 51.1715 19.9806 50.1601 19.9806 48.9168C19.9806 47.6734 18.9002 46.6611 17.571 46.6611C16.2418 46.6611 15.1603 47.673 15.1603 48.9168C15.1603 50.1605 16.2423 51.1715 17.571 51.1715Z" fill="#CCCCCC"/>
<path d="M17.5713 47.1272C16.5158 47.1272 15.6597 47.9278 15.6597 48.9159C15.6597 49.904 16.5158 50.7046 17.5713 50.7046C18.6267 50.7046 19.4828 49.9036 19.4828 48.9159C19.4828 47.9283 18.6272 47.1272 17.5713 47.1272ZM17.5713 46.1946C19.1747 46.1946 20.4794 47.4156 20.4794 48.9159C20.4794 50.4163 19.1747 51.6372 17.5713 51.6372C15.9678 51.6372 14.6631 50.4163 14.6631 48.9159C14.6631 47.4156 15.9678 46.1946 17.5713 46.1946Z" fill="#4D4D4D"/>
</svg>
