<svg width="45" height="46" viewBox="0 0 45 46" fill="none" xmlns="http://www.w3.org/2000/svg">
<path d="M20.3125 40.5C20.5886 40.5 20.8125 40.2761 20.8125 40C20.8125 39.7239 20.5886 39.5 20.3125 39.5V40.5ZM22.9375 39.5C22.6614 39.5 22.4375 39.7239 22.4375 40C22.4375 40.2761 22.6614 40.5 22.9375 40.5V39.5ZM25.5625 40.5C25.8386 40.5 26.0625 40.2761 26.0625 40C26.0625 39.7239 25.8386 39.5 25.5625 39.5V40.5ZM28.1875 39.5C27.9114 39.5 27.6875 39.7239 27.6875 40C27.6875 40.2761 27.9114 40.5 28.1875 40.5V39.5ZM30.8125 40.5C31.0886 40.5 31.3125 40.2761 31.3125 40C31.3125 39.7239 31.0886 39.5 30.8125 39.5V40.5ZM33.4375 39.5C33.1614 39.5 32.9375 39.7239 32.9375 40C32.9375 40.2761 33.1614 40.5 33.4375 40.5V39.5ZM36.0625 40.5C36.3386 40.5 36.5625 40.2761 36.5625 40C36.5625 39.7239 36.3386 39.5 36.0625 39.5V40.5ZM38.6875 39.5C38.4114 39.5 38.1875 39.7239 38.1875 40C38.1875 40.2761 38.4114 40.5 38.6875 40.5V39.5ZM41.7227 40.1583C41.9778 40.0526 42.0988 39.76 41.993 39.505C41.8872 39.2499 41.5947 39.1288 41.3396 39.2346L41.7227 40.1583ZM43.2346 37.3396C43.1288 37.5947 43.2499 37.8872 43.505 37.993C43.76 38.0988 44.0526 37.9778 44.1583 37.7227L43.2346 37.3396ZM44.5 34.8333C44.5 34.5572 44.2761 34.3333 44 34.3333C43.7239 34.3333 43.5 34.5572 43.5 34.8333H44.5ZM43.5 32.5C43.5 32.7761 43.7239 33 44 33C44.2761 33 44.5 32.7761 44.5 32.5H43.5ZM44.5 30.1667C44.5 29.8905 44.2761 29.6667 44 29.6667C43.7239 29.6667 43.5 29.8905 43.5 30.1667H44.5ZM43.5 27.8333C43.5 28.1095 43.7239 28.3333 44 28.3333C44.2761 28.3333 44.5 28.1095 44.5 27.8333H43.5ZM44.5 25.5C44.5 25.2239 44.2761 25 44 25C43.7239 25 43.5 25.2239 43.5 25.5H44.5ZM43.5 23.1667C43.5 23.4428 43.7239 23.6667 44 23.6667C44.2761 23.6667 44.5 23.4428 44.5 23.1667H43.5ZM44.5 20.8333C44.5 20.5572 44.2761 20.3333 44 20.3333C43.7239 20.3333 43.5 20.5572 43.5 20.8333H44.5ZM43.5 18.5C43.5 18.7761 43.7239 19 44 19C44.2761 19 44.5 18.7761 44.5 18.5H43.5ZM44.5 16.1667C44.5 15.8905 44.2761 15.6667 44 15.6667C43.7239 15.6667 43.5 15.8905 43.5 16.1667H44.5ZM43.5 13.8333C43.5 14.1095 43.7239 14.3333 44 14.3333C44.2761 14.3333 44.5 14.1095 44.5 13.8333H43.5ZM44.5 11.5C44.5 11.2239 44.2761 11 44 11C43.7239 11 43.5 11.2239 43.5 11.5H44.5ZM43.5 9.16667C43.5 9.44281 43.7239 9.66667 44 9.66667C44.2761 9.66667 44.5 9.44281 44.5 9.16667H43.5ZM44.1583 6.27732C44.0526 6.02224 43.76 5.90121 43.505 6.00699C43.2499 6.11276 43.1288 6.4053 43.2346 6.66038L44.1583 6.27732ZM41.3396 4.76538C41.5947 4.87116 41.8872 4.75013 41.993 4.49505C42.0988 4.23997 41.9778 3.94744 41.7227 3.84166L41.3396 4.76538ZM38.9322 3.5C38.6561 3.5 38.4322 3.72386 38.4322 4C38.4322 4.27614 38.6561 4.5 38.9322 4.5V3.5ZM36.7966 4.5C37.0728 4.5 37.2966 4.27614 37.2966 4C37.2966 3.72386 37.0728 3.5 36.7966 3.5V4.5ZM34.661 3.5C34.3849 3.5 34.161 3.72386 34.161 4C34.161 4.27614 34.3849 4.5 34.661 4.5V3.5ZM32.5254 4.5C32.8016 4.5 33.0254 4.27614 33.0254 4C33.0254 3.72386 32.8016 3.5 32.5254 3.5V4.5ZM30.3898 3.5C30.1137 3.5 29.8898 3.72386 29.8898 4C29.8898 4.27614 30.1137 4.5 30.3898 4.5V3.5ZM28.2543 4.5C28.5304 4.5 28.7543 4.27614 28.7543 4C28.7543 3.72386 28.5304 3.5 28.2543 3.5V4.5ZM19 40.5H20.3125V39.5H19V40.5ZM22.9375 40.5H25.5625V39.5H22.9375V40.5ZM28.1875 40.5H30.8125V39.5H28.1875V40.5ZM33.4375 40.5H36.0625V39.5H33.4375V40.5ZM38.6875 40.5H40V39.5H38.6875V40.5ZM40 40.5C40.6092 40.5 41.1914 40.3787 41.7227 40.1583L41.3396 39.2346C40.9276 39.4055 40.4755 39.5 40 39.5V40.5ZM44.1583 37.7227C44.3787 37.1914 44.5 36.6092 44.5 36H43.5C43.5 36.4755 43.4055 36.9276 43.2346 37.3396L44.1583 37.7227ZM44.5 36V34.8333H43.5V36H44.5ZM44.5 32.5V30.1667H43.5V32.5H44.5ZM44.5 27.8333V25.5H43.5V27.8333H44.5ZM44.5 23.1667V20.8333H43.5V23.1667H44.5ZM44.5 18.5V16.1667H43.5V18.5H44.5ZM44.5 13.8333V11.5H43.5V13.8333H44.5ZM44.5 9.16667V8H43.5V9.16667H44.5ZM44.5 8C44.5 7.39076 44.3787 6.8086 44.1583 6.27732L43.2346 6.66038C43.4055 7.07236 43.5 7.52451 43.5 8H44.5ZM41.7227 3.84166C41.1914 3.62135 40.6092 3.5 40 3.5V4.5C40.4755 4.5 40.9276 4.59454 41.3396 4.76538L41.7227 3.84166ZM40 3.5H38.9322V4.5H40V3.5ZM36.7966 3.5H34.661V4.5H36.7966V3.5ZM32.5254 3.5H30.3898V4.5H32.5254V3.5ZM28.2543 3.5H27.1865V4.5H28.2543V3.5Z" fill="#DDDDDD"/>
<g filter="url(#filter0_d)">
<path d="M10.1912 18.7703C10.1912 18.7703 10.553 21.7682 12.6071 21.8602C14.9847 21.9636 15.0995 18.7703 15.0995 18.7703H10.1912Z" fill="#ADBBC9"/>
<path d="M10.4838 19.9395C10.4838 19.9395 9.41278 20.2155 9.75495 21.1222L11.625 22.678C11.8143 22.5732 11.9771 22.4265 12.1009 22.2491C12.2247 22.0717 12.3063 21.8683 12.3394 21.6545L10.5344 20.0357" fill="#ADBBC9"/>
<path d="M10.1912 18.7703C10.1912 18.7703 12.6546 21.1294 15.0995 18.7703H10.1912Z" fill="#ADBBC9"/>
<path d="M13.0557 10.9272C13.0557 10.9323 13.0542 10.9373 13.0514 10.9416C13.0485 10.9458 13.0445 10.9491 13.0398 10.9511C13.035 10.9531 13.0298 10.9536 13.0248 10.9526C13.0198 10.9516 13.0152 10.9491 13.0116 10.9455C13.008 10.9419 13.0055 10.9373 13.0045 10.9323C13.0035 10.9273 13.004 10.9221 13.006 10.9173C13.008 10.9126 13.0113 10.9086 13.0155 10.9057C13.0198 10.9029 13.0248 10.9014 13.0299 10.9014C13.0367 10.9014 13.0433 10.9041 13.0481 10.909C13.053 10.9138 13.0557 10.9204 13.0557 10.9272Z" fill="#E6E6E6" fill-opacity="0.8"/>
<path d="M13.8662 8.66846H11.6653V10.7029H13.8662V8.66846Z" fill="#ADBBC9"/>
<path d="M13.2002 9.77045C13.2002 9.77045 14.3281 9.7446 14.4873 8.64158C14.5648 8.10816 14.633 6.99894 14.6837 5.99309C14.7395 4.91178 14.0314 3.80979 12.7754 3.81496C11.6165 3.73019 10.8981 4.66781 10.8453 5.82769C10.8453 5.82769 10.9311 8.17226 11.1255 8.70878C11.3198 9.2453 11.9266 9.84591 12.9325 9.77458" fill="#E6E6E6" fill-opacity="0.8"/>
<path d="M13.9043 6.09235H11.6269C11.3506 6.09235 11.1266 6.31636 11.1266 6.59269V6.61233C11.1266 6.88866 11.3506 7.11267 11.6269 7.11267H13.9043C14.1806 7.11267 14.4046 6.88866 14.4046 6.61233V6.59269C14.4046 6.31636 14.1806 6.09235 13.9043 6.09235Z" fill="#ADBBC9"/>
<path d="M13.8651 6.59578C13.8651 6.63829 13.8484 6.67911 13.8186 6.70946C13.7889 6.73981 13.7484 6.75727 13.7059 6.75808C13.6852 6.75919 13.6646 6.75614 13.6451 6.74909C13.6257 6.74204 13.6078 6.73115 13.5927 6.71707C13.5775 6.70298 13.5654 6.68599 13.557 6.66711C13.5485 6.64822 13.544 6.62783 13.5436 6.60715C13.5444 6.56465 13.5618 6.52416 13.5922 6.49439C13.6225 6.46462 13.6634 6.44794 13.7059 6.44795C13.7465 6.44682 13.7859 6.46168 13.8157 6.48933C13.8455 6.51697 13.8632 6.55519 13.8651 6.59578Z" fill="#E6E6E6" fill-opacity="0.8"/>
<path d="M10.8518 6.79941C10.8518 7.16536 10.7835 7.46309 10.6998 7.46309C10.6161 7.46309 10.5479 7.16536 10.5479 6.79941C10.5479 6.43346 10.6161 6.1347 10.6998 6.1347C10.7835 6.1347 10.8518 6.43243 10.8518 6.79941Z" fill="#ADBBC9"/>
<path d="M10.9932 6.79942C10.9932 7.16538 10.9187 7.4631 10.8267 7.4631H10.7078C10.6396 7.3804 10.6644 7.09922 10.6644 6.79942C10.6644 6.49963 10.6272 6.22155 10.6954 6.13782C10.7109 6.11818 10.8133 6.13782 10.8309 6.13782C10.9146 6.13782 10.9932 6.43244 10.9932 6.79942Z" fill="#ADBBC9"/>
<path d="M14.6425 6.75806C14.6425 6.39108 14.7107 6.09439 14.7944 6.09439C14.8782 6.09439 14.9464 6.39108 14.9464 6.75806C14.9464 7.12505 14.8782 7.42277 14.7944 7.42277C14.7107 7.42277 14.6425 7.12505 14.6425 6.75806Z" fill="#ADBBC9"/>
<path d="M14.501 6.75806C14.501 6.39108 14.5754 6.09439 14.6674 6.09439H14.7894C14.8576 6.17606 14.8328 6.45827 14.8328 6.75806C14.8328 7.05785 14.87 7.33594 14.8028 7.41967C14.7873 7.43931 14.684 7.41967 14.6674 7.41967C14.5754 7.42277 14.501 7.12505 14.501 6.75806Z" fill="#ADBBC9"/>
<g opacity="0.3">
<path opacity="0.3" d="M14.6042 7.37833C14.6042 7.43415 14.5494 8.13607 14.5008 8.54854C14.4574 8.91346 14.3468 9.21222 14.0636 9.44688C13.8369 9.64491 13.5522 9.76423 13.2521 9.78699C12.8871 9.81903 12.5191 9.82937 12.1728 9.71255C11.8265 9.59574 11.4657 9.36004 11.291 9.03958C11.291 9.03958 12.8417 9.86659 13.8868 9.16673C13.8868 9.16673 14.2693 8.98582 14.4037 8.19086C14.5329 7.42898 14.6042 7.37833 14.6042 7.37833Z" fill="#ADBBC9"/>
</g>
<path d="M13.8817 7.25736C13.8817 7.25736 13.9107 7.25736 13.9654 7.24496C14.0447 7.23276 14.1207 7.20463 14.1887 7.16226C14.2973 7.09685 14.383 6.99931 14.4337 6.88314C14.4647 6.81126 14.4812 6.73398 14.4823 6.65572C14.4867 6.56796 14.4726 6.48026 14.441 6.39831C14.4046 6.30496 14.3454 6.2222 14.2689 6.15756C14.1923 6.09292 14.1008 6.04846 14.0027 6.02823C13.8901 6.01593 13.7767 6.01213 13.6636 6.01685H13.2987H11.6705C11.5347 6.01674 11.4029 6.0633 11.2974 6.14874C11.1918 6.23419 11.1188 6.35332 11.0906 6.48618C11.0651 6.61278 11.0762 6.74402 11.1226 6.86454C11.17 6.97573 11.2498 7.07009 11.3516 7.13535C11.4534 7.20061 11.5724 7.23376 11.6932 7.23049H12.0375H12.6577L13.554 7.23979H13.7969C13.8255 7.23693 13.8542 7.23693 13.8827 7.23979C13.8542 7.24198 13.8255 7.24198 13.7969 7.23979L13.554 7.24496L12.6577 7.25323H12.0375H11.6932C11.5622 7.25763 11.4329 7.22239 11.3223 7.15212C11.2116 7.08185 11.1247 6.97982 11.073 6.85937C11.0208 6.72802 11.0082 6.58427 11.0368 6.44586C11.0669 6.30037 11.1461 6.16962 11.261 6.07553C11.376 5.98143 11.5198 5.9297 11.6684 5.92898H13.2966H13.6615C13.7778 5.92393 13.8944 5.92877 14.0099 5.94346C14.1144 5.96617 14.2117 6.01454 14.2929 6.0842C14.3741 6.15385 14.4367 6.24262 14.4751 6.34249C14.5366 6.51044 14.5307 6.6957 14.4585 6.85937C14.4039 6.9795 14.3127 7.07934 14.198 7.14468C14.1265 7.18637 14.0468 7.21211 13.9644 7.22015C13.9383 7.23561 13.9106 7.24809 13.8817 7.25736Z" fill="#E6E6E6" fill-opacity="0.8"/>
<path d="M12.7754 3.81497C12.7919 3.92028 12.7995 4.02679 12.7981 4.13337C12.8054 4.32978 12.8126 4.6027 12.8157 4.90352C12.8188 5.20434 12.8209 5.47726 12.8157 5.6747C12.8198 5.78106 12.815 5.88756 12.8012 5.9931C12.7847 5.88779 12.7768 5.78131 12.7775 5.6747C12.7702 5.47726 12.764 5.20538 12.7599 4.90455C12.7558 4.60373 12.7599 4.33185 12.7599 4.1344C12.7564 4.02768 12.7616 3.92085 12.7754 3.81497Z" fill="#E6E6E6" fill-opacity="0.8"/>
<path d="M12.8229 9.80353C12.8084 9.80353 12.796 9.2422 12.796 8.54958C12.796 7.85696 12.8084 7.29666 12.8229 7.29666C12.8374 7.29666 12.8498 7.85696 12.8498 8.54958C12.8498 9.2422 12.8384 9.80353 12.8229 9.80353Z" fill="#E6E6E6" fill-opacity="0.8"/>
<path d="M12.9708 4.58717C12.9708 4.59228 12.9692 4.59728 12.9664 4.60153C12.9636 4.60578 12.9595 4.60909 12.9548 4.61105C12.9501 4.613 12.9449 4.61351 12.9399 4.61252C12.9349 4.61152 12.9303 4.60906 12.9266 4.60544C12.923 4.60183 12.9206 4.59722 12.9196 4.59221C12.9186 4.5872 12.9191 4.582 12.921 4.57728C12.923 4.57256 12.9263 4.56852 12.9306 4.56568C12.9348 4.56284 12.9398 4.56133 12.9449 4.56133C12.9518 4.56133 12.9583 4.56405 12.9632 4.56889C12.968 4.57374 12.9708 4.58031 12.9708 4.58717Z" fill="#E6E6E6" fill-opacity="0.8"/>
<path d="M13.0856 8.4338C13.0856 8.43891 13.0841 8.44391 13.0813 8.44816C13.0784 8.45241 13.0744 8.45572 13.0697 8.45768C13.0649 8.45964 13.0598 8.46015 13.0547 8.45915C13.0497 8.45815 13.0451 8.45569 13.0415 8.45208C13.0379 8.44846 13.0354 8.44386 13.0344 8.43885C13.0334 8.43383 13.0339 8.42864 13.0359 8.42391C13.0379 8.41919 13.0412 8.41515 13.0454 8.41231C13.0497 8.40948 13.0547 8.40796 13.0598 8.40796C13.0666 8.40796 13.0732 8.41068 13.0781 8.41553C13.0829 8.42038 13.0856 8.42695 13.0856 8.4338Z" fill="#E6E6E6" fill-opacity="0.8"/>
<path d="M12.9968 5.09166C12.9968 5.09677 12.9952 5.10176 12.9924 5.10601C12.9896 5.11026 12.9855 5.11358 12.9808 5.11553C12.9761 5.11749 12.9709 5.118 12.9659 5.117C12.9609 5.11601 12.9563 5.11354 12.9526 5.10993C12.949 5.10632 12.9466 5.10171 12.9456 5.0967C12.9446 5.09168 12.9451 5.08649 12.947 5.08177C12.949 5.07704 12.9523 5.07301 12.9566 5.07017C12.9608 5.06733 12.9658 5.06581 12.9709 5.06581C12.9778 5.06581 12.9843 5.06853 12.9892 5.07338C12.994 5.07823 12.9968 5.0848 12.9968 5.09166Z" fill="#E6E6E6" fill-opacity="0.8"/>
<path d="M13.0856 7.62435C13.0856 7.62947 13.0841 7.63446 13.0813 7.63871C13.0784 7.64296 13.0744 7.64628 13.0697 7.64823C13.0649 7.65019 13.0598 7.6507 13.0547 7.6497C13.0497 7.64871 13.0451 7.64624 13.0415 7.64263C13.0379 7.63902 13.0354 7.63441 13.0344 7.6294C13.0334 7.62438 13.0339 7.61919 13.0359 7.61447C13.0379 7.60974 13.0412 7.60571 13.0454 7.60287C13.0497 7.60003 13.0547 7.59851 13.0598 7.59851C13.0666 7.59851 13.0732 7.60123 13.0781 7.60608C13.0829 7.61093 13.0856 7.6175 13.0856 7.62435Z" fill="#E6E6E6" fill-opacity="0.8"/>
<path d="M14.8007 7.41348C14.7605 7.36247 14.7313 7.30369 14.7149 7.24084C14.6639 7.09272 14.6367 6.93745 14.6343 6.78082C14.6315 6.62383 14.6542 6.46743 14.7014 6.31769C14.7172 6.25493 14.7445 6.19566 14.7821 6.14299C14.7256 6.35078 14.694 6.56454 14.688 6.77979C14.6998 6.9948 14.7376 7.20758 14.8007 7.41348Z" fill="#ADBBC9"/>
<path d="M10.6677 7.51787C10.6594 7.51787 10.7049 7.4424 10.7463 7.31628C10.7974 7.15089 10.8232 6.97871 10.8228 6.80561C10.8228 6.70223 10.8228 6.60609 10.8228 6.51719C10.8255 6.44022 10.8193 6.3632 10.8042 6.28769C10.7985 6.26371 10.788 6.24115 10.7732 6.22141C10.7584 6.20167 10.7398 6.18517 10.7184 6.17294C10.6874 6.1564 10.6656 6.15847 10.6656 6.1533C10.6656 6.14813 10.6874 6.1409 10.7266 6.1533C10.7535 6.16349 10.7778 6.17968 10.7975 6.20064C10.8172 6.2216 10.8318 6.24677 10.8404 6.27425C10.8619 6.35237 10.8727 6.43306 10.8724 6.51409C10.8724 6.60299 10.8807 6.70223 10.8724 6.80561C10.8732 6.98424 10.8413 7.16151 10.7783 7.32869C10.7562 7.39929 10.7184 7.46397 10.6677 7.51787Z" fill="#ADBBC9"/>
<path d="M12.0519 6.71466C12.0426 6.71466 12.0519 6.67331 12.0282 6.61955C12.0147 6.58573 11.9914 6.55673 11.9612 6.5363C11.9311 6.51587 11.8955 6.50495 11.8591 6.50495C11.8227 6.50495 11.7872 6.51587 11.757 6.5363C11.7269 6.55673 11.7036 6.58573 11.6901 6.61955C11.6663 6.67331 11.6725 6.71362 11.6643 6.71466C11.656 6.71569 11.6364 6.67538 11.6539 6.61128C11.665 6.57118 11.6877 6.53522 11.7191 6.50791C11.7464 6.48397 11.7795 6.46747 11.815 6.45999C11.8506 6.45251 11.8875 6.45431 11.9222 6.46521C11.9569 6.47612 11.9881 6.49575 12.013 6.52224C12.0379 6.54872 12.0556 6.58117 12.0643 6.61645C12.084 6.67641 12.0612 6.71776 12.0519 6.71466Z" fill="#E6E6E6" fill-opacity="0.8"/>
<path d="M13.8608 10.3462C13.4976 10.3735 13.1332 10.3825 12.7691 10.3731C12.405 10.3825 12.0407 10.3735 11.6775 10.3462C11.6775 10.3318 12.1665 10.3194 12.7691 10.3194C13.3718 10.3194 13.8608 10.3318 13.8608 10.3462Z" fill="#ADBBC9"/>
<path d="M13.8608 10.0816C13.4976 10.1088 13.1332 10.1178 12.7691 10.1085C12.405 10.1178 12.0407 10.1088 11.6775 10.0816C11.6775 10.0671 12.1665 10.0547 12.7691 10.0547C13.3718 10.0547 13.8608 10.0661 13.8608 10.0816Z" fill="#ADBBC9"/>
<path d="M12.6019 10.5975C12.6019 10.5975 9.46129 10.7298 8.96508 11.9475C8.46888 13.1653 8.69011 17.6673 10.4051 18.0323C11.4864 18.2628 13.2924 18.2028 14.4761 18.1263C14.8262 18.1036 15.1602 17.9708 15.4303 17.7469C15.7004 17.523 15.8929 17.2194 15.9802 16.8796C16.343 15.4716 16.7844 13.1116 16.1311 11.7646C15.425 11.0037 14.2362 10.6233 12.6019 10.5975Z" fill="#E6E6E6" fill-opacity="0.8"/>
<path d="M13.1074 16.2201C13.1074 16.2252 13.1058 16.2302 13.103 16.2344C13.1002 16.2387 13.0961 16.242 13.0914 16.244C13.0867 16.2459 13.0815 16.2464 13.0765 16.2454C13.0715 16.2444 13.0668 16.242 13.0632 16.2383C13.0596 16.2347 13.0572 16.2301 13.0562 16.2251C13.0552 16.2201 13.0557 16.2149 13.0576 16.2102C13.0596 16.2055 13.0629 16.2014 13.0672 16.1986C13.0714 16.1957 13.0764 16.1942 13.0815 16.1942C13.0884 16.1942 13.0949 16.197 13.0998 16.2018C13.1046 16.2066 13.1074 16.2132 13.1074 16.2201Z" fill="#E6E6E6" fill-opacity="0.8"/>
<path d="M13.6376 15.8045C13.6376 15.8096 13.6361 15.8146 13.6333 15.8189C13.6304 15.8231 13.6264 15.8264 13.6217 15.8284C13.6169 15.8303 13.6118 15.8308 13.6067 15.8298C13.6017 15.8289 13.5971 15.8264 13.5935 15.8228C13.5899 15.8192 13.5874 15.8146 13.5864 15.8095C13.5854 15.8045 13.5859 15.7993 13.5879 15.7946C13.5899 15.7899 13.5932 15.7859 13.5974 15.783C13.6017 15.7802 13.6067 15.7787 13.6118 15.7787C13.6186 15.7787 13.6252 15.7814 13.6301 15.7862C13.6349 15.7911 13.6376 15.7976 13.6376 15.8045Z" fill="#E6E6E6" fill-opacity="0.8"/>
<path d="M14.6921 15.7518C14.6921 15.7586 14.6893 15.7652 14.6845 15.77C14.6797 15.7749 14.6731 15.7776 14.6662 15.7776C14.6594 15.7776 14.6528 15.7749 14.6479 15.77C14.6431 15.7652 14.6404 15.7586 14.6404 15.7518C14.6404 15.7449 14.6431 15.7383 14.6479 15.7335C14.6528 15.7286 14.6594 15.7259 14.6662 15.7259C14.6731 15.7259 14.6797 15.7286 14.6845 15.7335C14.6893 15.7383 14.6921 15.7449 14.6921 15.7518Z" fill="#E6E6E6" fill-opacity="0.8"/>
<path d="M15.4633 15.3383C15.4633 15.3451 15.4606 15.3517 15.4557 15.3565C15.4509 15.3614 15.4443 15.3641 15.4375 15.3641C15.4306 15.3641 15.424 15.3614 15.4192 15.3565C15.4143 15.3517 15.4116 15.3451 15.4116 15.3383C15.4116 15.3314 15.4143 15.3248 15.4192 15.32C15.424 15.3151 15.4306 15.3124 15.4375 15.3124C15.4443 15.3124 15.4509 15.3151 15.4557 15.32C15.4606 15.3248 15.4633 15.3314 15.4633 15.3383Z" fill="#E6E6E6" fill-opacity="0.8"/>
<path d="M15.9428 14.658C15.9428 14.6632 15.9413 14.6682 15.9384 14.6724C15.9356 14.6767 15.9316 14.68 15.9268 14.6819C15.9221 14.6839 15.9169 14.6844 15.9119 14.6834C15.9069 14.6824 15.9023 14.6799 15.8987 14.6763C15.8951 14.6727 15.8926 14.6681 15.8916 14.6631C15.8906 14.6581 15.8911 14.6529 15.8931 14.6482C15.895 14.6434 15.8983 14.6394 15.9026 14.6366C15.9068 14.6337 15.9118 14.6322 15.917 14.6322C15.9238 14.6322 15.9304 14.6349 15.9352 14.6398C15.9401 14.6446 15.9428 14.6512 15.9428 14.658Z" fill="#E6E6E6" fill-opacity="0.8"/>
<path d="M16.1176 13.9355C16.1176 13.9406 16.1161 13.9456 16.1133 13.9498C16.1104 13.9541 16.1064 13.9574 16.1017 13.9593C16.0969 13.9613 16.0917 13.9618 16.0867 13.9608C16.0817 13.9598 16.0771 13.9574 16.0735 13.9537C16.0699 13.9501 16.0674 13.9455 16.0664 13.9405C16.0654 13.9355 16.0659 13.9303 16.0679 13.9256C16.0698 13.9209 16.0732 13.9168 16.0774 13.914C16.0817 13.9111 16.0866 13.9096 16.0918 13.9096C16.0986 13.9096 16.1052 13.9123 16.11 13.9172C16.1149 13.922 16.1176 13.9286 16.1176 13.9355Z" fill="#E6E6E6" fill-opacity="0.8"/>
<path d="M16.039 13.2356C16.039 13.2407 16.0375 13.2457 16.0346 13.25C16.0318 13.2542 16.0278 13.2575 16.023 13.2595C16.0183 13.2614 16.0131 13.262 16.0081 13.261C16.0031 13.26 15.9985 13.2575 15.9949 13.2539C15.9913 13.2503 15.9888 13.2457 15.9878 13.2406C15.9868 13.2356 15.9873 13.2304 15.9893 13.2257C15.9912 13.221 15.9945 13.217 15.9988 13.2141C16.003 13.2113 16.008 13.2098 16.0132 13.2098C16.02 13.2098 16.0266 13.2125 16.0314 13.2173C16.0363 13.2222 16.039 13.2288 16.039 13.2356Z" fill="#E6E6E6" fill-opacity="0.8"/>
<path d="M15.7165 12.5471C15.7165 12.5522 15.715 12.5572 15.7121 12.5615C15.7093 12.5657 15.7053 12.569 15.7005 12.571C15.6958 12.5729 15.6906 12.5735 15.6856 12.5725C15.6806 12.5715 15.676 12.569 15.6724 12.5654C15.6688 12.5618 15.6663 12.5572 15.6653 12.5522C15.6643 12.5471 15.6648 12.5419 15.6668 12.5372C15.6687 12.5325 15.672 12.5285 15.6763 12.5256C15.6805 12.5228 15.6855 12.5213 15.6906 12.5213C15.6975 12.5213 15.7041 12.524 15.7089 12.5288C15.7138 12.5337 15.7165 12.5403 15.7165 12.5471Z" fill="#E6E6E6" fill-opacity="0.8"/>
<path d="M15.2565 12.1047C15.2565 12.1098 15.255 12.1148 15.2522 12.119C15.2493 12.1233 15.2453 12.1266 15.2406 12.1285C15.2358 12.1305 15.2307 12.131 15.2256 12.13C15.2206 12.129 15.216 12.1266 15.2124 12.1229C15.2088 12.1193 15.2063 12.1147 15.2053 12.1097C15.2043 12.1047 15.2048 12.0995 15.2068 12.0948C15.2088 12.0901 15.2121 12.086 15.2163 12.0832C15.2206 12.0803 15.2256 12.0788 15.2307 12.0788C15.2375 12.0788 15.2441 12.0816 15.249 12.0864C15.2538 12.0912 15.2565 12.0978 15.2565 12.1047Z" fill="#E6E6E6" fill-opacity="0.8"/>
<path d="M14.5929 11.8235C14.5929 11.8303 14.5902 11.8369 14.5854 11.8418C14.5805 11.8466 14.574 11.8493 14.5671 11.8493C14.5602 11.8493 14.5537 11.8466 14.5488 11.8418C14.544 11.8369 14.5413 11.8303 14.5413 11.8235C14.5413 11.8166 14.544 11.8101 14.5488 11.8052C14.5537 11.8004 14.5602 11.7976 14.5671 11.7976C14.574 11.7976 14.5805 11.8004 14.5854 11.8052C14.5902 11.8101 14.5929 11.8166 14.5929 11.8235Z" fill="#E6E6E6" fill-opacity="0.8"/>
<path d="M13.7565 11.8018C13.7565 11.8086 13.7538 11.8152 13.749 11.8201C13.7441 11.8249 13.7375 11.8276 13.7307 11.8276C13.7238 11.8276 13.7173 11.8249 13.7124 11.8201C13.7076 11.8152 13.7048 11.8086 13.7048 11.8018C13.7048 11.7949 13.7076 11.7884 13.7124 11.7835C13.7173 11.7787 13.7238 11.7759 13.7307 11.7759C13.7375 11.7759 13.7441 11.7787 13.749 11.7835C13.7538 11.7884 13.7565 11.7949 13.7565 11.8018Z" fill="#E6E6E6" fill-opacity="0.8"/>
<path d="M12.9647 11.8235C12.9647 11.8286 12.9631 11.8336 12.9603 11.8378C12.9575 11.8421 12.9534 11.8454 12.9487 11.8474C12.944 11.8493 12.9388 11.8498 12.9338 11.8488C12.9288 11.8478 12.9241 11.8454 12.9205 11.8418C12.9169 11.8381 12.9145 11.8335 12.9135 11.8285C12.9125 11.8235 12.913 11.8183 12.9149 11.8136C12.9169 11.8089 12.9202 11.8048 12.9244 11.802C12.9287 11.7992 12.9337 11.7976 12.9388 11.7976C12.9457 11.7976 12.9522 11.8004 12.9571 11.8052C12.9619 11.8101 12.9647 11.8166 12.9647 11.8235Z" fill="#E6E6E6" fill-opacity="0.8"/>
<path d="M12.0385 11.7759C12.0385 11.781 12.037 11.786 12.0341 11.7903C12.0313 11.7945 12.0273 11.7979 12.0226 11.7998C12.0178 11.8018 12.0126 11.8023 12.0076 11.8013C12.0026 11.8003 11.998 11.7978 11.9944 11.7942C11.9908 11.7906 11.9883 11.786 11.9873 11.781C11.9863 11.776 11.9868 11.7708 11.9888 11.766C11.9907 11.7613 11.9941 11.7573 11.9983 11.7544C12.0026 11.7516 12.0075 11.7501 12.0127 11.7501C12.0195 11.7501 12.0261 11.7528 12.0309 11.7577C12.0358 11.7625 12.0385 11.7691 12.0385 11.7759Z" fill="#E6E6E6" fill-opacity="0.8"/>
<path d="M11.1639 11.7759C11.1639 11.7828 11.1611 11.7894 11.1563 11.7942C11.1515 11.7991 11.1449 11.8018 11.138 11.8018C11.1312 11.8018 11.1246 11.7991 11.1198 11.7942C11.1149 11.7894 11.1122 11.7828 11.1122 11.7759C11.1122 11.7691 11.1149 11.7625 11.1198 11.7577C11.1246 11.7528 11.1312 11.7501 11.138 11.7501C11.1449 11.7501 11.1515 11.7528 11.1563 11.7577C11.1611 11.7625 11.1639 11.7691 11.1639 11.7759Z" fill="#E6E6E6" fill-opacity="0.8"/>
<path d="M10.2801 11.9992C10.2801 12.0061 10.2774 12.0126 10.2725 12.0175C10.2677 12.0223 10.2611 12.0251 10.2542 12.0251C10.2475 12.0248 10.241 12.022 10.2362 12.0172C10.2315 12.0124 10.2286 12.006 10.2284 11.9992C10.2284 11.9924 10.2311 11.9858 10.236 11.9809C10.2408 11.9761 10.2474 11.9734 10.2542 11.9734C10.2611 11.9734 10.2677 11.9761 10.2725 11.9809C10.2774 11.9858 10.2801 11.9924 10.2801 11.9992Z" fill="#E6E6E6" fill-opacity="0.8"/>
<path d="M9.50359 12.5678C9.50359 12.5729 9.50208 12.5779 9.49924 12.5821C9.4964 12.5864 9.49236 12.5897 9.48764 12.5917C9.48292 12.5936 9.47772 12.5941 9.47271 12.5931C9.46769 12.5921 9.46309 12.5897 9.45947 12.5861C9.45586 12.5825 9.4534 12.5778 9.4524 12.5728C9.4514 12.5678 9.45192 12.5626 9.45387 12.5579C9.45583 12.5532 9.45914 12.5491 9.46339 12.5463C9.46764 12.5435 9.47264 12.5419 9.47775 12.5419C9.4846 12.5419 9.49118 12.5447 9.49602 12.5495C9.50087 12.5544 9.50359 12.5609 9.50359 12.5678Z" fill="#E6E6E6" fill-opacity="0.8"/>
<path d="M9.1574 13.461C9.1574 13.4661 9.15589 13.4711 9.15305 13.4753C9.15021 13.4796 9.14617 13.4829 9.14145 13.4848C9.13672 13.4868 9.13153 13.4873 9.12652 13.4863C9.1215 13.4853 9.1169 13.4829 9.11328 13.4792C9.10967 13.4756 9.10721 13.471 9.10621 13.466C9.10521 13.461 9.10572 13.4558 9.10768 13.4511C9.10964 13.4464 9.11295 13.4423 9.1172 13.4395C9.12145 13.4366 9.12645 13.4351 9.13156 13.4351C9.13841 13.4351 9.14498 13.4378 9.14983 13.4427C9.15468 13.4475 9.1574 13.4541 9.1574 13.461Z" fill="#E6E6E6" fill-opacity="0.8"/>
<path d="M9.23284 14.3676C9.23284 14.3744 9.23012 14.381 9.22527 14.3859C9.22043 14.3907 9.21385 14.3934 9.207 14.3934C9.20014 14.3934 9.19357 14.3907 9.18872 14.3859C9.18388 14.381 9.18115 14.3744 9.18115 14.3676C9.18115 14.3607 9.18388 14.3542 9.18872 14.3493C9.19357 14.3445 9.20014 14.3417 9.207 14.3417C9.21385 14.3417 9.22043 14.3445 9.22527 14.3493C9.23012 14.3542 9.23284 14.3607 9.23284 14.3676Z" fill="#E6E6E6" fill-opacity="0.8"/>
<path d="M9.65569 15.0953C9.65569 15.1004 9.65418 15.1054 9.65134 15.1097C9.6485 15.1139 9.64446 15.1173 9.63974 15.1192C9.63502 15.1212 9.62982 15.1217 9.62481 15.1207C9.61979 15.1197 9.61519 15.1172 9.61157 15.1136C9.60796 15.11 9.6055 15.1054 9.6045 15.1004C9.6035 15.0954 9.60402 15.0902 9.60597 15.0854C9.60793 15.0807 9.61124 15.0767 9.61549 15.0738C9.61974 15.071 9.62474 15.0695 9.62985 15.0695C9.6367 15.0695 9.64328 15.0722 9.64812 15.0771C9.65297 15.0819 9.65569 15.0885 9.65569 15.0953Z" fill="#E6E6E6" fill-opacity="0.8"/>
<path d="M10.403 15.727C10.403 15.7321 10.4015 15.7371 10.3987 15.7413C10.3958 15.7456 10.3918 15.7489 10.3871 15.7508C10.3823 15.7528 10.3771 15.7533 10.3721 15.7523C10.3671 15.7513 10.3625 15.7489 10.3589 15.7452C10.3553 15.7416 10.3528 15.737 10.3518 15.732C10.3508 15.727 10.3513 15.7218 10.3533 15.7171C10.3552 15.7124 10.3586 15.7083 10.3628 15.7055C10.3671 15.7026 10.3721 15.7011 10.3772 15.7011C10.384 15.7011 10.3906 15.7038 10.3954 15.7087C10.4003 15.7135 10.403 15.7201 10.403 15.727Z" fill="#E6E6E6" fill-opacity="0.8"/>
<path d="M11.4255 15.7518C11.4255 15.7586 11.4227 15.7652 11.4179 15.77C11.4131 15.7749 11.4065 15.7776 11.3996 15.7776C11.3928 15.7776 11.3862 15.7749 11.3813 15.77C11.3765 15.7652 11.3738 15.7586 11.3738 15.7518C11.3738 15.7449 11.3765 15.7383 11.3813 15.7335C11.3862 15.7286 11.3928 15.7259 11.3996 15.7259C11.4065 15.7259 11.4131 15.7286 11.4179 15.7335C11.4227 15.7383 11.4255 15.7449 11.4255 15.7518Z" fill="#E6E6E6" fill-opacity="0.8"/>
<path d="M12.4064 15.7787C12.4064 15.7838 12.4049 15.7888 12.4021 15.793C12.3992 15.7973 12.3952 15.8006 12.3905 15.8025C12.3857 15.8045 12.3806 15.805 12.3755 15.804C12.3705 15.803 12.3659 15.8005 12.3623 15.7969C12.3587 15.7933 12.3562 15.7887 12.3552 15.7837C12.3542 15.7787 12.3547 15.7735 12.3567 15.7688C12.3587 15.764 12.362 15.76 12.3662 15.7572C12.3705 15.7543 12.3755 15.7528 12.3806 15.7528C12.3874 15.7528 12.394 15.7555 12.3989 15.7604C12.4037 15.7652 12.4064 15.7718 12.4064 15.7787Z" fill="#E6E6E6" fill-opacity="0.8"/>
<path d="M13.0856 17.1473C13.0856 17.1524 13.0841 17.1574 13.0813 17.1617C13.0784 17.1659 13.0744 17.1693 13.0697 17.1712C13.0649 17.1732 13.0598 17.1737 13.0547 17.1727C13.0497 17.1717 13.0451 17.1692 13.0415 17.1656C13.0379 17.162 13.0354 17.1574 13.0344 17.1524C13.0334 17.1474 13.0339 17.1422 13.0359 17.1374C13.0379 17.1327 13.0412 17.1287 13.0454 17.1258C13.0497 17.123 13.0547 17.1215 13.0598 17.1215C13.0666 17.1215 13.0732 17.1242 13.0781 17.1291C13.0829 17.1339 13.0856 17.1405 13.0856 17.1473Z" fill="#E6E6E6" fill-opacity="0.8"/>
<path d="M12.7248 12.0303C12.6982 11.7969 12.6892 11.562 12.6979 11.3273C12.6892 11.0926 12.6982 10.8577 12.7248 10.6243C12.7514 10.8577 12.7604 11.0926 12.7517 11.3273C12.7604 11.562 12.7514 11.7969 12.7248 12.0303Z" fill="#E6E6E6" fill-opacity="0.8"/>
<path d="M12.7558 18.0798C12.7413 18.0798 12.7289 17.504 12.7289 16.7928C12.7289 16.0815 12.7413 15.5047 12.7558 15.5047C12.7702 15.5047 12.7837 16.0815 12.7837 16.7928C12.7837 17.504 12.7754 18.0798 12.7558 18.0798Z" fill="#E6E6E6" fill-opacity="0.8"/>
<path d="M14.0708 15.5047C14.2874 15.497 14.5011 15.4519 14.7024 15.3714C14.9375 15.2757 15.1478 15.128 15.3175 14.9392C15.424 14.8228 15.5132 14.6915 15.5821 14.5495C15.6619 14.3916 15.7147 14.2214 15.7382 14.0461C15.8005 13.6433 15.7239 13.2314 15.5211 12.8779C15.4027 12.6788 15.2447 12.506 15.057 12.3702C14.8692 12.2343 14.6557 12.1384 14.4295 12.0881C14.1907 12.0323 13.9353 12.0561 13.6759 12.0509H11.2093C10.9338 12.0509 10.6626 12.1186 10.4194 12.248C10.1762 12.3774 9.96861 12.5646 9.81477 12.7932C9.67049 13.0106 9.57785 13.2581 9.54393 13.5168C9.5125 13.7659 9.53006 14.0187 9.59562 14.2611C9.66005 14.4834 9.7697 14.6899 9.91771 14.8678C10.0657 15.0457 10.2489 15.1911 10.4557 15.2949C10.6438 15.3894 10.8478 15.4482 11.0574 15.4685L11.2072 15.4758H11.6445L13.4195 15.484L13.9033 15.4892H14.0284C14.0425 15.4879 14.0567 15.4879 14.0708 15.4892H14.0284H13.9033L13.4195 15.4944L11.6445 15.5026H11.2072L11.0543 15.4954C10.7075 15.4639 10.3783 15.3287 10.1094 15.1075C9.84062 14.8862 9.64464 14.5891 9.54703 14.2549C9.47926 14.0059 9.461 13.746 9.49328 13.4899C9.52732 13.2224 9.62247 12.9663 9.77136 12.7415C9.92928 12.505 10.1432 12.3113 10.3941 12.1775C10.6449 12.0436 10.925 11.9739 11.2093 11.9744H14.0594L14.2506 11.9837C14.3137 11.9941 14.3768 12.0013 14.4377 12.0147C14.6731 12.0693 14.8944 12.1725 15.0875 12.3176C15.2807 12.4626 15.4414 12.6465 15.5594 12.8573C15.7646 13.2196 15.8401 13.6412 15.7734 14.0523C15.7488 14.2325 15.6939 14.4073 15.6111 14.5692C15.5395 14.7131 15.4472 14.8458 15.3371 14.963C15.1638 15.1537 14.9487 15.3016 14.7086 15.3951C14.5578 15.4539 14.3994 15.4912 14.2382 15.5057H14.1121L14.0708 15.5047Z" fill="#E6E6E6" fill-opacity="0.8"/>
<g opacity="0.3">
<path opacity="0.3" d="M9.10457 16.3979C10.0763 17.1887 11.2393 17.963 12.5253 17.9888C13.8244 18.0083 15.0817 17.5305 16.0401 16.6532C16.0401 16.6532 15.8664 17.9144 14.6548 18.1005C13.8816 18.2214 12.5718 18.2173 11.6569 18.1718C11.14 18.147 10.7534 18.087 10.6583 18.0767C10.3389 18.0426 9.76721 17.9382 9.4178 17.1618C9.36405 17.045 9.30202 16.9489 9.26584 16.8651C9.06736 16.4092 9.10457 16.3979 9.10457 16.3979Z" fill="#ADBBC9"/>
</g>
<path d="M14.9619 18.0695H10.3182C10.2452 18.0695 10.1859 18.1287 10.1859 18.2018V18.2059C10.1859 18.279 10.2452 18.3383 10.3182 18.3383H14.9619C15.035 18.3383 15.0942 18.279 15.0942 18.2059V18.2018C15.0942 18.1287 15.035 18.0695 14.9619 18.0695Z" fill="#ADBBC9"/>
<path d="M12.519 21.8354C12.4806 21.8352 12.4423 21.83 12.4053 21.8199C12.3024 21.7977 12.2012 21.7684 12.1024 21.7321C11.7745 21.6128 11.4743 21.4283 11.2198 21.1897C10.9654 20.951 10.762 20.6633 10.622 20.3437C10.5803 20.2475 10.5457 20.1484 10.5186 20.047C10.5058 20.0107 10.4979 19.9728 10.4949 19.9344C10.5042 19.9344 10.5455 20.0905 10.6592 20.3272C10.9559 20.9513 11.4772 21.4405 12.1189 21.6969C12.3618 21.7951 12.521 21.8261 12.519 21.8354Z" fill="#ADBBC9"/>
<path d="M14.9806 19.9426C14.9806 19.9426 16.0516 20.2186 15.7094 21.1252L13.8393 22.6842C13.6501 22.5794 13.4873 22.4327 13.3634 22.2553C13.2396 22.0779 13.1581 21.8745 13.125 21.6607L14.9299 20.0419" fill="#ADBBC9"/>
<path d="M12.9451 21.8386C12.9451 21.8292 13.1043 21.7972 13.3482 21.699C13.9901 21.4434 14.5116 20.9544 14.8079 20.3303C14.9216 20.0936 14.963 19.9344 14.9723 19.9375C14.9692 19.9759 14.9612 20.0138 14.9485 20.0501C14.9216 20.1515 14.887 20.2507 14.8451 20.3468C14.7051 20.6664 14.5018 20.9542 14.2473 21.1928C13.9928 21.4314 13.6926 21.6159 13.3648 21.7352C13.2661 21.7717 13.1649 21.8007 13.0619 21.822C13.0239 21.8329 12.9846 21.8385 12.9451 21.8386Z" fill="#ADBBC9"/>
<path d="M12.7755 21.8623C12.7489 21.5295 12.7399 21.1954 12.7486 20.8616C12.7399 20.5275 12.7488 20.1931 12.7755 19.8599C12.8021 20.1931 12.8111 20.5275 12.8024 20.8616C12.811 21.1954 12.8021 21.5295 12.7755 21.8623Z" fill="#ADBBC9"/>
<path d="M9.95543 29.3612L9.14393 30.0952C9.14393 30.0952 9.05089 32.7706 10.0743 35.2547C11.0977 37.7388 11.7655 38.4666 11.7655 38.4666L12.5336 38.4169L11.9485 29.4687L11.107 29.2858L9.95543 29.3612Z" fill="#E6E6E6" fill-opacity="0.8"/>
<g opacity="0.3">
<path opacity="0.3" d="M10.775 29.3137L12.0393 38.1885L12.5376 38.2474L11.9494 29.4687L11.1079 29.2858L10.775 29.3137Z" fill="#ADBBC9"/>
</g>
<path d="M12.0394 38.1843C12.0239 38.1843 11.7293 36.2026 11.3871 33.7526C11.0449 31.3026 10.7741 29.3147 10.7896 29.3126C10.8051 29.3106 11.0997 31.2943 11.4408 33.7454C11.782 36.1964 12.0518 38.1843 12.0394 38.1843Z" fill="#E6E6E6" fill-opacity="0.8"/>
<path d="M11.4161 31.5941C11.4164 31.5975 11.416 31.601 11.4149 31.6042C11.4139 31.6074 11.4122 31.6105 11.41 31.613C11.4078 31.6156 11.4051 31.6178 11.4021 31.6193C11.399 31.6209 11.3957 31.6218 11.3923 31.6221C11.3854 31.6223 11.3786 31.6199 11.3733 31.6153C11.3681 31.6107 11.3649 31.6042 11.3644 31.5972C11.3643 31.5939 11.3648 31.5905 11.366 31.5873C11.3671 31.5841 11.3689 31.5812 11.3712 31.5787C11.3735 31.5762 11.3763 31.5742 11.3794 31.5727C11.3825 31.5713 11.3858 31.5705 11.3892 31.5704C11.3959 31.5701 11.4024 31.5724 11.4074 31.5768C11.4125 31.5813 11.4156 31.5875 11.4161 31.5941Z" fill="#E6E6E6" fill-opacity="0.8"/>
<path d="M11.7076 33.7743C11.7079 33.7811 11.7056 33.7878 11.7012 33.793C11.6968 33.7981 11.6906 33.8015 11.6838 33.8022C11.6768 33.8025 11.67 33.8001 11.6648 33.7955C11.6596 33.7908 11.6564 33.7844 11.6559 33.7774C11.6559 33.7706 11.6586 33.764 11.6635 33.7592C11.6683 33.7543 11.6749 33.7516 11.6817 33.7516C11.6886 33.7516 11.6952 33.7543 11.7 33.7592C11.7048 33.764 11.7076 33.7706 11.7076 33.7774V33.7743Z" fill="#E6E6E6" fill-opacity="0.8"/>
<path d="M12.0094 36.2801C12.0096 36.2835 12.0092 36.287 12.0082 36.2902C12.0072 36.2935 12.0055 36.2965 12.0033 36.299C12.0011 36.3016 11.9984 36.3038 11.9953 36.3053C11.9923 36.3069 11.989 36.3078 11.9856 36.3081C11.9788 36.3084 11.9721 36.3061 11.9669 36.3017C11.9618 36.2973 11.9584 36.291 11.9577 36.2843C11.9574 36.2773 11.9598 36.2705 11.9644 36.2653C11.9691 36.2601 11.9755 36.2569 11.9825 36.2564C11.9892 36.2561 11.9957 36.2584 12.0007 36.2628C12.0057 36.2673 12.0088 36.2735 12.0094 36.2801Z" fill="#E6E6E6" fill-opacity="0.8"/>
<path d="M11.0698 29.8109C11.0701 29.8179 11.0677 29.8247 11.0631 29.8299C11.0584 29.8351 11.052 29.8383 11.045 29.8388C11.0382 29.8388 11.0316 29.8361 11.0267 29.8312C11.0219 29.8264 11.0192 29.8198 11.0192 29.813C11.0192 29.8061 11.0219 29.7995 11.0267 29.7947C11.0316 29.7898 11.0382 29.7871 11.045 29.7871C11.0513 29.7876 11.0572 29.7902 11.0617 29.7945C11.0662 29.7989 11.0691 29.8047 11.0698 29.8109Z" fill="#E6E6E6" fill-opacity="0.8"/>
<path d="M9.75483 21.1273H9.00639C9.00639 21.1273 8.07601 25.803 9.75483 27.9233H11.0636C11.0636 27.9233 11.6249 26.8626 11.6249 26.3023V22.678L9.75483 21.1273Z" fill="#E6E6E6" fill-opacity="0.8"/>
<g opacity="0.3">
<path opacity="0.3" d="M9.24219 27.0249L10.6729 26.4605V21.8882L11.625 22.6811L11.6147 26.2899C11.6149 26.4078 11.6021 26.5253 11.5764 26.6404C11.4716 27.0906 11.2972 27.5217 11.0595 27.9181H9.75493C9.54333 27.6457 9.37075 27.345 9.24219 27.0249Z" fill="#ADBBC9"/>
</g>
<path d="M10.6728 21.8882C10.6776 21.9085 10.6797 21.9294 10.679 21.9502C10.679 21.9967 10.679 22.0536 10.6842 22.128C10.6842 22.2893 10.6842 22.5115 10.6925 22.7824C10.6925 23.3416 10.6976 24.1025 10.7007 24.9429C10.7007 25.4981 10.7007 26.017 10.7007 26.4605V26.477L10.6862 26.4822L9.64525 26.8823L9.35167 26.9908C9.31824 27.0051 9.28366 27.0165 9.24829 27.0249C9.28139 27.0063 9.31597 26.9904 9.35167 26.9774L9.64009 26.8564L10.6738 26.4429L10.6594 26.4646C10.6594 26.0212 10.6594 25.5022 10.6594 24.9471C10.6594 24.1066 10.6656 23.3458 10.6676 22.7865C10.6676 22.5157 10.6738 22.2934 10.6759 22.1322C10.6759 22.0598 10.6759 22.0009 10.6811 21.9543C10.6765 21.9326 10.6737 21.9104 10.6728 21.8882Z" fill="#E6E6E6" fill-opacity="0.8"/>
<path d="M10.9147 25.3833C10.9147 25.3884 10.9132 25.3934 10.9104 25.3977C10.9075 25.4019 10.9035 25.4052 10.8988 25.4072C10.894 25.4091 10.8889 25.4097 10.8838 25.4087C10.8788 25.4077 10.8742 25.4052 10.8706 25.4016C10.867 25.398 10.8645 25.3934 10.8635 25.3884C10.8625 25.3833 10.863 25.3781 10.865 25.3734C10.867 25.3687 10.8703 25.3647 10.8745 25.3618C10.8788 25.359 10.8838 25.3575 10.8889 25.3575C10.8957 25.3575 10.9023 25.3602 10.9072 25.365C10.912 25.3699 10.9147 25.3765 10.9147 25.3833Z" fill="#E6E6E6" fill-opacity="0.8"/>
<path d="M10.1105 27.089C10.1105 27.0941 10.109 27.0991 10.1062 27.1034C10.1033 27.1076 10.0993 27.1109 10.0946 27.1129C10.0898 27.1148 10.0847 27.1154 10.0796 27.1144C10.0746 27.1134 10.07 27.1109 10.0664 27.1073C10.0628 27.1037 10.0603 27.0991 10.0593 27.0941C10.0583 27.089 10.0588 27.0838 10.0608 27.0791C10.0628 27.0744 10.0661 27.0704 10.0703 27.0675C10.0746 27.0647 10.0796 27.0632 10.0847 27.0632C10.0915 27.0632 10.0981 27.0659 10.103 27.0707C10.1078 27.0756 10.1105 27.0822 10.1105 27.089Z" fill="#E6E6E6" fill-opacity="0.8"/>
<path d="M10.9147 23.9464C10.9147 23.9532 10.912 23.9598 10.9072 23.9647C10.9023 23.9695 10.8957 23.9722 10.8889 23.9722C10.882 23.9722 10.8755 23.9695 10.8706 23.9647C10.8658 23.9598 10.863 23.9532 10.863 23.9464C10.863 23.9395 10.8658 23.9329 10.8706 23.9281C10.8755 23.9233 10.882 23.9205 10.8889 23.9205C10.8957 23.9205 10.9023 23.9233 10.9072 23.9281C10.912 23.9329 10.9147 23.9395 10.9147 23.9464Z" fill="#E6E6E6" fill-opacity="0.8"/>
<path d="M10.9147 22.5084C10.9147 22.5135 10.9132 22.5185 10.9104 22.5228C10.9075 22.527 10.9035 22.5303 10.8988 22.5323C10.894 22.5343 10.8889 22.5348 10.8838 22.5338C10.8788 22.5328 10.8742 22.5303 10.8706 22.5267C10.867 22.5231 10.8645 22.5185 10.8635 22.5135C10.8625 22.5084 10.863 22.5033 10.865 22.4985C10.867 22.4938 10.8703 22.4898 10.8745 22.4869C10.8788 22.4841 10.8838 22.4826 10.8889 22.4826C10.8957 22.4826 10.9023 22.4853 10.9072 22.4901C10.912 22.495 10.9147 22.5016 10.9147 22.5084Z" fill="#E6E6E6" fill-opacity="0.8"/>
<path d="M10.7256 27.8819H10.1415C9.75103 27.8819 9.43445 28.1985 9.43445 28.589V28.6179C9.43445 29.0085 9.75103 29.325 10.1415 29.325H10.7256C11.1161 29.325 11.4327 29.0085 11.4327 28.6179V28.589C11.4327 28.1985 11.1161 27.8819 10.7256 27.8819Z" fill="#ADBBC9"/>
<path d="M10.2665 29.3188C10.2665 29.3188 10.2438 29.3188 10.2097 29.3044C10.1622 29.2775 10.1226 29.2387 10.0949 29.1917C10.0202 29.034 9.98478 28.8605 9.99153 28.6862C9.98858 28.5134 10.0151 28.3414 10.0701 28.1776C10.0873 28.1079 10.1178 28.0422 10.16 27.9843C10.09 28.2116 10.0514 28.4474 10.0453 28.6851C10.0402 28.852 10.0698 29.0182 10.1321 29.1731C10.163 29.2329 10.2094 29.2833 10.2665 29.3188Z" fill="#ADBBC9"/>
<path d="M12.9822 39.8384C12.9822 39.6213 12.9822 39.0114 12.9192 38.8046C12.8683 38.5902 12.735 38.4045 12.548 38.2877C12.3945 38.2193 12.2269 38.1881 12.059 38.1965C11.891 38.2049 11.7274 38.2528 11.5815 38.3363C11.4781 38.4186 11.3956 38.5241 11.3406 38.6443C11.2857 38.7644 11.2598 38.8959 11.2652 39.0279L11.2207 39.8322" fill="#ADBBC9"/>
<path d="M11.2723 38.9979C11.3463 39.0396 11.4261 39.0699 11.5091 39.0879C11.9038 39.1979 12.3182 39.2177 12.7217 39.1458C12.806 39.136 12.8882 39.1133 12.9656 39.0786C12.6836 39.1158 12.3993 39.1328 12.1149 39.1292C11.8312 39.1057 11.5497 39.0618 11.2723 38.9979Z" fill="#ADBBC9"/>
<path d="M15.4871 29.1906L16.3441 29.8698C16.3441 29.8698 16.6098 32.5297 15.7528 35.0707C14.8958 37.6116 14.2755 38.3787 14.2755 38.3787H13.5074V29.4263L14.3345 29.1896L15.4871 29.1906Z" fill="#E6E6E6" fill-opacity="0.8"/>
<g opacity="0.3">
<path opacity="0.3" d="M14.687 29.2299L14.0005 38.1678L13.5074 38.2598L13.525 29.4605L14.3531 29.2237L14.687 29.2299Z" fill="#ADBBC9"/>
</g>
<path d="M14.0078 38.1678C13.9933 38.1678 14.1318 36.1665 14.3179 33.6989C14.504 31.2313 14.6663 29.233 14.6807 29.2341C14.6952 29.2351 14.5577 31.2354 14.3706 33.703C14.1835 36.1706 14.0233 38.1688 14.0078 38.1678Z" fill="#E6E6E6" fill-opacity="0.8"/>
<path d="M14.1844 31.5569C14.1844 31.5698 14.1896 31.5822 14.1987 31.5913C14.2078 31.6004 14.2201 31.6055 14.233 31.6055C14.2459 31.6055 14.2583 31.6004 14.2674 31.5913C14.2765 31.5822 14.2816 31.5698 14.2816 31.5569C14.2816 31.544 14.2765 31.5317 14.2674 31.5226C14.2583 31.5134 14.2459 31.5083 14.233 31.5083C14.2201 31.5083 14.2078 31.5134 14.1987 31.5226C14.1896 31.5317 14.1844 31.544 14.1844 31.5569Z" fill="#E6E6E6" fill-opacity="0.8"/>
<path d="M13.9911 33.7816C13.9909 33.7912 13.9936 33.8007 13.9988 33.8088C14.004 33.817 14.0115 33.8234 14.0204 33.8272C14.0292 33.831 14.039 33.8321 14.0485 33.8304C14.058 33.8286 14.0668 33.8241 14.0737 33.8173C14.0806 33.8106 14.0853 33.8019 14.0872 33.7925C14.0892 33.783 14.0883 33.7732 14.0847 33.7643C14.081 33.7553 14.0748 33.7477 14.0668 33.7423C14.0588 33.7369 14.0493 33.734 14.0397 33.734C14.027 33.734 14.0148 33.739 14.0057 33.7479C13.9966 33.7568 13.9914 33.7689 13.9911 33.7816Z" fill="#E6E6E6" fill-opacity="0.8"/>
<path d="M13.894 36.2967C13.894 36.3063 13.8969 36.3157 13.9022 36.3237C13.9076 36.3317 13.9152 36.3379 13.924 36.3416C13.9329 36.3453 13.9427 36.3462 13.9521 36.3444C13.9615 36.3425 13.9702 36.3379 13.977 36.3311C13.9838 36.3243 13.9884 36.3156 13.9903 36.3062C13.9922 36.2968 13.9912 36.287 13.9875 36.2781C13.9838 36.2692 13.9776 36.2617 13.9696 36.2563C13.9616 36.251 13.9522 36.2481 13.9426 36.2481C13.9297 36.2481 13.9174 36.2532 13.9083 36.2624C13.8992 36.2715 13.894 36.2838 13.894 36.2967Z" fill="#E6E6E6" fill-opacity="0.8"/>
<path d="M14.3777 29.7189C14.3775 29.7285 14.3802 29.738 14.3854 29.7462C14.3906 29.7543 14.3981 29.7607 14.407 29.7645C14.4158 29.7684 14.4256 29.7695 14.4351 29.7677C14.4446 29.7659 14.4534 29.7614 14.4603 29.7547C14.4672 29.7479 14.4719 29.7392 14.4738 29.7298C14.4758 29.7203 14.4749 29.7105 14.4713 29.7016C14.4676 29.6926 14.4614 29.685 14.4534 29.6796C14.4454 29.6742 14.4359 29.6713 14.4263 29.6713C14.4136 29.6713 14.4014 29.6763 14.3923 29.6852C14.3832 29.6941 14.378 29.7062 14.3777 29.7189Z" fill="#E6E6E6" fill-opacity="0.8"/>
<path d="M15.6608 21.0622H16.4072C16.4072 21.0622 17.3376 25.7213 15.6608 27.8333H14.3572C14.3572 27.8333 13.798 26.7768 13.798 26.2186V22.6149L15.6608 21.0622Z" fill="#E6E6E6" fill-opacity="0.8"/>
<g opacity="0.3">
<path opacity="0.3" d="M16.2201 26.9402L14.7645 26.3757V21.8034L13.798 22.5963L13.8093 26.2031C13.8098 26.3227 13.8233 26.442 13.8497 26.5587C13.9544 27.0079 14.1288 27.438 14.3665 27.8333H15.698C15.9131 27.5616 16.0888 27.2609 16.2201 26.9402Z" fill="#ADBBC9"/>
</g>
<path d="M14.7645 21.8365C14.7692 21.8568 14.7713 21.8777 14.7707 21.8985C14.7707 21.945 14.7707 22.0019 14.7758 22.0763C14.7758 22.2386 14.7758 22.4598 14.7841 22.7317C14.7841 23.291 14.7841 24.0529 14.7913 24.8933C14.7913 25.4495 14.7913 25.9695 14.7913 26.414L14.7769 26.3923L15.8106 26.8058L16.0991 26.9267C16.1348 26.9392 16.1694 26.9547 16.2024 26.9732C16.1669 26.9657 16.1323 26.9547 16.0991 26.9402L15.8055 26.8306L14.7645 26.4315L14.75 26.4253V26.4098C14.75 25.9653 14.75 25.4453 14.75 24.8892C14.75 24.0487 14.7562 23.2869 14.7583 22.7276C14.7583 22.4557 14.7645 22.2345 14.7665 22.0722C14.7665 21.9998 14.7665 21.9409 14.7717 21.8944C14.7679 21.8753 14.7655 21.8559 14.7645 21.8365Z" fill="#E6E6E6" fill-opacity="0.8"/>
<path d="M14.475 25.3657C14.475 25.3754 14.4779 25.3848 14.4832 25.3928C14.4886 25.4008 14.4963 25.4071 14.5052 25.4107C14.5142 25.4144 14.524 25.4153 14.5334 25.4133C14.5429 25.4113 14.5515 25.4066 14.5583 25.3997C14.565 25.3928 14.5696 25.3841 14.5713 25.3746C14.5731 25.3651 14.572 25.3553 14.5681 25.3464C14.5643 25.3376 14.5579 25.33 14.5498 25.3248C14.5417 25.3196 14.5322 25.3169 14.5225 25.3171C14.5098 25.3174 14.4977 25.3227 14.4888 25.3317C14.4799 25.3408 14.475 25.353 14.475 25.3657Z" fill="#E6E6E6" fill-opacity="0.8"/>
<path d="M15.248 27.0115C15.248 27.0211 15.2509 27.0305 15.2562 27.0385C15.2616 27.0465 15.2692 27.0527 15.278 27.0564C15.2869 27.06 15.2967 27.061 15.3061 27.0591C15.3155 27.0573 15.3242 27.0526 15.331 27.0458C15.3378 27.039 15.3424 27.0304 15.3443 27.021C15.3462 27.0115 15.3452 27.0018 15.3415 26.9929C15.3378 26.984 15.3316 26.9764 15.3236 26.9711C15.3156 26.9657 15.3062 26.9629 15.2966 26.9629C15.2837 26.9629 15.2714 26.968 15.2623 26.9771C15.2532 26.9862 15.248 26.9986 15.248 27.0115Z" fill="#E6E6E6" fill-opacity="0.8"/>
<path d="M14.475 23.9185C14.474 23.9254 14.4745 23.9324 14.4764 23.9391C14.4784 23.9458 14.4817 23.952 14.4863 23.9573C14.4909 23.9626 14.4965 23.9668 14.5029 23.9697C14.5092 23.9726 14.5161 23.9741 14.5231 23.9741C14.5301 23.9741 14.5369 23.9726 14.5433 23.9697C14.5496 23.9668 14.5553 23.9626 14.5598 23.9573C14.5644 23.952 14.5678 23.9458 14.5697 23.9391C14.5717 23.9324 14.5722 23.9254 14.5711 23.9185C14.5694 23.9069 14.5637 23.8964 14.5548 23.8888C14.546 23.8811 14.5347 23.877 14.5231 23.877C14.5114 23.877 14.5001 23.8811 14.4913 23.8888C14.4825 23.8964 14.4767 23.9069 14.475 23.9185Z" fill="#E6E6E6" fill-opacity="0.8"/>
<path d="M14.475 22.465C14.475 22.4747 14.4779 22.4841 14.4832 22.4921C14.4886 22.5001 14.4963 22.5063 14.5052 22.51C14.5142 22.5136 14.524 22.5145 14.5334 22.5126C14.5429 22.5106 14.5515 22.5059 14.5583 22.499C14.565 22.4921 14.5696 22.4833 14.5713 22.4738C14.5731 22.4643 14.572 22.4545 14.5681 22.4457C14.5643 22.4368 14.5579 22.4293 14.5498 22.4241C14.5417 22.4189 14.5322 22.4162 14.5225 22.4164C14.5098 22.4167 14.4977 22.4219 14.4888 22.431C14.4799 22.4401 14.475 22.4523 14.475 22.465Z" fill="#E6E6E6" fill-opacity="0.8"/>
<path d="M14.7024 29.1876H15.3112C15.704 29.1876 16.0225 28.8691 16.0225 28.4763V28.4474C16.0225 28.0546 15.704 27.7362 15.3112 27.7362H14.7024C14.3096 27.7362 13.9911 28.0546 13.9911 28.4474V28.4763C13.9911 28.8691 14.3096 29.1876 14.7024 29.1876Z" fill="#ADBBC9"/>
<path d="M15.1387 29.2237C15.1971 29.1885 15.245 29.1381 15.2772 29.078C15.3389 28.9232 15.3685 28.7576 15.364 28.5911C15.3573 28.3529 15.3184 28.1168 15.2483 27.8891C15.2906 27.9472 15.3215 28.0128 15.3392 28.0824C15.3932 28.2465 15.4197 28.4184 15.4178 28.5911C15.4247 28.7654 15.3892 28.9389 15.3144 29.0966C15.2871 29.1439 15.2475 29.1828 15.1997 29.2092C15.1614 29.2258 15.1397 29.2268 15.1387 29.2237Z" fill="#ADBBC9"/>
<path d="M12.8851 39.8218C12.8851 39.6047 12.8851 39.001 12.9482 38.7881C12.999 38.5733 13.1328 38.3875 13.3203 38.2712C13.4739 38.2028 13.6415 38.1715 13.8094 38.1799C13.9774 38.1884 14.1409 38.2363 14.2869 38.3198C14.3903 38.4018 14.4727 38.5071 14.5275 38.6272C14.5823 38.7472 14.6079 38.8785 14.6022 39.0103L14.6477 39.8146" fill="#ADBBC9"/>
<path d="M14.7862 38.9659C14.7121 39.0073 14.6324 39.0376 14.5495 39.0558C14.1547 39.1659 13.7403 39.1856 13.3369 39.1137C13.2527 39.1034 13.1705 39.0808 13.0929 39.0465C13.0929 39.0279 13.4723 39.1209 13.9437 39.0961C14.2273 39.0732 14.5089 39.0297 14.7862 38.9659Z" fill="#ADBBC9"/>
<path d="M9.30922 11.4999C9.30922 11.4999 8.15348 11.4141 8.00875 12.5719C7.86402 13.7298 8.90915 13.7256 8.90915 13.7256L9.30922 11.4999Z" fill="#ADBBC9"/>
<path d="M4.65625 15.7487L5.96809 16.5984L8.35607 14.1401L8.55352 11.2725L7.24168 11.8907L4.65625 15.7487Z" fill="#E6E6E6" fill-opacity="0.8"/>
<g opacity="0.3">
<path opacity="0.3" d="M8.35611 14.1401L5.96813 16.5984L5.42334 16.2459L8.44088 12.9151L8.35611 14.1401Z" fill="#ADBBC9"/>
</g>
<path d="M8.41918 12.9255C8.43055 12.9358 7.84855 13.5954 7.12078 14.3986C6.39301 15.2018 5.79343 15.8458 5.7831 15.8355C5.77276 15.8252 6.3527 15.1656 7.0815 14.3624C7.8103 13.5592 8.40781 12.9151 8.41918 12.9255Z" fill="#E6E6E6" fill-opacity="0.8"/>
<path d="M6.40349 15.6246C6.40324 15.6314 6.40043 15.6378 6.39564 15.6426C6.39085 15.6474 6.38442 15.6502 6.37765 15.6505C6.3708 15.6505 6.36422 15.6478 6.35938 15.6429C6.35453 15.6381 6.35181 15.6315 6.35181 15.6246C6.35181 15.6178 6.35453 15.6112 6.35938 15.6064C6.36422 15.6015 6.3708 15.5988 6.37765 15.5988C6.3845 15.5988 6.39108 15.6015 6.39592 15.6064C6.40077 15.6112 6.40349 15.6178 6.40349 15.6246Z" fill="#E6E6E6" fill-opacity="0.8"/>
<path d="M7.10125 14.8348C7.10125 14.8399 7.09973 14.8449 7.09689 14.8492C7.09405 14.8534 7.09002 14.8568 7.08529 14.8587C7.08057 14.8607 7.07538 14.8612 7.07036 14.8602C7.06535 14.8592 7.06074 14.8567 7.05713 14.8531C7.05352 14.8495 7.05105 14.8449 7.05006 14.8399C7.04906 14.8349 7.04957 14.8297 7.05153 14.8249C7.05348 14.8202 7.0568 14.8162 7.06105 14.8133C7.0653 14.8105 7.07029 14.809 7.0754 14.809C7.08226 14.809 7.08883 14.8117 7.09368 14.8166C7.09853 14.8214 7.10125 14.828 7.10125 14.8348Z" fill="#E6E6E6" fill-opacity="0.8"/>
<path d="M7.799 14.0451C7.799 14.0502 7.79749 14.0552 7.79465 14.0594C7.79181 14.0637 7.78777 14.067 7.78305 14.0689C7.77833 14.0709 7.77313 14.0714 7.76812 14.0704C7.7631 14.0694 7.7585 14.0669 7.75488 14.0633C7.75127 14.0597 7.74881 14.0551 7.74781 14.0501C7.74681 14.0451 7.74733 14.0399 7.74928 14.0352C7.75124 14.0304 7.75455 14.0264 7.7588 14.0236C7.76305 14.0207 7.76805 14.0192 7.77316 14.0192C7.78001 14.0192 7.78659 14.0219 7.79143 14.0268C7.79628 14.0316 7.799 14.0382 7.799 14.0451Z" fill="#E6E6E6" fill-opacity="0.8"/>
<path d="M5.11033 17.7728C5.70353 17.7728 6.18441 17.2919 6.18441 16.6987C6.18441 16.1055 5.70353 15.6246 5.11033 15.6246C4.51713 15.6246 4.03625 16.1055 4.03625 16.6987C4.03625 17.2919 4.51713 17.7728 5.11033 17.7728Z" fill="#ADBBC9"/>
<path d="M6.14402 16.7928L8.97238 20.3065L8.47101 20.9619L4.17574 18.0953L4 16.6418L6.14402 16.7928Z" fill="#E6E6E6" fill-opacity="0.8"/>
<g opacity="0.3">
<path opacity="0.3" d="M7.99449 20.6446L8.08029 19.8186L5.47522 16.7452L6.14406 16.7928L8.97243 20.3065L8.47105 20.9619L7.99449 20.6446Z" fill="#ADBBC9"/>
</g>
<path d="M7.99449 20.6446C7.99178 20.6254 7.99178 20.6059 7.99449 20.5867C7.99449 20.5422 8.00173 20.4833 8.0069 20.4213C8.0193 20.2693 8.03791 20.0646 8.05962 19.8165L8.06479 19.832L7.02586 18.6163C6.59168 18.0994 6.19885 17.6394 5.92077 17.3004L5.591 16.8982L5.50313 16.7866C5.49211 16.774 5.48273 16.7601 5.47522 16.7452C5.47522 16.7452 5.48969 16.7566 5.5114 16.7793C5.53311 16.8021 5.56929 16.8424 5.60651 16.8827L5.94971 17.2735C6.23813 17.6063 6.63303 18.0674 7.06618 18.5791C7.46107 19.0484 7.81979 19.4764 8.09993 19.8031L8.1051 19.8103V19.8186C8.07616 20.0667 8.05135 20.2703 8.03377 20.4213C8.0255 20.4874 8.01723 20.5412 8.01206 20.5856C8.00894 20.606 8.00303 20.6258 7.99449 20.6446Z" fill="#E6E6E6" fill-opacity="0.8"/>
<path d="M7.33892 18.669C7.33892 18.6742 7.3374 18.6792 7.33456 18.6834C7.33172 18.6877 7.32769 18.691 7.32297 18.6929C7.31824 18.6949 7.31305 18.6954 7.30803 18.6944C7.30302 18.6934 7.29842 18.6909 7.2948 18.6873C7.29119 18.6837 7.28873 18.6791 7.28773 18.6741C7.28673 18.6691 7.28724 18.6639 7.2892 18.6592C7.29115 18.6544 7.29447 18.6504 7.29872 18.6476C7.30297 18.6447 7.30796 18.6432 7.31308 18.6432C7.31993 18.6432 7.3265 18.6459 7.33135 18.6508C7.3362 18.6556 7.33892 18.6622 7.33892 18.669Z" fill="#E6E6E6" fill-opacity="0.8"/>
<path d="M8.02007 19.4278C8.02007 19.4329 8.01856 19.4379 8.01572 19.4422C8.01288 19.4464 8.00884 19.4497 8.00412 19.4517C7.9994 19.4537 7.9942 19.4542 7.98919 19.4532C7.98417 19.4522 7.97957 19.4497 7.97595 19.4461C7.97234 19.4425 7.96988 19.4379 7.96888 19.4329C7.96788 19.4279 7.96839 19.4227 7.97035 19.4179C7.97231 19.4132 7.97562 19.4092 7.97987 19.4063C7.98412 19.4035 7.98912 19.402 7.99423 19.402C8.00108 19.402 8.00766 19.4047 8.0125 19.4095C8.01735 19.4144 8.02007 19.421 8.02007 19.4278Z" fill="#E6E6E6" fill-opacity="0.8"/>
<path d="M6.75176 17.9516C6.75176 17.9567 6.75025 17.9617 6.74741 17.966C6.74457 17.9702 6.74053 17.9735 6.73581 17.9755C6.73108 17.9774 6.72589 17.978 6.72088 17.977C6.71586 17.976 6.71126 17.9735 6.70764 17.9699C6.70403 17.9663 6.70157 17.9617 6.70057 17.9567C6.69957 17.9516 6.70008 17.9464 6.70204 17.9417C6.704 17.937 6.70731 17.933 6.71156 17.9301C6.71581 17.9273 6.72081 17.9258 6.72592 17.9258C6.73277 17.9258 6.73935 17.9285 6.74419 17.9333C6.74904 17.9382 6.75176 17.9448 6.75176 17.9516Z" fill="#E6E6E6" fill-opacity="0.8"/>
<path d="M6.15935 17.3024C6.15935 17.3075 6.15784 17.3125 6.155 17.3168C6.15216 17.321 6.14812 17.3243 6.1434 17.3263C6.13868 17.3282 6.13348 17.3288 6.12847 17.3278C6.12346 17.3268 6.11885 17.3243 6.11524 17.3207C6.11162 17.3171 6.10916 17.3125 6.10816 17.3075C6.10717 17.3024 6.10768 17.2972 6.10963 17.2925C6.11159 17.2878 6.1149 17.2838 6.11915 17.2809C6.1234 17.2781 6.1284 17.2766 6.13351 17.2766C6.14036 17.2766 6.14694 17.2793 6.15178 17.2841C6.15663 17.289 6.15935 17.2956 6.15935 17.3024Z" fill="#E6E6E6" fill-opacity="0.8"/>
<path d="M21.2305 10.2915L21.6388 11.8007L18.5686 13.3245L17.3063 13.0133L16.7667 11.5754L21.2305 10.2915Z" fill="#E6E6E6" fill-opacity="0.8"/>
<g opacity="0.3">
<path opacity="0.3" d="M18.5688 13.3245L21.639 11.8007L21.4695 11.1743L17.3768 13.0309L18.5688 13.3245Z" fill="#ADBBC9"/>
</g>
<path d="M17.3933 13.0133C17.3871 12.9999 18.1831 12.6257 19.1704 12.177C20.1576 11.7284 20.9629 11.3779 20.9691 11.3914C20.9753 11.4048 20.1804 11.779 19.1921 12.2267C18.2038 12.6743 17.3995 13.0268 17.3933 13.0133Z" fill="#E6E6E6" fill-opacity="0.8"/>
<path d="M20.5794 11.9176C20.586 11.9196 20.5931 11.919 20.5992 11.9158C20.6054 11.9126 20.6099 11.9071 20.612 11.9005C20.614 11.8939 20.6134 11.8868 20.6102 11.8807C20.607 11.8746 20.6015 11.87 20.5949 11.868C20.5884 11.866 20.5813 11.8666 20.5751 11.8696C20.5689 11.8727 20.5642 11.878 20.5619 11.8845C20.5599 11.8912 20.5607 11.8984 20.5639 11.9046C20.5672 11.9108 20.5728 11.9154 20.5794 11.9176Z" fill="#E6E6E6" fill-opacity="0.8"/>
<path d="M19.6137 12.3404C19.6186 12.342 19.6239 12.3421 19.6288 12.3408C19.6338 12.3394 19.6382 12.3366 19.6415 12.3327C19.6449 12.3288 19.647 12.3239 19.6476 12.3188C19.6482 12.3137 19.6472 12.3086 19.6449 12.304C19.6425 12.2994 19.6389 12.2957 19.6343 12.2932C19.6298 12.2907 19.6247 12.2897 19.6196 12.2901C19.6145 12.2906 19.6096 12.2926 19.6056 12.2958C19.6016 12.299 19.5987 12.3034 19.5972 12.3083C19.5952 12.3148 19.5959 12.3217 19.5989 12.3277C19.602 12.3337 19.6073 12.3382 19.6137 12.3404Z" fill="#E6E6E6" fill-opacity="0.8"/>
<path d="M18.6483 12.7642C18.6515 12.7653 18.655 12.7658 18.6584 12.7656C18.6619 12.7654 18.6652 12.7644 18.6683 12.7629C18.6714 12.7614 18.6741 12.7592 18.6764 12.7566C18.6786 12.754 18.6803 12.751 18.6814 12.7477C18.6834 12.7411 18.6828 12.734 18.6797 12.7278C18.6766 12.7217 18.6713 12.7169 18.6648 12.7146C18.6615 12.7135 18.658 12.7131 18.6545 12.7133C18.651 12.7136 18.6476 12.7146 18.6445 12.7163C18.6414 12.7179 18.6387 12.7202 18.6365 12.7229C18.6343 12.7256 18.6327 12.7288 18.6317 12.7322C18.6298 12.7386 18.6304 12.7456 18.6335 12.7515C18.6366 12.7575 18.6419 12.7621 18.6483 12.7642Z" fill="#E6E6E6" fill-opacity="0.8"/>
<path d="M15.9873 11.6333C15.9873 11.6333 17.143 11.5475 17.2878 12.7042C17.4325 13.861 16.3874 13.8579 16.3874 13.8579L15.9873 11.6333Z" fill="#ADBBC9"/>
<path d="M22.4996 11.965C23.0239 11.6877 23.2241 11.0377 22.9467 10.5134C22.6693 9.98904 22.0194 9.78884 21.4951 10.0662C20.9707 10.3436 20.7705 10.9936 21.0479 11.5179C21.3253 12.0422 21.9752 12.2424 22.4996 11.965Z" fill="#ADBBC9"/>
<path d="M23.1699 9.88621L23.0934 5.37592L22.2881 5.19295L20.8232 10.1457L22.6933 10.3276L23.1699 9.88621Z" fill="#E6E6E6" fill-opacity="0.8"/>
<g opacity="0.3">
<path opacity="0.3" d="M22.126 5.74291L22.7194 6.32285L22.6863 10.3504L23.1701 9.88621L23.0936 5.37592L22.2883 5.19295L22.126 5.74291Z" fill="#ADBBC9"/>
</g>
<path d="M22.1259 5.74292C22.1259 5.74292 22.1425 5.75429 22.1714 5.7791L22.2934 5.89075L22.7338 6.30425H22.74V6.31355C22.74 6.74153 22.74 7.29976 22.7338 7.91278C22.7276 8.58369 22.7193 9.19051 22.711 9.62985L22.6986 10.1467C22.6986 10.2026 22.6935 10.2501 22.6924 10.2884C22.693 10.3048 22.6909 10.3212 22.6862 10.3369C22.6823 10.3211 22.6806 10.3047 22.6811 10.2884C22.6811 10.2491 22.6811 10.2026 22.6811 10.1467C22.6811 10.0144 22.6811 9.83661 22.6811 9.62985C22.6811 9.19051 22.6811 8.58266 22.6873 7.91175C22.6955 7.29976 22.7028 6.7405 22.7079 6.31355L22.7141 6.32803L22.2862 5.89798L22.1714 5.77807C22.1373 5.75946 22.1239 5.74395 22.1259 5.74292Z" fill="#E6E6E6" fill-opacity="0.8"/>
<path d="M22.8868 7.68018C22.8844 7.67768 22.8815 7.67569 22.8783 7.67433C22.8751 7.67297 22.8716 7.67227 22.8682 7.67227C22.8647 7.67227 22.8612 7.67297 22.858 7.67433C22.8549 7.67569 22.852 7.67768 22.8496 7.68018C22.8448 7.68501 22.8422 7.69151 22.8422 7.69827C22.8422 7.70504 22.8448 7.71153 22.8496 7.71636C22.8519 7.71883 22.8547 7.72081 22.8578 7.72215C22.8609 7.7235 22.8643 7.72419 22.8676 7.72419C22.871 7.72419 22.8744 7.7235 22.8775 7.72215C22.8806 7.72081 22.8834 7.71883 22.8857 7.71636C22.8906 7.71167 22.8934 7.70525 22.8936 7.69848C22.8938 7.69172 22.8914 7.68515 22.8868 7.68018Z" fill="#E6E6E6" fill-opacity="0.8"/>
<path d="M22.8734 6.6547C22.8764 6.65291 22.8796 6.65176 22.8831 6.65131C22.8865 6.65087 22.89 6.65114 22.8933 6.65212C22.8966 6.65309 22.8996 6.65474 22.9023 6.65696C22.9049 6.65919 22.907 6.66194 22.9086 6.66503C22.9118 6.67107 22.9126 6.67816 22.9107 6.68475C22.9087 6.69134 22.9042 6.69689 22.8982 6.70018C22.8922 6.70347 22.8851 6.70423 22.8785 6.70229C22.8719 6.70035 22.8664 6.69588 22.8631 6.68984C22.86 6.68376 22.8594 6.67676 22.8613 6.67024C22.8632 6.66371 22.8676 6.65816 22.8734 6.6547Z" fill="#E6E6E6" fill-opacity="0.8"/>
<path d="M22.8949 8.60746C22.8925 8.60496 22.8896 8.60297 22.8864 8.60161C22.8833 8.60025 22.8798 8.59955 22.8763 8.59955C22.8729 8.59955 22.8694 8.60025 22.8662 8.60161C22.863 8.60297 22.8601 8.60496 22.8577 8.60746C22.853 8.61229 22.8503 8.61878 22.8503 8.62555C22.8503 8.63231 22.853 8.63881 22.8577 8.64364C22.8627 8.64844 22.8694 8.65112 22.8763 8.65112C22.8833 8.65112 22.8899 8.64844 22.8949 8.64364C22.8997 8.63881 22.9023 8.63231 22.9023 8.62555C22.9023 8.61878 22.8997 8.61229 22.8949 8.60746Z" fill="#E6E6E6" fill-opacity="0.8"/>
<path d="M8.92981 19.8444L9.25648 19.9044L9.5356 20.199L9.43222 20.4182L9.6183 20.9795C9.6183 20.9795 9.63174 21.1563 9.50562 21.1862L9.3795 21.2162C9.3795 21.2162 9.40638 21.3661 9.21203 21.4312L8.93602 21.5232C8.93602 21.5232 8.83781 21.669 8.74167 21.5873C8.64553 21.5057 8.57834 21.5398 8.57834 21.5398C8.57834 21.5398 8.43568 21.6215 8.36435 21.577C8.29302 21.5326 7.96118 20.81 7.96118 20.81L7.81335 20.6942L8.63519 19.7752L8.77268 19.8847L8.92981 19.8444Z" fill="#ADBBC9"/>
<path d="M8.54634 19.7115L7.69402 20.5638C7.63992 20.6179 7.63992 20.7056 7.69402 20.7597L7.69768 20.7634C7.75177 20.8175 7.83948 20.8175 7.89358 20.7634L8.7459 19.911C8.79999 19.8569 8.79999 19.7692 8.7459 19.7151L8.74224 19.7115C8.68815 19.6574 8.60044 19.6574 8.54634 19.7115Z" fill="#ADBBC9"/>
<path d="M8.76035 19.9023C8.63332 20.0644 8.49293 20.2155 8.34065 20.3541C8.20033 20.505 8.04709 20.6433 7.88269 20.7676C8.00941 20.6053 8.14983 20.4541 8.3024 20.3158C8.44249 20.1647 8.59574 20.0263 8.76035 19.9023Z" fill="#ADBBC9"/>
<path d="M23.2526 5.34699L23.3818 4.53239L23.6289 3.73639C23.6289 3.73639 23.6909 3.52964 23.5607 3.52964C23.4304 3.52964 23.1224 4.14989 23.1224 4.14989C23.1224 4.14989 23.3539 3.42626 23.3291 3.27637C23.3043 3.12647 23.2319 3.12854 23.1399 3.21744C23.0479 3.30635 22.8298 3.8377 22.8298 3.8377C22.8298 3.8377 22.9084 3.12441 22.8298 3.05204C22.7512 2.97968 22.6758 2.98278 22.6375 3.06135C22.5993 3.13991 22.5166 3.78498 22.5062 3.81599C22.4959 3.847 22.4029 3.21124 22.3046 3.19573C22.2064 3.18023 22.1186 3.16162 22.132 3.37561C22.1455 3.5896 22.102 4.21916 22.102 4.21916C22.102 4.21916 21.9211 3.74053 21.7919 3.70228C21.6389 3.65472 21.6203 3.73019 21.7009 3.9969C21.7971 4.31633 21.7774 4.39076 21.7774 4.39076C21.7774 4.39076 21.9118 4.88386 21.9656 5.25602L23.2526 5.34699Z" fill="#ADBBC9"/>
<path d="M22.0959 4.44658C22.0959 4.44658 22.1383 4.44038 22.1993 4.43934C22.285 4.43728 22.3696 4.45835 22.4443 4.50034C22.5185 4.54291 22.5802 4.60423 22.6232 4.67814C22.6562 4.735 22.6676 4.77532 22.6728 4.77428C22.6715 4.73787 22.6612 4.70234 22.6428 4.67091C22.6031 4.58854 22.5391 4.52031 22.4594 4.4754C22.3798 4.43049 22.2883 4.41105 22.1973 4.4197C22.1618 4.42042 22.1271 4.42964 22.0959 4.44658Z" fill="#ADBBC9"/>
<path d="M22.803 4.76291C22.8092 4.76911 22.8702 4.70812 22.957 4.6492C23.0131 4.61801 23.0673 4.58349 23.1193 4.54582C23.0536 4.55548 22.9916 4.58221 22.9394 4.62335C22.882 4.65645 22.8348 4.70474 22.803 4.76291Z" fill="#ADBBC9"/>
<path d="M21.9935 5.48862H23.1989C23.2754 5.48862 23.3374 5.4266 23.3374 5.35009V5.34492C23.3374 5.26842 23.2754 5.2064 23.1989 5.2064H21.9935C21.917 5.2064 21.855 5.26842 21.855 5.34492V5.35009C21.855 5.4266 21.917 5.48862 21.9935 5.48862Z" fill="#ADBBC9"/>
<path d="M21.976 5.20743C22.1816 5.18077 22.3892 5.17316 22.5962 5.18468C22.8035 5.1764 23.0111 5.18678 23.2165 5.2157C23.0107 5.241 22.8032 5.24861 22.5962 5.23844C22.389 5.24546 22.1815 5.23509 21.976 5.20743Z" fill="#ADBBC9"/>
</g>
<defs>
<filter id="filter0_d" x="0.0385582" y="0.359039" width="27.5666" height="44.7612" filterUnits="userSpaceOnUse" color-interpolation-filters="sRGB">
<feFlood flood-opacity="0" result="BackgroundImageFix"/>
<feColorMatrix in="SourceAlpha" type="matrix" values="0 0 0 0 0 0 0 0 0 0 0 0 0 0 0 0 0 0 127 0" result="hardAlpha"/>
<feOffset dy="1.32048"/>
<feGaussianBlur stdDeviation="1.98072"/>
<feComposite in2="hardAlpha" operator="out"/>
<feColorMatrix type="matrix" values="0 0 0 0 0.101961 0 0 0 0 0.101961 0 0 0 0 0.101961 0 0 0 0.07 0"/>
<feBlend mode="normal" in2="BackgroundImageFix" result="effect1_dropShadow"/>
<feBlend mode="normal" in="SourceGraphic" in2="effect1_dropShadow" result="shape"/>
</filter>
</defs>
</svg>
