<svg width="47" height="60" viewBox="0 0 47 60" fill="none" xmlns="http://www.w3.org/2000/svg">
<path d="M25.2588 53.5C25.5349 53.5 25.7588 53.2761 25.7588 53C25.7588 52.7239 25.5349 52.5 25.2588 52.5V53.5ZM27.5088 52.5C27.2326 52.5 27.0088 52.7239 27.0088 53C27.0088 53.2761 27.2326 53.5 27.5088 53.5V52.5ZM29.7588 53.5C30.0349 53.5 30.2588 53.2761 30.2588 53C30.2588 52.7239 30.0349 52.5 29.7588 52.5V53.5ZM32.0088 52.5C31.7326 52.5 31.5088 52.7239 31.5088 53C31.5088 53.2761 31.7326 53.5 32.0088 53.5V52.5ZM34.2588 53.5C34.5349 53.5 34.7588 53.2761 34.7588 53C34.7588 52.7239 34.5349 52.5 34.2588 52.5V53.5ZM36.5088 52.5C36.2326 52.5 36.0088 52.7239 36.0088 53C36.0088 53.2761 36.2326 53.5 36.5088 53.5V52.5ZM38.7588 53.5C39.0349 53.5 39.2588 53.2761 39.2588 53C39.2588 52.7239 39.0349 52.5 38.7588 52.5V53.5ZM41.0088 52.5C40.7326 52.5 40.5088 52.7239 40.5088 53C40.5088 53.2761 40.7326 53.5 41.0088 53.5V52.5ZM43.8565 53.1583C44.1115 53.0526 44.2326 52.76 44.1268 52.505C44.021 52.2499 43.7285 52.1288 43.4734 52.2346L43.8565 53.1583ZM45.3684 50.3396C45.2626 50.5947 45.3837 50.8872 45.6387 50.993C45.8938 51.0988 46.1864 50.9778 46.2921 50.7227L45.3684 50.3396ZM46.6338 47.75C46.6338 47.4739 46.4099 47.25 46.1338 47.25C45.8576 47.25 45.6338 47.4739 45.6338 47.75H46.6338ZM45.6338 45.25C45.6338 45.5261 45.8576 45.75 46.1338 45.75C46.4099 45.75 46.6338 45.5261 46.6338 45.25H45.6338ZM46.6338 42.75C46.6338 42.4739 46.4099 42.25 46.1338 42.25C45.8576 42.25 45.6338 42.4739 45.6338 42.75H46.6338ZM45.6338 40.25C45.6338 40.5261 45.8576 40.75 46.1338 40.75C46.4099 40.75 46.6338 40.5261 46.6338 40.25H45.6338ZM46.6338 37.75C46.6338 37.4739 46.4099 37.25 46.1338 37.25C45.8576 37.25 45.6338 37.4739 45.6338 37.75H46.6338ZM45.6338 35.25C45.6338 35.5261 45.8576 35.75 46.1338 35.75C46.4099 35.75 46.6338 35.5261 46.6338 35.25H45.6338ZM46.6338 32.75C46.6338 32.4739 46.4099 32.25 46.1338 32.25C45.8576 32.25 45.6338 32.4739 45.6338 32.75H46.6338ZM45.6338 30.25C45.6338 30.5261 45.8576 30.75 46.1338 30.75C46.4099 30.75 46.6338 30.5261 46.6338 30.25H45.6338ZM46.6338 27.75C46.6338 27.4739 46.4099 27.25 46.1338 27.25C45.8576 27.25 45.6338 27.4739 45.6338 27.75H46.6338ZM45.6338 25.25C45.6338 25.5261 45.8576 25.75 46.1338 25.75C46.4099 25.75 46.6338 25.5261 46.6338 25.25H45.6338ZM46.6338 22.75C46.6338 22.4739 46.4099 22.25 46.1338 22.25C45.8576 22.25 45.6338 22.4739 45.6338 22.75H46.6338ZM45.6338 20.25C45.6338 20.5261 45.8576 20.75 46.1338 20.75C46.4099 20.75 46.6338 20.5261 46.6338 20.25H45.6338ZM46.6338 17.75C46.6338 17.4739 46.4099 17.25 46.1338 17.25C45.8576 17.25 45.6338 17.4739 45.6338 17.75H46.6338ZM45.6338 15.25C45.6338 15.5261 45.8576 15.75 46.1338 15.75C46.4099 15.75 46.6338 15.5261 46.6338 15.25H45.6338ZM46.6338 12.75C46.6338 12.4739 46.4099 12.25 46.1338 12.25C45.8576 12.25 45.6338 12.4739 45.6338 12.75H46.6338ZM45.6338 10.25C45.6338 10.5261 45.8576 10.75 46.1338 10.75C46.4099 10.75 46.6338 10.5261 46.6338 10.25H45.6338ZM46.2921 7.27732C46.1864 7.02224 45.8938 6.90121 45.6387 7.00698C45.3837 7.11276 45.2626 7.40529 45.3684 7.66037L46.2921 7.27732ZM43.4734 5.76538C43.7285 5.87116 44.021 5.75013 44.1268 5.49505C44.2326 5.23997 44.1115 4.94744 43.8565 4.84166L43.4734 5.76538ZM41.1124 4.5C40.8362 4.5 40.6124 4.72386 40.6124 5C40.6124 5.27614 40.8362 5.5 41.1124 5.5V4.5ZM39.0695 5.5C39.3456 5.5 39.5695 5.27614 39.5695 5C39.5695 4.72386 39.3456 4.5 39.0695 4.5V5.5ZM37.0266 4.5C36.7505 4.5 36.5266 4.72386 36.5266 5C36.5266 5.27614 36.7505 5.5 37.0266 5.5V4.5ZM34.9838 5.5C35.2599 5.5 35.4838 5.27614 35.4838 5C35.4838 4.72386 35.2599 4.5 34.9838 4.5V5.5ZM24.1338 53.5H25.2588V52.5H24.1338V53.5ZM27.5088 53.5H29.7588V52.5H27.5088V53.5ZM32.0088 53.5H34.2588V52.5H32.0088V53.5ZM36.5088 53.5H38.7588V52.5H36.5088V53.5ZM41.0088 53.5H42.1338V52.5H41.0088V53.5ZM42.1338 53.5C42.743 53.5 43.3252 53.3787 43.8565 53.1583L43.4734 52.2346C43.0614 52.4055 42.6093 52.5 42.1338 52.5V53.5ZM46.2921 50.7227C46.5124 50.1914 46.6338 49.6092 46.6338 49H45.6338C45.6338 49.4755 45.5392 49.9276 45.3684 50.3396L46.2921 50.7227ZM46.6338 49V47.75H45.6338V49H46.6338ZM46.6338 45.25V42.75H45.6338V45.25H46.6338ZM46.6338 40.25V37.75H45.6338V40.25H46.6338ZM46.6338 35.25V32.75H45.6338V35.25H46.6338ZM46.6338 30.25V27.75H45.6338V30.25H46.6338ZM46.6338 25.25V22.75H45.6338V25.25H46.6338ZM46.6338 20.25V17.75H45.6338V20.25H46.6338ZM46.6338 15.25V12.75H45.6338V15.25H46.6338ZM46.6338 10.25V9H45.6338V10.25H46.6338ZM46.6338 9C46.6338 8.39076 46.5124 7.8086 46.2921 7.27732L45.3684 7.66037C45.5392 8.07236 45.6338 8.52451 45.6338 9H46.6338ZM43.8565 4.84166C43.3252 4.62135 42.743 4.5 42.1338 4.5V5.5C42.6093 5.5 43.0614 5.59454 43.4734 5.76538L43.8565 4.84166ZM42.1338 4.5H41.1124V5.5H42.1338V4.5ZM39.0695 4.5H37.0266V5.5H39.0695V4.5ZM34.9838 4.5H33.9624V5.5H34.9838V4.5Z" fill="#DDDDDD"/>
<g filter="url(#filter0_d)">
<path d="M14.2008 24.8891C14.2008 24.8891 14.6801 28.8601 17.4009 28.9819C20.5502 29.1189 20.7022 24.8891 20.7022 24.8891H14.2008Z" fill="#ADBBC9"/>
<path d="M14.5883 26.4378C14.5883 26.4378 13.1697 26.8034 13.6229 28.0043L16.1 30.065C16.3507 29.9263 16.5663 29.732 16.7303 29.497C16.8943 29.262 17.0024 28.9926 17.0462 28.7094L14.6554 26.5651" fill="#ADBBC9"/>
<path d="M14.2008 24.8891C14.2008 24.8891 17.4638 28.0138 20.7022 24.8891H14.2008Z" fill="#ADBBC9"/>
<path d="M17.995 14.5003C17.995 14.507 17.993 14.5137 17.9892 14.5193C17.9854 14.5249 17.9801 14.5293 17.9738 14.5319C17.9676 14.5345 17.9607 14.5352 17.9541 14.5338C17.9474 14.5325 17.9413 14.5293 17.9365 14.5245C17.9318 14.5197 17.9285 14.5136 17.9272 14.5069C17.9259 14.5003 17.9265 14.4934 17.9291 14.4872C17.9317 14.4809 17.9361 14.4756 17.9417 14.4718C17.9474 14.468 17.954 14.466 17.9607 14.466C17.9698 14.466 17.9785 14.4696 17.985 14.4761C17.9914 14.4825 17.995 14.4912 17.995 14.5003Z" fill="#E6E6E6" fill-opacity="0.8"/>
<path d="M19.0686 11.5083H16.1533V14.2031H19.0686V11.5083Z" fill="#ADBBC9"/>
<path d="M18.1866 12.968C18.1866 12.968 19.6805 12.9338 19.8914 11.4727C19.9941 10.7662 20.0845 9.29692 20.1516 7.96459C20.2255 6.5323 19.2876 5.07263 17.6239 5.07948C16.0889 4.9672 15.1372 6.20915 15.0674 7.7455C15.0674 7.7455 15.181 10.8511 15.4385 11.5617C15.6959 12.2724 16.4997 13.068 17.832 12.9735" fill="#E6E6E6" fill-opacity="0.8"/>
<path d="M19.1192 8.09604H16.1027C15.7367 8.09604 15.4399 8.39276 15.4399 8.75878V8.7848C15.4399 9.15082 15.7367 9.44754 16.1027 9.44754H19.1192C19.4853 9.44754 19.782 9.15082 19.782 8.7848V8.75878C19.782 8.39276 19.4853 8.09604 19.1192 8.09604Z" fill="#ADBBC9"/>
<path d="M19.0672 8.76291C19.0672 8.81922 19.0451 8.87328 19.0057 8.91349C18.9663 8.95369 18.9126 8.97681 18.8563 8.97789C18.829 8.97936 18.8016 8.97531 18.7758 8.96598C18.7501 8.95665 18.7265 8.94222 18.7064 8.92356C18.6863 8.9049 18.6702 8.8824 18.6591 8.85738C18.6479 8.83237 18.6419 8.80536 18.6414 8.77797C18.6424 8.72167 18.6656 8.66804 18.7058 8.6286C18.746 8.58917 18.8 8.56709 18.8563 8.5671C18.9101 8.5656 18.9624 8.58528 19.0018 8.6219C19.0412 8.65852 19.0647 8.70915 19.0672 8.76291Z" fill="#E6E6E6" fill-opacity="0.8"/>
<path d="M15.0758 9.03265C15.0758 9.51738 14.9854 9.91174 14.8745 9.91174C14.7636 9.91174 14.6732 9.51738 14.6732 9.03265C14.6732 8.54792 14.7636 8.15219 14.8745 8.15219C14.9854 8.15219 15.0758 8.54655 15.0758 9.03265Z" fill="#ADBBC9"/>
<path d="M15.2632 9.03266C15.2632 9.51739 15.1646 9.91175 15.0427 9.91175H14.8853C14.7949 9.8022 14.8277 9.42975 14.8277 9.03266C14.8277 8.63556 14.7785 8.26722 14.8688 8.15631C14.8894 8.13029 15.0249 8.15631 15.0482 8.15631C15.1591 8.15631 15.2632 8.54656 15.2632 9.03266Z" fill="#ADBBC9"/>
<path d="M20.0968 8.97787C20.0968 8.49177 20.1872 8.09879 20.2981 8.09879C20.409 8.09879 20.4994 8.49177 20.4994 8.97787C20.4994 9.46397 20.409 9.85833 20.2981 9.85833C20.1872 9.85833 20.0968 9.46397 20.0968 8.97787Z" fill="#ADBBC9"/>
<path d="M19.9094 8.97787C19.9094 8.49177 20.008 8.09879 20.1299 8.09879H20.2915C20.3818 8.20696 20.349 8.58078 20.349 8.97787C20.349 9.37497 20.3983 9.74331 20.3093 9.85422C20.2887 9.88024 20.1518 9.85422 20.1299 9.85422C20.008 9.85833 19.9094 9.46397 19.9094 8.97787Z" fill="#ADBBC9"/>
<g opacity="0.3">
<path opacity="0.3" d="M20.0463 9.79944C20.0463 9.87338 19.9737 10.8031 19.9094 11.3495C19.8519 11.8328 19.7054 12.2286 19.3302 12.5394C19.0299 12.8017 18.6528 12.9598 18.2553 12.9899C17.7719 13.0324 17.2844 13.046 16.8257 12.8913C16.367 12.7366 15.8891 12.4244 15.6577 11.9999C15.6577 11.9999 17.7117 13.0953 19.096 12.1683C19.096 12.1683 19.6027 11.9287 19.7807 10.8757C19.9518 9.86653 20.0463 9.79944 20.0463 9.79944Z" fill="#ADBBC9"/>
</g>
<path d="M19.0891 9.63925C19.0891 9.63925 19.1275 9.63925 19.2 9.62282C19.305 9.60666 19.4056 9.5694 19.4958 9.51327C19.6397 9.42663 19.7531 9.29744 19.8203 9.14356C19.8614 9.04835 19.8833 8.94599 19.8847 8.84232C19.8906 8.72608 19.8719 8.60991 19.8299 8.50136C19.7817 8.37771 19.7033 8.26808 19.6019 8.18246C19.5005 8.09684 19.3793 8.03795 19.2493 8.01115C19.1002 7.99487 18.9501 7.98983 18.8002 7.99609H18.3168H16.1602C15.9803 7.99594 15.8058 8.05761 15.666 8.17079C15.5261 8.28397 15.4294 8.44177 15.392 8.61775C15.3583 8.78545 15.373 8.95928 15.4345 9.11892C15.4973 9.2662 15.603 9.39118 15.7378 9.47763C15.8726 9.56407 16.0303 9.60798 16.1903 9.60365H16.6463H17.4679L18.6551 9.61597H18.9769C19.0146 9.61218 19.0527 9.61218 19.0905 9.61597C19.0527 9.61887 19.0147 9.61887 18.9769 9.61597L18.6551 9.62282L17.4679 9.63377H16.6463H16.1903C16.0168 9.6396 15.8455 9.59292 15.6989 9.49984C15.5524 9.40676 15.4373 9.27161 15.3688 9.11207C15.2996 8.93809 15.283 8.74769 15.3208 8.56435C15.3607 8.37163 15.4656 8.19845 15.6179 8.07381C15.7702 7.94917 15.9607 7.88064 16.1575 7.8797H18.3141H18.7975C18.9516 7.87301 19.1059 7.87942 19.2589 7.89887C19.3974 7.92896 19.5262 7.99303 19.6338 8.08529C19.7414 8.17756 19.8243 8.29513 19.8751 8.42742C19.9566 8.64988 19.9488 8.89527 19.8532 9.11207C19.7808 9.2712 19.66 9.40345 19.5081 9.48999C19.4134 9.54521 19.3078 9.57931 19.1987 9.58995C19.1641 9.61043 19.1274 9.62697 19.0891 9.63925Z" fill="#E6E6E6" fill-opacity="0.8"/>
<path d="M17.6239 5.0795C17.6458 5.21899 17.6558 5.36007 17.654 5.50124C17.6636 5.76141 17.6732 6.1229 17.6773 6.52137C17.6814 6.91983 17.6842 7.28133 17.6773 7.54286C17.6828 7.68373 17.6764 7.82481 17.6582 7.96461C17.6363 7.82511 17.6258 7.68407 17.6267 7.54286C17.6171 7.28133 17.6089 6.9212 17.6034 6.52274C17.5979 6.12427 17.6034 5.76415 17.6034 5.50261C17.5987 5.36125 17.6056 5.21974 17.6239 5.0795Z" fill="#E6E6E6" fill-opacity="0.8"/>
<path d="M17.6868 13.0118C17.6677 13.0118 17.6512 12.2683 17.6512 11.3509C17.6512 10.4334 17.6677 9.69128 17.6868 9.69128C17.706 9.69128 17.7224 10.4334 17.7224 11.3509C17.7224 12.2683 17.7074 13.0118 17.6868 13.0118Z" fill="#E6E6E6" fill-opacity="0.8"/>
<path d="M17.8827 6.10232C17.8827 6.10909 17.8807 6.11571 17.8769 6.12134C17.8731 6.12697 17.8678 6.13135 17.8615 6.13394C17.8553 6.13653 17.8484 6.13721 17.8418 6.13589C17.8351 6.13457 17.829 6.13131 17.8242 6.12652C17.8194 6.12174 17.8162 6.11564 17.8149 6.109C17.8135 6.10235 17.8142 6.09547 17.8168 6.08922C17.8194 6.08296 17.8238 6.07762 17.8294 6.07385C17.8351 6.07009 17.8417 6.06808 17.8484 6.06808C17.8575 6.06808 17.8662 6.07169 17.8726 6.07811C17.8791 6.08453 17.8827 6.09324 17.8827 6.10232Z" fill="#E6E6E6" fill-opacity="0.8"/>
<path d="M18.0347 11.1975C18.0347 11.2043 18.0326 11.2109 18.0289 11.2165C18.0251 11.2221 18.0198 11.2265 18.0135 11.2291C18.0073 11.2317 18.0004 11.2324 17.9937 11.2311C17.9871 11.2298 17.981 11.2265 17.9762 11.2217C17.9714 11.2169 17.9682 11.2108 17.9668 11.2042C17.9655 11.1975 17.9662 11.1907 17.9688 11.1844C17.9714 11.1781 17.9758 11.1728 17.9814 11.169C17.987 11.1653 17.9936 11.1633 18.0004 11.1633C18.0095 11.1633 18.0182 11.1669 18.0246 11.1733C18.031 11.1797 18.0347 11.1884 18.0347 11.1975Z" fill="#E6E6E6" fill-opacity="0.8"/>
<path d="M17.9171 6.77056C17.9171 6.77733 17.9151 6.78395 17.9113 6.78958C17.9076 6.79521 17.9022 6.7996 17.896 6.80219C17.8897 6.80478 17.8828 6.80546 17.8762 6.80414C17.8695 6.80282 17.8634 6.79955 17.8587 6.79477C17.8539 6.78998 17.8506 6.78388 17.8493 6.77724C17.848 6.7706 17.8486 6.76372 17.8512 6.75746C17.8538 6.75121 17.8582 6.74586 17.8638 6.7421C17.8695 6.73834 17.8761 6.73633 17.8829 6.73633C17.8919 6.73633 17.9007 6.73994 17.9071 6.74636C17.9135 6.75277 17.9171 6.76148 17.9171 6.77056Z" fill="#E6E6E6" fill-opacity="0.8"/>
<path d="M18.0347 10.1253C18.0347 10.1321 18.0326 10.1387 18.0289 10.1443C18.0251 10.15 18.0198 10.1544 18.0135 10.157C18.0073 10.1595 18.0004 10.1602 17.9937 10.1589C17.9871 10.1576 17.981 10.1543 17.9762 10.1495C17.9714 10.1447 17.9682 10.1386 17.9668 10.132C17.9655 10.1254 17.9662 10.1185 17.9688 10.1122C17.9714 10.106 17.9758 10.1006 17.9814 10.0969C17.987 10.0931 17.9936 10.0911 18.0004 10.0911C18.0095 10.0911 18.0182 10.0947 18.0246 10.1011C18.031 10.1075 18.0347 10.1162 18.0347 10.1253Z" fill="#E6E6E6" fill-opacity="0.8"/>
<path d="M20.3066 9.84601C20.2533 9.77845 20.2146 9.70059 20.1929 9.61734C20.1254 9.42114 20.0893 9.21548 20.0861 9.008C20.0825 8.80006 20.1125 8.59289 20.1751 8.39456C20.1959 8.31142 20.2321 8.23292 20.2819 8.16315C20.2071 8.43839 20.1653 8.72153 20.1573 9.00663C20.1729 9.29143 20.2231 9.57328 20.3066 9.84601Z" fill="#ADBBC9"/>
<path d="M14.8321 9.98427C14.8211 9.98427 14.8814 9.88431 14.9362 9.71726C15.0038 9.49818 15.038 9.27012 15.0375 9.04082C15.0375 8.90389 15.0375 8.77655 15.0375 8.65879C15.0411 8.55685 15.0329 8.45483 15.0128 8.35481C15.0053 8.32304 14.9913 8.29315 14.9718 8.26701C14.9522 8.24086 14.9275 8.21901 14.8992 8.20281C14.8581 8.1809 14.8293 8.18364 14.8293 8.1768C14.8293 8.16995 14.8581 8.16037 14.9101 8.1768C14.9458 8.19029 14.9779 8.21174 15.004 8.2395C15.0301 8.26726 15.0495 8.30061 15.0608 8.337C15.0893 8.44048 15.1035 8.54735 15.1032 8.65468C15.1032 8.77244 15.1142 8.90389 15.1032 9.04082C15.1042 9.27744 15.062 9.51226 14.9786 9.73369C14.9493 9.82721 14.8992 9.91287 14.8321 9.98427Z" fill="#ADBBC9"/>
<path d="M16.6656 8.92036C16.6533 8.92036 16.6656 8.86558 16.6341 8.79438C16.6163 8.74959 16.5854 8.71117 16.5455 8.68411C16.5056 8.65705 16.4584 8.64259 16.4102 8.64259C16.362 8.64259 16.3149 8.65705 16.275 8.68411C16.2351 8.71117 16.2042 8.74959 16.1863 8.79438C16.1548 8.86558 16.1631 8.91899 16.1521 8.92036C16.1412 8.92173 16.1151 8.86832 16.1384 8.78343C16.1531 8.7303 16.1831 8.68268 16.2247 8.6465C16.2609 8.61479 16.3047 8.59293 16.3518 8.58303C16.3989 8.57313 16.4478 8.57551 16.4937 8.58995C16.5397 8.60439 16.5811 8.6304 16.6141 8.66548C16.6471 8.70056 16.6705 8.74354 16.682 8.79027C16.708 8.86969 16.6779 8.92446 16.6656 8.92036Z" fill="#E6E6E6" fill-opacity="0.8"/>
<path d="M19.0618 13.7307C18.5807 13.7668 18.0981 13.7787 17.6158 13.7663C17.1335 13.7787 16.6509 13.7668 16.1698 13.7307C16.1698 13.7115 16.8175 13.6951 17.6158 13.6951C18.4141 13.6951 19.0618 13.7115 19.0618 13.7307Z" fill="#ADBBC9"/>
<path d="M19.0618 13.3801C18.5807 13.4162 18.0981 13.4281 17.6158 13.4157C17.1335 13.4281 16.6509 13.4162 16.1698 13.3801C16.1698 13.361 16.8175 13.3445 17.6158 13.3445C18.4141 13.3445 19.0618 13.3596 19.0618 13.3801Z" fill="#ADBBC9"/>
<path d="M17.3939 14.0634C17.3939 14.0634 13.234 14.2387 12.5767 15.8517C11.9195 17.4648 12.2125 23.4281 14.4842 23.9114C15.9165 24.2168 18.3086 24.1374 19.8765 24.036C20.3402 24.0059 20.7826 23.83 21.1404 23.5334C21.4982 23.2369 21.7532 22.8348 21.8688 22.3847C22.3494 20.5197 22.9341 17.3936 22.0687 15.6094C21.1335 14.6016 19.5588 14.0977 17.3939 14.0634Z" fill="#E6E6E6" fill-opacity="0.8"/>
<path d="M18.0635 21.511C18.0635 21.5178 18.0615 21.5244 18.0577 21.5301C18.0539 21.5357 18.0486 21.5401 18.0423 21.5427C18.0361 21.5453 18.0292 21.5459 18.0225 21.5446C18.0159 21.5433 18.0098 21.54 18.005 21.5352C18.0002 21.5305 17.997 21.5244 17.9957 21.5177C17.9943 21.5111 17.995 21.5042 17.9976 21.4979C18.0002 21.4917 18.0046 21.4863 18.0102 21.4826C18.0158 21.4788 18.0225 21.4768 18.0292 21.4768C18.0383 21.4768 18.047 21.4804 18.0534 21.4868C18.0599 21.4933 18.0635 21.502 18.0635 21.511Z" fill="#E6E6E6" fill-opacity="0.8"/>
<path d="M18.766 20.9606C18.766 20.9674 18.764 20.974 18.7602 20.9796C18.7564 20.9852 18.7511 20.9896 18.7448 20.9922C18.7386 20.9948 18.7317 20.9955 18.7251 20.9942C18.7184 20.9928 18.7123 20.9896 18.7075 20.9848C18.7027 20.98 18.6995 20.9739 18.6982 20.9673C18.6968 20.9606 18.6975 20.9537 18.7001 20.9475C18.7027 20.9412 18.7071 20.9359 18.7127 20.9321C18.7184 20.9284 18.725 20.9264 18.7317 20.9264C18.7408 20.9264 18.7495 20.93 18.7559 20.9364C18.7624 20.9428 18.766 20.9515 18.766 20.9606Z" fill="#E6E6E6" fill-opacity="0.8"/>
<path d="M20.1626 20.8907C20.1626 20.8998 20.159 20.9085 20.1526 20.9149C20.1461 20.9214 20.1374 20.925 20.1283 20.925C20.1193 20.925 20.1106 20.9214 20.1041 20.9149C20.0977 20.9085 20.0941 20.8998 20.0941 20.8907C20.0941 20.8817 20.0977 20.873 20.1041 20.8665C20.1106 20.8601 20.1193 20.8565 20.1283 20.8565C20.1374 20.8565 20.1461 20.8601 20.1526 20.8665C20.159 20.873 20.1626 20.8817 20.1626 20.8907Z" fill="#E6E6E6" fill-opacity="0.8"/>
<path d="M21.1842 20.343C21.1842 20.3521 21.1806 20.3608 21.1742 20.3672C21.1677 20.3737 21.159 20.3773 21.15 20.3773C21.1409 20.3773 21.1322 20.3737 21.1257 20.3672C21.1193 20.3608 21.1157 20.3521 21.1157 20.343C21.1157 20.334 21.1193 20.3253 21.1257 20.3188C21.1322 20.3124 21.1409 20.3088 21.15 20.3088C21.159 20.3088 21.1677 20.3124 21.1742 20.3188C21.1806 20.3253 21.1842 20.334 21.1842 20.343Z" fill="#E6E6E6" fill-opacity="0.8"/>
<path d="M21.8194 19.442C21.8194 19.4488 21.8174 19.4554 21.8137 19.4611C21.8099 19.4667 21.8046 19.4711 21.7983 19.4737C21.7921 19.4763 21.7852 19.4769 21.7785 19.4756C21.7719 19.4743 21.7658 19.471 21.761 19.4662C21.7562 19.4615 21.753 19.4554 21.7516 19.4487C21.7503 19.4421 21.751 19.4352 21.7536 19.4289C21.7562 19.4227 21.7606 19.4173 21.7662 19.4136C21.7718 19.4098 21.7784 19.4078 21.7852 19.4078C21.7943 19.4078 21.803 19.4114 21.8094 19.4178C21.8158 19.4243 21.8194 19.433 21.8194 19.442Z" fill="#E6E6E6" fill-opacity="0.8"/>
<path d="M22.0509 18.4849C22.0509 18.4917 22.0489 18.4983 22.0451 18.5039C22.0414 18.5096 22.036 18.514 22.0298 18.5165C22.0235 18.5191 22.0166 18.5198 22.01 18.5185C22.0033 18.5172 21.9972 18.5139 21.9924 18.5091C21.9877 18.5043 21.9844 18.4982 21.9831 18.4916C21.9818 18.485 21.9824 18.4781 21.985 18.4718C21.9876 18.4656 21.992 18.4602 21.9976 18.4565C22.0033 18.4527 22.0099 18.4507 22.0167 18.4507C22.0257 18.4507 22.0344 18.4543 22.0409 18.4607C22.0473 18.4671 22.0509 18.4758 22.0509 18.4849Z" fill="#E6E6E6" fill-opacity="0.8"/>
<path d="M21.9469 17.5579C21.9469 17.5647 21.9449 17.5713 21.9411 17.5769C21.9374 17.5825 21.932 17.5869 21.9258 17.5895C21.9195 17.5921 21.9126 17.5928 21.906 17.5915C21.8993 17.5901 21.8932 17.5869 21.8884 17.5821C21.8837 17.5773 21.8804 17.5712 21.8791 17.5646C21.8778 17.5579 21.8784 17.551 21.881 17.5448C21.8836 17.5385 21.888 17.5332 21.8936 17.5294C21.8993 17.5257 21.9059 17.5237 21.9127 17.5237C21.9217 17.5237 21.9304 17.5273 21.9369 17.5337C21.9433 17.5401 21.9469 17.5488 21.9469 17.5579Z" fill="#E6E6E6" fill-opacity="0.8"/>
<path d="M21.5196 16.6459C21.5196 16.6527 21.5176 16.6593 21.5139 16.6649C21.5101 16.6706 21.5048 16.675 21.4985 16.6776C21.4923 16.6801 21.4854 16.6808 21.4787 16.6795C21.4721 16.6782 21.466 16.6749 21.4612 16.6701C21.4564 16.6653 21.4532 16.6592 21.4518 16.6526C21.4505 16.646 21.4512 16.6391 21.4538 16.6328C21.4564 16.6266 21.4608 16.6212 21.4664 16.6175C21.472 16.6137 21.4786 16.6117 21.4854 16.6117C21.4945 16.6117 21.5032 16.6153 21.5096 16.6217C21.516 16.6281 21.5196 16.6368 21.5196 16.6459Z" fill="#E6E6E6" fill-opacity="0.8"/>
<path d="M20.9103 16.0599C20.9103 16.0666 20.9083 16.0733 20.9045 16.0789C20.9007 16.0845 20.8954 16.0889 20.8891 16.0915C20.8829 16.0941 20.876 16.0948 20.8694 16.0934C20.8627 16.0921 20.8566 16.0889 20.8518 16.0841C20.847 16.0793 20.8438 16.0732 20.8425 16.0665C20.8411 16.0599 20.8418 16.053 20.8444 16.0468C20.847 16.0405 20.8514 16.0352 20.857 16.0314C20.8626 16.0276 20.8693 16.0256 20.876 16.0256C20.8851 16.0256 20.8938 16.0292 20.9002 16.0357C20.9067 16.0421 20.9103 16.0508 20.9103 16.0599Z" fill="#E6E6E6" fill-opacity="0.8"/>
<path d="M20.0312 15.6874C20.0312 15.6965 20.0276 15.7052 20.0212 15.7116C20.0148 15.7181 20.0061 15.7217 19.997 15.7217C19.9879 15.7217 19.9792 15.7181 19.9728 15.7116C19.9664 15.7052 19.9628 15.6965 19.9628 15.6874C19.9628 15.6784 19.9664 15.6696 19.9728 15.6632C19.9792 15.6568 19.9879 15.6532 19.997 15.6532C20.0061 15.6532 20.0148 15.6568 20.0212 15.6632C20.0276 15.6696 20.0312 15.6784 20.0312 15.6874Z" fill="#E6E6E6" fill-opacity="0.8"/>
<path d="M18.9233 15.6587C18.9233 15.6677 18.9197 15.6764 18.9133 15.6829C18.9069 15.6893 18.8982 15.6929 18.8891 15.6929C18.88 15.6929 18.8713 15.6893 18.8649 15.6829C18.8585 15.6764 18.8549 15.6677 18.8549 15.6587C18.8549 15.6496 18.8585 15.6409 18.8649 15.6344C18.8713 15.628 18.88 15.6244 18.8891 15.6244C18.8982 15.6244 18.9069 15.628 18.9133 15.6344C18.9197 15.6409 18.9233 15.6496 18.9233 15.6587Z" fill="#E6E6E6" fill-opacity="0.8"/>
<path d="M17.8746 15.6874C17.8746 15.6942 17.8726 15.7008 17.8688 15.7064C17.8651 15.7121 17.8597 15.7165 17.8535 15.7191C17.8472 15.7216 17.8403 15.7223 17.8337 15.721C17.8271 15.7197 17.821 15.7164 17.8162 15.7116C17.8114 15.7068 17.8081 15.7007 17.8068 15.6941C17.8055 15.6875 17.8062 15.6806 17.8088 15.6743C17.8113 15.6681 17.8157 15.6627 17.8214 15.659C17.827 15.6552 17.8336 15.6532 17.8404 15.6532C17.8495 15.6532 17.8582 15.6568 17.8646 15.6632C17.871 15.6696 17.8746 15.6784 17.8746 15.6874Z" fill="#E6E6E6" fill-opacity="0.8"/>
<path d="M16.6477 15.6244C16.6477 15.6312 16.6457 15.6378 16.6419 15.6435C16.6382 15.6491 16.6328 15.6535 16.6266 15.6561C16.6203 15.6587 16.6134 15.6593 16.6068 15.658C16.6001 15.6567 16.594 15.6534 16.5893 15.6486C16.5845 15.6439 16.5812 15.6378 16.5799 15.6311C16.5786 15.6245 16.5792 15.6176 16.5818 15.6113C16.5844 15.6051 16.5888 15.5997 16.5944 15.596C16.6001 15.5922 16.6067 15.5902 16.6135 15.5902C16.6225 15.5902 16.6312 15.5938 16.6377 15.6002C16.6441 15.6067 16.6477 15.6154 16.6477 15.6244Z" fill="#E6E6E6" fill-opacity="0.8"/>
<path d="M15.4892 15.6244C15.4892 15.6335 15.4856 15.6422 15.4792 15.6486C15.4728 15.6551 15.4641 15.6587 15.455 15.6587C15.4459 15.6587 15.4372 15.6551 15.4308 15.6486C15.4244 15.6422 15.4208 15.6335 15.4208 15.6244C15.4208 15.6154 15.4244 15.6067 15.4308 15.6002C15.4372 15.5938 15.4459 15.5902 15.455 15.5902C15.4641 15.5902 15.4728 15.5938 15.4792 15.6002C15.4856 15.6067 15.4892 15.6154 15.4892 15.6244Z" fill="#E6E6E6" fill-opacity="0.8"/>
<path d="M14.3186 15.9202C14.3186 15.9293 14.315 15.938 14.3086 15.9444C14.3021 15.9508 14.2934 15.9545 14.2844 15.9545C14.2754 15.9541 14.2669 15.9504 14.2605 15.9441C14.2542 15.9377 14.2505 15.9292 14.2501 15.9202C14.2501 15.9111 14.2537 15.9024 14.2601 15.896C14.2666 15.8896 14.2753 15.886 14.2844 15.886C14.2934 15.886 14.3021 15.8896 14.3086 15.896C14.315 15.9024 14.3186 15.9111 14.3186 15.9202Z" fill="#E6E6E6" fill-opacity="0.8"/>
<path d="M13.29 16.6733C13.29 16.6801 13.288 16.6867 13.2843 16.6924C13.2805 16.698 13.2751 16.7024 13.2689 16.705C13.2626 16.7075 13.2558 16.7082 13.2491 16.7069C13.2425 16.7056 13.2364 16.7023 13.2316 16.6975C13.2268 16.6927 13.2235 16.6867 13.2222 16.68C13.2209 16.6734 13.2216 16.6665 13.2242 16.6602C13.2268 16.654 13.2311 16.6486 13.2368 16.6449C13.2424 16.6411 13.249 16.6391 13.2558 16.6391C13.2649 16.6391 13.2736 16.6427 13.28 16.6491C13.2864 16.6555 13.29 16.6643 13.29 16.6733Z" fill="#E6E6E6" fill-opacity="0.8"/>
<path d="M12.8314 17.8564C12.8314 17.8631 12.8294 17.8698 12.8256 17.8754C12.8219 17.881 12.8165 17.8854 12.8103 17.888C12.804 17.8906 12.7971 17.8913 12.7905 17.89C12.7839 17.8886 12.7778 17.8854 12.773 17.8806C12.7682 17.8758 12.7649 17.8697 12.7636 17.8631C12.7623 17.8564 12.763 17.8495 12.7655 17.8433C12.7681 17.837 12.7725 17.8317 12.7782 17.8279C12.7838 17.8242 12.7904 17.8221 12.7972 17.8221C12.8063 17.8221 12.815 17.8258 12.8214 17.8322C12.8278 17.8386 12.8314 17.8473 12.8314 17.8564Z" fill="#E6E6E6" fill-opacity="0.8"/>
<path d="M12.9314 19.0573C12.9314 19.0664 12.9278 19.0751 12.9214 19.0815C12.9149 19.0879 12.9062 19.0915 12.8971 19.0915C12.8881 19.0915 12.8794 19.0879 12.8729 19.0815C12.8665 19.0751 12.8629 19.0664 12.8629 19.0573C12.8629 19.0482 12.8665 19.0395 12.8729 19.0331C12.8794 19.0266 12.8881 19.023 12.8971 19.023C12.9062 19.023 12.9149 19.0266 12.9214 19.0331C12.9278 19.0395 12.9314 19.0482 12.9314 19.0573Z" fill="#E6E6E6" fill-opacity="0.8"/>
<path d="M13.4914 20.0213C13.4914 20.028 13.4894 20.0347 13.4857 20.0403C13.4819 20.0459 13.4766 20.0503 13.4703 20.0529C13.4641 20.0555 13.4572 20.0562 13.4505 20.0548C13.4439 20.0535 13.4378 20.0503 13.433 20.0455C13.4282 20.0407 13.425 20.0346 13.4236 20.0279C13.4223 20.0213 13.423 20.0144 13.4256 20.0082C13.4282 20.0019 13.4326 19.9966 13.4382 19.9928C13.4438 19.989 13.4504 19.987 13.4572 19.987C13.4663 19.987 13.475 19.9906 13.4814 19.9971C13.4878 20.0035 13.4914 20.0122 13.4914 20.0213Z" fill="#E6E6E6" fill-opacity="0.8"/>
<path d="M14.4814 20.8579C14.4814 20.8647 14.4794 20.8713 14.4757 20.8769C14.4719 20.8826 14.4666 20.8869 14.4603 20.8895C14.454 20.8921 14.4472 20.8928 14.4405 20.8915C14.4339 20.8902 14.4278 20.8869 14.423 20.8821C14.4182 20.8773 14.4149 20.8712 14.4136 20.8646C14.4123 20.8579 14.413 20.8511 14.4156 20.8448C14.4182 20.8385 14.4225 20.8332 14.4282 20.8294C14.4338 20.8257 14.4404 20.8237 14.4472 20.8237C14.4563 20.8237 14.465 20.8273 14.4714 20.8337C14.4778 20.8401 14.4814 20.8488 14.4814 20.8579Z" fill="#E6E6E6" fill-opacity="0.8"/>
<path d="M15.8358 20.8907C15.8358 20.8998 15.8322 20.9085 15.8258 20.9149C15.8194 20.9214 15.8106 20.925 15.8016 20.925C15.7925 20.925 15.7838 20.9214 15.7774 20.9149C15.7709 20.9085 15.7673 20.8998 15.7673 20.8907C15.7673 20.8817 15.7709 20.873 15.7774 20.8665C15.7838 20.8601 15.7925 20.8565 15.8016 20.8565C15.8106 20.8565 15.8194 20.8601 15.8258 20.8665C15.8322 20.873 15.8358 20.8817 15.8358 20.8907Z" fill="#E6E6E6" fill-opacity="0.8"/>
<path d="M17.1351 20.9264C17.1351 20.9331 17.1331 20.9397 17.1293 20.9454C17.1256 20.951 17.1202 20.9554 17.114 20.958C17.1077 20.9606 17.1008 20.9613 17.0942 20.9599C17.0876 20.9586 17.0815 20.9553 17.0767 20.9506C17.0719 20.9458 17.0686 20.9397 17.0673 20.933C17.066 20.9264 17.0667 20.9195 17.0693 20.9133C17.0718 20.907 17.0762 20.9017 17.0819 20.8979C17.0875 20.8941 17.0941 20.8921 17.1009 20.8921C17.11 20.8921 17.1187 20.8957 17.1251 20.9021C17.1315 20.9086 17.1351 20.9173 17.1351 20.9264Z" fill="#E6E6E6" fill-opacity="0.8"/>
<path d="M18.0347 22.7393C18.0347 22.7461 18.0326 22.7527 18.0289 22.7583C18.0251 22.764 18.0198 22.7683 18.0135 22.7709C18.0073 22.7735 18.0004 22.7742 17.9937 22.7729C17.9871 22.7716 17.981 22.7683 17.9762 22.7635C17.9714 22.7587 17.9682 22.7526 17.9668 22.746C17.9655 22.7393 17.9662 22.7325 17.9688 22.7262C17.9714 22.72 17.9758 22.7146 17.9814 22.7108C17.987 22.7071 17.9936 22.7051 18.0004 22.7051C18.0095 22.7051 18.0182 22.7087 18.0246 22.7151C18.031 22.7215 18.0347 22.7302 18.0347 22.7393Z" fill="#E6E6E6" fill-opacity="0.8"/>
<path d="M17.5568 15.9613C17.5216 15.6523 17.5097 15.341 17.5212 15.0302C17.5097 14.7194 17.5216 14.4081 17.5568 14.0991C17.5921 14.4081 17.604 14.7194 17.5924 15.0302C17.6039 15.341 17.592 15.6523 17.5568 15.9613Z" fill="#E6E6E6" fill-opacity="0.8"/>
<path d="M17.5979 23.9744C17.5787 23.9744 17.5623 23.2117 17.5623 22.2697C17.5623 21.3276 17.5787 20.5635 17.5979 20.5635C17.617 20.5635 17.6348 21.3276 17.6348 22.2697C17.6348 23.2117 17.6239 23.9744 17.5979 23.9744Z" fill="#E6E6E6" fill-opacity="0.8"/>
<path d="M19.3398 20.5635C19.6267 20.5532 19.9098 20.4935 20.1764 20.3868C20.4878 20.2601 20.7663 20.0644 20.9911 19.8145C21.1323 19.6602 21.2504 19.4864 21.3417 19.2983C21.4473 19.0891 21.5172 18.8637 21.5484 18.6314C21.6309 18.0979 21.5295 17.5523 21.2609 17.0841C21.104 16.8203 20.8947 16.5914 20.6461 16.4115C20.3974 16.2316 20.1145 16.1045 19.8149 16.038C19.4986 15.964 19.1604 15.9955 18.8167 15.9887H15.5495C15.1847 15.9886 14.8254 16.0783 14.5032 16.2497C14.1811 16.4211 13.9061 16.6691 13.7024 16.9718C13.5112 17.2598 13.3885 17.5876 13.3436 17.9303C13.302 18.2603 13.3252 18.5952 13.4121 18.9162C13.4974 19.2106 13.6427 19.4842 13.8387 19.7198C14.0347 19.9555 14.2773 20.1481 14.5513 20.2855C14.8005 20.4107 15.0707 20.4887 15.3483 20.5156L15.5468 20.5251H16.126L18.4771 20.5361L19.1179 20.5429H19.2836C19.3023 20.5412 19.3211 20.5412 19.3398 20.5429H19.2836H19.1179L18.4771 20.5498L16.126 20.5607H15.5468L15.3441 20.5512C14.8848 20.5094 14.4488 20.3304 14.0927 20.0373C13.7366 19.7442 13.477 19.3507 13.3477 18.908C13.2579 18.5781 13.2338 18.2339 13.2765 17.8947C13.3216 17.5404 13.4476 17.2012 13.6448 16.9034C13.854 16.5902 14.1374 16.3335 14.4697 16.1563C14.802 15.979 15.1729 15.8866 15.5495 15.8873H19.3247L19.578 15.8997C19.6615 15.9133 19.7451 15.9229 19.8259 15.9407C20.1375 16.013 20.4307 16.1497 20.6865 16.3418C20.9424 16.534 21.1553 16.7775 21.3115 17.0567C21.5834 17.5367 21.6834 18.0951 21.595 18.6396C21.5625 18.8783 21.4898 19.1098 21.38 19.3243C21.2852 19.515 21.1629 19.6907 21.0171 19.846C20.7875 20.0985 20.5026 20.2944 20.1846 20.4183C19.9848 20.4962 19.7751 20.5455 19.5616 20.5649H19.3945L19.3398 20.5635Z" fill="#E6E6E6" fill-opacity="0.8"/>
<g opacity="0.3">
<path opacity="0.3" d="M12.7615 21.7466C14.0486 22.7941 15.5891 23.8197 17.2925 23.8539C19.0132 23.8797 20.6787 23.2468 21.9481 22.0848C21.9481 22.0848 21.7181 23.7553 20.1132 24.0018C19.089 24.162 17.3541 24.1565 16.1423 24.0963C15.4576 24.0634 14.9455 23.984 14.8195 23.9703C14.3964 23.9251 13.6392 23.7868 13.1764 22.7585C13.1052 22.6037 13.023 22.4764 12.9751 22.3655C12.7122 21.7616 12.7615 21.7466 12.7615 21.7466Z" fill="#ADBBC9"/>
</g>
<path d="M20.5201 23.9607H14.3692C14.2724 23.9607 14.194 24.0392 14.194 24.136V24.1415C14.194 24.2383 14.2724 24.3167 14.3692 24.3167H20.5201C20.6169 24.3167 20.6954 24.2383 20.6954 24.1415V24.136C20.6954 24.0392 20.6169 23.9607 20.5201 23.9607Z" fill="#ADBBC9"/>
<path d="M17.2844 28.9491C17.2335 28.9488 17.1828 28.9419 17.1337 28.9285C16.9975 28.8991 16.8634 28.8602 16.7325 28.8121C16.2983 28.6542 15.9006 28.4098 15.5636 28.0937C15.2265 27.7776 14.9571 27.3964 14.7717 26.9732C14.7164 26.8458 14.6706 26.7144 14.6348 26.5802C14.6178 26.532 14.6072 26.4818 14.6033 26.4309C14.6156 26.4309 14.6704 26.6377 14.821 26.9513C15.214 27.778 15.9045 28.4259 16.7544 28.7656C17.0762 28.8957 17.2871 28.9368 17.2844 28.9491Z" fill="#ADBBC9"/>
<path d="M20.5448 26.4419C20.5448 26.4419 21.9634 26.8075 21.5102 28.0084L19.0331 30.0733C18.7824 29.9345 18.5668 29.7402 18.4028 29.5052C18.2387 29.2703 18.1307 29.0009 18.0869 28.7177L20.4777 26.5733" fill="#ADBBC9"/>
<path d="M17.8486 28.9532C17.8486 28.9408 18.0595 28.8984 18.3827 28.7683C19.2329 28.4298 19.9236 27.7821 20.3161 26.9554C20.4667 26.6418 20.5215 26.4309 20.5338 26.435C20.5297 26.4859 20.5192 26.5361 20.5023 26.5843C20.4667 26.7185 20.4209 26.8499 20.3654 26.9773C20.18 27.4005 19.9106 27.7817 19.5735 28.0978C19.2365 28.4139 18.8388 28.6583 18.4046 28.8162C18.2739 28.8646 18.1398 28.9031 18.0034 28.9313C17.9531 28.9457 17.901 28.9531 17.8486 28.9532Z" fill="#ADBBC9"/>
<path d="M17.624 28.9847C17.5888 28.5438 17.5769 28.1014 17.5884 27.6592C17.5768 27.2166 17.5887 26.7737 17.624 26.3324C17.6593 26.7737 17.6712 27.2166 17.6596 27.6592C17.6711 28.1014 17.6592 28.5438 17.624 28.9847Z" fill="#ADBBC9"/>
<path d="M13.8886 38.9176L12.8137 39.8898C12.8137 39.8898 12.6905 43.4335 14.0461 46.7239C15.4017 50.0143 16.2862 50.9783 16.2862 50.9783L17.3036 50.9126L16.5286 39.06L15.414 38.8176L13.8886 38.9176Z" fill="#E6E6E6" fill-opacity="0.8"/>
<g opacity="0.3">
<path opacity="0.3" d="M14.9742 38.8546L16.6489 50.61L17.3089 50.688L16.5298 39.06L15.4152 38.8176L14.9742 38.8546Z" fill="#ADBBC9"/>
</g>
<path d="M16.649 50.6045C16.6285 50.6045 16.2382 47.9796 15.785 44.7343C15.3317 41.4891 14.973 38.8559 14.9935 38.8532C15.0141 38.8504 15.4043 41.4781 15.8562 44.7247C16.308 47.9713 16.6654 50.6045 16.649 50.6045Z" fill="#E6E6E6" fill-opacity="0.8"/>
<path d="M15.8234 41.8752C15.8238 41.8797 15.8232 41.8843 15.8218 41.8886C15.8205 41.8929 15.8182 41.8968 15.8153 41.9003C15.8124 41.9037 15.8088 41.9065 15.8048 41.9086C15.8008 41.9106 15.7964 41.9119 15.7919 41.9122C15.7827 41.9126 15.7737 41.9094 15.7668 41.9033C15.7599 41.8971 15.7556 41.8886 15.7549 41.8794C15.7547 41.8749 15.7554 41.8704 15.757 41.8661C15.7585 41.8619 15.7609 41.858 15.764 41.8547C15.767 41.8514 15.7707 41.8488 15.7748 41.8469C15.7789 41.845 15.7833 41.8439 15.7878 41.8438C15.7966 41.8434 15.8053 41.8464 15.8119 41.8523C15.8186 41.8582 15.8227 41.8664 15.8234 41.8752Z" fill="#E6E6E6" fill-opacity="0.8"/>
<path d="M16.2093 44.7631C16.2097 44.7721 16.2067 44.7809 16.2009 44.7878C16.195 44.7946 16.1868 44.799 16.1778 44.8001C16.1686 44.8004 16.1596 44.7972 16.1527 44.7911C16.1458 44.785 16.1416 44.7764 16.1409 44.7672C16.1409 44.7581 16.1445 44.7494 16.1509 44.743C16.1573 44.7366 16.166 44.733 16.1751 44.733C16.1842 44.733 16.1929 44.7366 16.1993 44.743C16.2057 44.7494 16.2093 44.7581 16.2093 44.7672V44.7631Z" fill="#E6E6E6" fill-opacity="0.8"/>
<path d="M16.6093 48.0822C16.6096 48.0867 16.6091 48.0913 16.6077 48.0956C16.6064 48.0999 16.6041 48.1038 16.6012 48.1073C16.5983 48.1107 16.5947 48.1135 16.5907 48.1156C16.5867 48.1176 16.5823 48.1189 16.5778 48.1192C16.5688 48.1196 16.5599 48.1166 16.5531 48.1108C16.5462 48.1049 16.5418 48.0967 16.5408 48.0877C16.5404 48.0785 16.5436 48.0695 16.5498 48.0626C16.5559 48.0557 16.5645 48.0515 16.5737 48.0508C16.5825 48.0504 16.5912 48.0534 16.5978 48.0593C16.6045 48.0652 16.6086 48.0734 16.6093 48.0822Z" fill="#E6E6E6" fill-opacity="0.8"/>
<path d="M15.3647 39.5132C15.3651 39.5224 15.3619 39.5314 15.3557 39.5383C15.3496 39.5452 15.341 39.5495 15.3318 39.5502C15.3228 39.5502 15.3141 39.5466 15.3076 39.5402C15.3012 39.5337 15.2976 39.525 15.2976 39.516C15.2976 39.5069 15.3012 39.4982 15.3076 39.4917C15.3141 39.4853 15.3228 39.4817 15.3318 39.4817C15.3401 39.4823 15.348 39.4858 15.354 39.4915C15.36 39.4973 15.3638 39.505 15.3647 39.5132Z" fill="#E6E6E6" fill-opacity="0.8"/>
<path d="M13.6228 28.0111H12.6315C12.6315 28.0111 11.3991 34.2044 13.6228 37.0128H15.3564C15.3564 37.0128 16.0999 35.6079 16.0999 34.8658V30.065L13.6228 28.0111Z" fill="#E6E6E6" fill-opacity="0.8"/>
<g opacity="0.3">
<path opacity="0.3" d="M12.9438 35.823L14.839 35.0753V29.0189L16.1001 30.0692L16.0864 34.8494C16.0868 35.0055 16.0698 35.1612 16.0357 35.3136C15.8969 35.9099 15.6659 36.4809 15.3511 37.006H13.623C13.3427 36.6452 13.1141 36.247 12.9438 35.823Z" fill="#ADBBC9"/>
</g>
<path d="M14.8388 29.0189C14.8451 29.0458 14.8479 29.0735 14.847 29.1011C14.847 29.1627 14.847 29.238 14.8539 29.3366C14.8539 29.5502 14.8539 29.8446 14.8648 30.2034C14.8648 30.9442 14.8717 31.952 14.8758 33.0652C14.8758 33.8005 14.8758 34.4879 14.8758 35.0753V35.0972L14.8566 35.1041L13.4777 35.634L13.0888 35.7778C13.0446 35.7967 12.9988 35.8118 12.9519 35.823C12.9958 35.7983 13.0415 35.7772 13.0888 35.76L13.4709 35.5998L14.8402 35.052L14.821 35.0808C14.821 34.4934 14.821 33.806 14.821 33.0707C14.821 31.9574 14.8292 30.9496 14.8319 30.2088C14.8319 29.8501 14.8402 29.5557 14.8429 29.3421C14.8429 29.2462 14.8429 29.1682 14.8498 29.1066C14.8437 29.0777 14.84 29.0484 14.8388 29.0189Z" fill="#E6E6E6" fill-opacity="0.8"/>
<path d="M15.1592 33.6485C15.1592 33.6553 15.1572 33.6619 15.1534 33.6675C15.1496 33.6731 15.1443 33.6775 15.138 33.6801C15.1318 33.6827 15.1249 33.6834 15.1183 33.6821C15.1116 33.6807 15.1055 33.6775 15.1007 33.6727C15.0959 33.6679 15.0927 33.6618 15.0914 33.6552C15.09 33.6485 15.0907 33.6416 15.0933 33.6354C15.0959 33.6291 15.1003 33.6238 15.1059 33.62C15.1115 33.6163 15.1182 33.6143 15.1249 33.6143C15.134 33.6143 15.1427 33.6179 15.1491 33.6243C15.1556 33.6307 15.1592 33.6394 15.1592 33.6485Z" fill="#E6E6E6" fill-opacity="0.8"/>
<path d="M14.094 35.9078C14.094 35.9146 14.092 35.9212 14.0882 35.9268C14.0844 35.9325 14.0791 35.9369 14.0728 35.9395C14.0666 35.942 14.0597 35.9427 14.0531 35.9414C14.0464 35.9401 14.0403 35.9368 14.0355 35.932C14.0308 35.9272 14.0275 35.9211 14.0262 35.9145C14.0248 35.9079 14.0255 35.901 14.0281 35.8947C14.0307 35.8885 14.0351 35.8831 14.0407 35.8794C14.0464 35.8756 14.053 35.8736 14.0597 35.8736C14.0688 35.8736 14.0775 35.8772 14.084 35.8836C14.0904 35.89 14.094 35.8987 14.094 35.9078Z" fill="#E6E6E6" fill-opacity="0.8"/>
<path d="M15.1592 31.7452C15.1592 31.7542 15.1556 31.763 15.1491 31.7694C15.1427 31.7758 15.134 31.7794 15.1249 31.7794C15.1159 31.7794 15.1071 31.7758 15.1007 31.7694C15.0943 31.763 15.0907 31.7542 15.0907 31.7452C15.0907 31.7361 15.0943 31.7274 15.1007 31.721C15.1071 31.7145 15.1159 31.7109 15.1249 31.7109C15.134 31.7109 15.1427 31.7145 15.1491 31.721C15.1556 31.7274 15.1592 31.7361 15.1592 31.7452Z" fill="#E6E6E6" fill-opacity="0.8"/>
<path d="M15.1592 29.8405C15.1592 29.8473 15.1572 29.8539 15.1534 29.8595C15.1496 29.8652 15.1443 29.8695 15.138 29.8721C15.1318 29.8747 15.1249 29.8754 15.1183 29.8741C15.1116 29.8728 15.1055 29.8695 15.1007 29.8647C15.0959 29.8599 15.0927 29.8538 15.0914 29.8472C15.09 29.8405 15.0907 29.8337 15.0933 29.8274C15.0959 29.8212 15.1003 29.8158 15.1059 29.812C15.1115 29.8083 15.1182 29.8063 15.1249 29.8063C15.134 29.8063 15.1427 29.8099 15.1491 29.8163C15.1556 29.8227 15.1592 29.8314 15.1592 29.8405Z" fill="#E6E6E6" fill-opacity="0.8"/>
<path d="M14.9086 36.9581H14.135C13.6177 36.9581 13.1984 37.3774 13.1984 37.8947V37.933C13.1984 38.4503 13.6177 38.8696 14.135 38.8696H14.9086C15.4259 38.8696 15.8452 38.4503 15.8452 37.933V37.8947C15.8452 37.3774 15.4259 36.9581 14.9086 36.9581Z" fill="#ADBBC9"/>
<path d="M14.3006 38.8614C14.3006 38.8614 14.2705 38.8614 14.2253 38.8423C14.1624 38.8067 14.11 38.7553 14.0733 38.693C13.9744 38.4841 13.9274 38.2544 13.9364 38.0234C13.9325 37.7946 13.9677 37.5667 14.0404 37.3497C14.0632 37.2574 14.1036 37.1705 14.1596 37.0937C14.0668 37.3947 14.0157 37.7071 14.0076 38.022C14.0009 38.2431 14.0401 38.4632 14.1226 38.6684C14.1634 38.7476 14.225 38.8143 14.3006 38.8614Z" fill="#ADBBC9"/>
<path d="M17.898 52.7954C17.898 52.5079 17.898 51.7 17.8145 51.4261C17.7471 51.1421 17.5704 50.8961 17.3229 50.7415C17.1194 50.6508 16.8975 50.6094 16.675 50.6206C16.4526 50.6318 16.2359 50.6953 16.0426 50.8058C15.9056 50.9148 15.7963 51.0546 15.7235 51.2138C15.6507 51.3729 15.6165 51.547 15.6236 51.7219L15.5647 52.7872" fill="#ADBBC9"/>
<path d="M15.6329 51.6822C15.7309 51.7374 15.8366 51.7775 15.9465 51.8013C16.4694 51.9471 17.0183 51.9733 17.5527 51.878C17.6643 51.8651 17.7733 51.835 17.8758 51.789C17.5023 51.8384 17.1257 51.8608 16.7489 51.8561C16.3732 51.8249 16.0003 51.7668 15.6329 51.6822Z" fill="#ADBBC9"/>
<path d="M21.2157 38.6916L22.3509 39.5912C22.3509 39.5912 22.7028 43.1144 21.5676 46.4802C20.4325 49.8459 19.6109 50.8619 19.6109 50.8619H18.5935V39.0038L19.6889 38.6902L21.2157 38.6916Z" fill="#E6E6E6" fill-opacity="0.8"/>
<g opacity="0.3">
<path opacity="0.3" d="M20.1559 38.7437L19.2467 50.5826L18.5935 50.7045L18.6168 39.049L19.7136 38.7355L20.1559 38.7437Z" fill="#ADBBC9"/>
</g>
<path d="M19.2561 50.5826C19.237 50.5826 19.4205 47.9317 19.6669 44.6631C19.9134 41.3946 20.1284 38.7478 20.1475 38.7491C20.1667 38.7505 19.9846 41.4001 19.7368 44.6686C19.4889 47.9371 19.2767 50.584 19.2561 50.5826Z" fill="#E6E6E6" fill-opacity="0.8"/>
<path d="M19.4902 41.8259C19.4902 41.843 19.497 41.8594 19.5091 41.8714C19.5212 41.8835 19.5375 41.8903 19.5546 41.8903C19.5717 41.8903 19.588 41.8835 19.6001 41.8714C19.6122 41.8594 19.6189 41.843 19.6189 41.8259C19.6189 41.8089 19.6122 41.7925 19.6001 41.7804C19.588 41.7683 19.5717 41.7616 19.5546 41.7616C19.5375 41.7616 19.5212 41.7683 19.5091 41.7804C19.497 41.7925 19.4902 41.8089 19.4902 41.8259Z" fill="#E6E6E6" fill-opacity="0.8"/>
<path d="M19.2343 44.7727C19.234 44.7855 19.2375 44.798 19.2444 44.8088C19.2513 44.8196 19.2613 44.828 19.273 44.8331C19.2848 44.8382 19.2977 44.8396 19.3103 44.8373C19.3229 44.835 19.3345 44.829 19.3436 44.82C19.3528 44.8111 19.359 44.7996 19.3616 44.7871C19.3642 44.7746 19.363 44.7616 19.3582 44.7497C19.3534 44.7379 19.3451 44.7278 19.3345 44.7206C19.3239 44.7135 19.3114 44.7097 19.2986 44.7097C19.2818 44.7097 19.2656 44.7163 19.2536 44.728C19.2416 44.7398 19.2346 44.7558 19.2343 44.7727Z" fill="#E6E6E6" fill-opacity="0.8"/>
<path d="M19.1055 48.1042C19.1055 48.1169 19.1092 48.1294 19.1163 48.1399C19.1234 48.1505 19.1334 48.1588 19.1452 48.1636C19.157 48.1685 19.1699 48.1698 19.1824 48.1673C19.1949 48.1648 19.2063 48.1587 19.2153 48.1497C19.2243 48.1407 19.2305 48.1292 19.2329 48.1167C19.2354 48.1043 19.2342 48.0913 19.2293 48.0796C19.2244 48.0678 19.2162 48.0577 19.2056 48.0507C19.195 48.0436 19.1826 48.0398 19.1698 48.0398C19.1528 48.0398 19.1364 48.0466 19.1243 48.0587C19.1122 48.0707 19.1055 48.0871 19.1055 48.1042Z" fill="#E6E6E6" fill-opacity="0.8"/>
<path d="M19.7462 39.3914C19.746 39.4041 19.7495 39.4167 19.7564 39.4275C19.7633 39.4382 19.7733 39.4467 19.785 39.4518C19.7967 39.4569 19.8097 39.4583 19.8223 39.456C19.8349 39.4537 19.8465 39.4477 19.8556 39.4387C19.8647 39.4298 19.871 39.4183 19.8736 39.4058C19.8762 39.3933 19.875 39.3803 19.8702 39.3684C19.8653 39.3566 19.8571 39.3465 19.8465 39.3393C19.8359 39.3322 19.8234 39.3284 19.8106 39.3284C19.7938 39.3284 19.7776 39.335 19.7656 39.3467C19.7535 39.3585 19.7466 39.3745 19.7462 39.3914Z" fill="#E6E6E6" fill-opacity="0.8"/>
<path d="M21.4457 27.9248H22.4344C22.4344 27.9248 23.6667 34.0963 21.4457 36.8937H19.7191C19.7191 36.8937 18.9783 35.4943 18.9783 34.7549V29.9815L21.4457 27.9248Z" fill="#E6E6E6" fill-opacity="0.8"/>
<g opacity="0.3">
<path opacity="0.3" d="M22.1865 35.7107L20.2586 34.9631V28.9066L18.9783 29.9569L18.9933 34.7344C18.9939 34.8929 19.0119 35.0508 19.0467 35.2054C19.1855 35.8005 19.4165 36.3701 19.7314 36.8938H21.495C21.7799 36.5338 22.0127 36.1356 22.1865 35.7107Z" fill="#ADBBC9"/>
</g>
<path d="M20.2584 28.9504C20.2647 28.9773 20.2675 29.005 20.2666 29.0326C20.2666 29.0942 20.2666 29.1695 20.2735 29.2681C20.2735 29.4831 20.2735 29.7761 20.2844 30.1363C20.2844 30.877 20.2844 31.8862 20.294 32.9995C20.294 33.7361 20.294 34.4249 20.294 35.0137L20.2749 34.9849L21.6442 35.5327L22.0262 35.6929C22.0736 35.7093 22.1194 35.73 22.1631 35.7545C22.1161 35.7445 22.0702 35.7299 22.0262 35.7107L21.6373 35.5655L20.2584 35.037L20.2393 35.0288V35.0082C20.2393 34.4194 20.2393 33.7307 20.2393 32.994C20.2393 31.8807 20.2475 30.8716 20.2502 30.1308C20.2502 29.7706 20.2584 29.4776 20.2612 29.2626C20.2612 29.1668 20.2612 29.0887 20.268 29.0271C20.263 29.0018 20.2598 28.9762 20.2584 28.9504Z" fill="#E6E6E6" fill-opacity="0.8"/>
<path d="M19.875 33.6252C19.875 33.638 19.8788 33.6505 19.8859 33.6611C19.8931 33.6717 19.9032 33.68 19.9151 33.6848C19.9269 33.6896 19.9399 33.6908 19.9524 33.6882C19.9649 33.6856 19.9764 33.6794 19.9853 33.6702C19.9943 33.6611 20.0003 33.6495 20.0026 33.6369C20.005 33.6243 20.0035 33.6114 19.9984 33.5996C19.9933 33.5879 19.9849 33.5779 19.9741 33.571C19.9633 33.5641 19.9508 33.5606 19.938 33.5609C19.9212 33.5612 19.9051 33.5682 19.8934 33.5802C19.8816 33.5922 19.875 33.6084 19.875 33.6252Z" fill="#E6E6E6" fill-opacity="0.8"/>
<path d="M20.8993 35.8052C20.8993 35.8179 20.9031 35.8303 20.9101 35.8409C20.9172 35.8515 20.9273 35.8598 20.939 35.8646C20.9508 35.8695 20.9637 35.8708 20.9762 35.8683C20.9887 35.8658 21.0002 35.8597 21.0092 35.8507C21.0182 35.8417 21.0243 35.8302 21.0268 35.8177C21.0293 35.8052 21.028 35.7923 21.0231 35.7805C21.0182 35.7688 21.01 35.7587 20.9994 35.7517C20.9888 35.7446 20.9764 35.7408 20.9636 35.7408C20.9466 35.7408 20.9302 35.7476 20.9181 35.7597C20.9061 35.7717 20.8993 35.7881 20.8993 35.8052Z" fill="#E6E6E6" fill-opacity="0.8"/>
<path d="M19.8751 31.7082C19.8737 31.7174 19.8744 31.7267 19.877 31.7356C19.8795 31.7444 19.884 31.7527 19.89 31.7597C19.8961 31.7666 19.9036 31.7723 19.912 31.7761C19.9204 31.78 19.9295 31.7819 19.9387 31.7819C19.948 31.7819 19.9571 31.78 19.9655 31.7761C19.9739 31.7723 19.9814 31.7666 19.9874 31.7597C19.9935 31.7527 19.998 31.7444 20.0005 31.7356C20.0031 31.7267 20.0038 31.7174 20.0024 31.7082C20.0002 31.6929 19.9925 31.679 19.9808 31.6689C19.9691 31.6588 19.9542 31.6532 19.9387 31.6532C19.9233 31.6532 19.9084 31.6588 19.8967 31.6689C19.885 31.679 19.8773 31.6929 19.8751 31.7082Z" fill="#E6E6E6" fill-opacity="0.8"/>
<path d="M19.875 29.783C19.875 29.7958 19.8788 29.8083 19.8859 29.8189C19.8931 29.8295 19.9032 29.8377 19.9151 29.8425C19.9269 29.8474 19.9399 29.8486 19.9524 29.846C19.9649 29.8434 19.9764 29.8371 19.9853 29.828C19.9943 29.8188 20.0003 29.8072 20.0026 29.7947C20.005 29.7821 20.0035 29.7691 19.9984 29.7574C19.9933 29.7456 19.9849 29.7357 19.9741 29.7288C19.9633 29.7219 19.9508 29.7183 19.938 29.7186C19.9212 29.719 19.9051 29.7259 19.8934 29.7379C19.8816 29.75 19.875 29.7661 19.875 29.783Z" fill="#E6E6E6" fill-opacity="0.8"/>
<path d="M20.1763 38.6875H20.9828C21.5031 38.6875 21.9249 38.2657 21.9249 37.7455V37.7071C21.9249 37.1868 21.5031 36.765 20.9828 36.765H20.1763C19.656 36.765 19.2343 37.1868 19.2343 37.7071V37.7455C19.2343 38.2657 19.656 38.6875 20.1763 38.6875Z" fill="#ADBBC9"/>
<path d="M20.7543 38.7354C20.8317 38.6887 20.8951 38.622 20.9378 38.5423C21.0195 38.3374 21.0587 38.118 21.0528 37.8974C21.0439 37.582 20.9923 37.2692 20.8994 36.9677C20.9555 37.0446 20.9964 37.1315 21.0199 37.2237C21.0914 37.441 21.1265 37.6686 21.124 37.8974C21.1332 38.1284 21.0862 38.3581 20.9871 38.567C20.9509 38.6297 20.8984 38.6813 20.8351 38.7162C20.7844 38.7382 20.7556 38.7395 20.7543 38.7354Z" fill="#ADBBC9"/>
<path d="M17.7692 52.7735C17.7692 52.486 17.7692 51.6863 17.8527 51.4042C17.92 51.1198 18.0972 50.8736 18.3456 50.7196C18.5491 50.6289 18.771 50.5875 18.9935 50.5987C19.2159 50.6099 19.4326 50.6733 19.6259 50.7839C19.7628 50.8926 19.8721 51.0321 19.9447 51.1911C20.0173 51.3501 20.0512 51.524 20.0436 51.6986L20.1038 52.7639" fill="#ADBBC9"/>
<path d="M20.2873 51.6397C20.1892 51.6946 20.0836 51.7347 19.9738 51.7588C19.4509 51.9046 18.902 51.9308 18.3676 51.8355C18.2561 51.8219 18.1472 51.7919 18.0444 51.7465C18.0444 51.7219 18.547 51.8451 19.1714 51.8122C19.5471 51.7819 19.92 51.7243 20.2873 51.6397Z" fill="#ADBBC9"/>
<path d="M13.0327 15.2589C13.0327 15.2589 11.5018 15.1452 11.3101 16.6788C11.1184 18.2124 12.5027 18.2069 12.5027 18.2069L13.0327 15.2589Z" fill="#ADBBC9"/>
<path d="M6.86938 20.8866L8.60702 22.0122L11.7701 18.756L12.0316 14.9576L10.294 15.7764L6.86938 20.8866Z" fill="#E6E6E6" fill-opacity="0.8"/>
<g opacity="0.3">
<path opacity="0.3" d="M11.7702 18.756L8.60712 22.0122L7.8855 21.5453L11.8825 17.1334L11.7702 18.756Z" fill="#ADBBC9"/>
</g>
<path d="M11.8537 17.1471C11.8688 17.1608 11.0979 18.0344 10.1339 19.0983C9.16988 20.1623 8.37569 21.0153 8.362 21.0016C8.3483 20.988 9.11648 20.1143 10.0818 19.0504C11.0472 17.9865 11.8386 17.1334 11.8537 17.1471Z" fill="#E6E6E6" fill-opacity="0.8"/>
<path d="M9.18358 20.7223C9.18324 20.7313 9.17952 20.7398 9.17317 20.7462C9.16683 20.7525 9.15832 20.7562 9.14934 20.7566C9.14027 20.7566 9.13156 20.753 9.12514 20.7465C9.11872 20.7401 9.11511 20.7314 9.11511 20.7223C9.11511 20.7133 9.11872 20.7046 9.12514 20.6981C9.13156 20.6917 9.14027 20.6881 9.14934 20.6881C9.15842 20.6881 9.16713 20.6917 9.17355 20.6981C9.17997 20.7046 9.18358 20.7133 9.18358 20.7223Z" fill="#E6E6E6" fill-opacity="0.8"/>
<path d="M10.1079 19.6762C10.1079 19.683 10.1059 19.6896 10.1021 19.6952C10.0984 19.7008 10.093 19.7052 10.0868 19.7078C10.0805 19.7104 10.0736 19.7111 10.067 19.7098C10.0603 19.7085 10.0542 19.7052 10.0495 19.7004C10.0447 19.6956 10.0414 19.6895 10.0401 19.6829C10.0388 19.6762 10.0394 19.6694 10.042 19.6631C10.0446 19.6568 10.049 19.6515 10.0546 19.6477C10.0603 19.644 10.0669 19.642 10.0737 19.642C10.0827 19.642 10.0914 19.6456 10.0979 19.652C10.1043 19.6584 10.1079 19.6671 10.1079 19.6762Z" fill="#E6E6E6" fill-opacity="0.8"/>
<path d="M11.0322 18.63C11.0322 18.6368 11.0302 18.6434 11.0264 18.649C11.0227 18.6547 11.0173 18.6591 11.0111 18.6617C11.0048 18.6642 10.9979 18.6649 10.9913 18.6636C10.9847 18.6623 10.9786 18.659 10.9738 18.6542C10.969 18.6494 10.9657 18.6433 10.9644 18.6367C10.9631 18.6301 10.9638 18.6232 10.9664 18.6169C10.9689 18.6107 10.9733 18.6053 10.979 18.6016C10.9846 18.5978 10.9912 18.5958 10.998 18.5958C11.0071 18.5958 11.0158 18.5994 11.0222 18.6058C11.0286 18.6122 11.0322 18.6209 11.0322 18.63Z" fill="#E6E6E6" fill-opacity="0.8"/>
<path d="M7.4708 23.5677C8.25653 23.5677 8.8935 22.9308 8.8935 22.145C8.8935 21.3593 8.25653 20.7223 7.4708 20.7223C6.68506 20.7223 6.0481 21.3593 6.0481 22.145C6.0481 22.9308 6.68506 23.5677 7.4708 23.5677Z" fill="#ADBBC9"/>
<path d="M8.83992 22.2696L12.5863 26.9239L11.9222 27.792L6.23278 23.9949L6 22.0697L8.83992 22.2696Z" fill="#E6E6E6" fill-opacity="0.8"/>
<g opacity="0.3">
<path opacity="0.3" d="M11.2911 27.3717L11.4047 26.2776L7.9541 22.2067L8.84004 22.2697L12.5864 26.9239L11.9223 27.792L11.2911 27.3717Z" fill="#ADBBC9"/>
</g>
<path d="M11.2911 27.3717C11.2875 27.3462 11.2875 27.3204 11.2911 27.295C11.2911 27.2361 11.3007 27.158 11.3075 27.0759C11.3239 26.8746 11.3486 26.6035 11.3773 26.2748L11.3842 26.2954L10.008 24.6851C9.43294 24.0004 8.91261 23.3911 8.54427 22.942L8.10746 22.4093L7.99107 22.2614C7.97647 22.2448 7.96405 22.2264 7.9541 22.2067C7.9541 22.2067 7.97327 22.2217 8.00203 22.2519C8.03078 22.282 8.07871 22.3354 8.128 22.3888L8.58261 22.9064C8.96464 23.3473 9.48772 23.958 10.0615 24.6358C10.5845 25.2575 11.0597 25.8244 11.4307 26.257L11.4376 26.2666V26.2776C11.3993 26.6062 11.3664 26.876 11.3431 27.0759C11.3322 27.1635 11.3212 27.2347 11.3144 27.2936C11.3102 27.3206 11.3024 27.3468 11.2911 27.3717Z" fill="#E6E6E6" fill-opacity="0.8"/>
<path d="M10.4228 24.7549C10.4228 24.7617 10.4208 24.7683 10.4171 24.7739C10.4133 24.7796 10.408 24.7839 10.4017 24.7865C10.3954 24.7891 10.3886 24.7898 10.3819 24.7885C10.3753 24.7872 10.3692 24.7839 10.3644 24.7791C10.3596 24.7743 10.3563 24.7682 10.355 24.7616C10.3537 24.7549 10.3544 24.7481 10.357 24.7418C10.3596 24.7355 10.364 24.7302 10.3696 24.7264C10.3752 24.7227 10.3818 24.7207 10.3886 24.7207C10.3977 24.7207 10.4064 24.7243 10.4128 24.7307C10.4192 24.7371 10.4228 24.7458 10.4228 24.7549Z" fill="#E6E6E6" fill-opacity="0.8"/>
<path d="M11.3251 25.76C11.3251 25.7667 11.323 25.7734 11.3193 25.779C11.3155 25.7846 11.3102 25.789 11.3039 25.7916C11.2977 25.7942 11.2908 25.7949 11.2841 25.7935C11.2775 25.7922 11.2714 25.789 11.2666 25.7842C11.2618 25.7794 11.2586 25.7733 11.2572 25.7667C11.2559 25.76 11.2566 25.7531 11.2592 25.7469C11.2618 25.7406 11.2662 25.7353 11.2718 25.7315C11.2774 25.7277 11.2841 25.7257 11.2908 25.7257C11.2999 25.7257 11.3086 25.7293 11.315 25.7358C11.3214 25.7422 11.3251 25.7509 11.3251 25.76Z" fill="#E6E6E6" fill-opacity="0.8"/>
<path d="M9.645 23.8046C9.645 23.8114 9.643 23.818 9.63923 23.8236C9.63547 23.8293 9.63013 23.8337 9.62387 23.8362C9.61762 23.8388 9.61073 23.8395 9.60409 23.8382C9.59745 23.8369 9.59135 23.8336 9.58656 23.8288C9.58178 23.824 9.57852 23.8179 9.5772 23.8113C9.57588 23.8047 9.57655 23.7978 9.57914 23.7915C9.58173 23.7853 9.58612 23.7799 9.59175 23.7762C9.59738 23.7724 9.604 23.7704 9.61077 23.7704C9.61985 23.7704 9.62856 23.774 9.63498 23.7804C9.6414 23.7868 9.645 23.7955 9.645 23.8046Z" fill="#E6E6E6" fill-opacity="0.8"/>
<path d="M8.86058 22.9447C8.86058 22.9515 8.85857 22.9581 8.85481 22.9637C8.85105 22.9693 8.8457 22.9737 8.83945 22.9763C8.83319 22.9789 8.82631 22.9796 8.81967 22.9783C8.81303 22.9769 8.80693 22.9737 8.80214 22.9689C8.79735 22.9641 8.79409 22.958 8.79277 22.9514C8.79145 22.9447 8.79213 22.9378 8.79472 22.9316C8.79731 22.9253 8.8017 22.92 8.80733 22.9162C8.81296 22.9125 8.81958 22.9105 8.82635 22.9105C8.83543 22.9105 8.84413 22.9141 8.85055 22.9205C8.85697 22.9269 8.86058 22.9356 8.86058 22.9447Z" fill="#E6E6E6" fill-opacity="0.8"/>
<path d="M28.8234 13.6581L29.3643 15.6573L25.2975 17.6756L23.6255 17.2635L22.9108 15.3588L28.8234 13.6581Z" fill="#E6E6E6" fill-opacity="0.8"/>
<g opacity="0.3">
<path opacity="0.3" d="M25.2974 17.6756L29.3642 15.6573L29.1397 14.8275L23.7186 17.2867L25.2974 17.6756Z" fill="#ADBBC9"/>
</g>
<path d="M23.7406 17.2635C23.7324 17.2457 24.7868 16.75 26.0945 16.1557C27.4021 15.5614 28.4688 15.0973 28.477 15.1151C28.4853 15.1329 27.4323 15.6285 26.1232 16.2214C24.8142 16.8144 23.7489 17.2813 23.7406 17.2635Z" fill="#E6E6E6" fill-opacity="0.8"/>
<path d="M27.9608 15.812C27.9696 15.8148 27.979 15.8139 27.9871 15.8097C27.9952 15.8054 28.0013 15.7982 28.004 15.7895C28.0067 15.7807 28.0059 15.7713 28.0016 15.7632C27.9974 15.7551 27.9901 15.749 27.9814 15.7463C27.9727 15.7437 27.9633 15.7445 27.9551 15.7485C27.947 15.7526 27.9407 15.7597 27.9376 15.7682C27.935 15.7771 27.936 15.7867 27.9403 15.7949C27.9447 15.803 27.952 15.8092 27.9608 15.812Z" fill="#E6E6E6" fill-opacity="0.8"/>
<path d="M26.6818 16.3721C26.6883 16.3742 26.6953 16.3744 26.7018 16.3726C26.7084 16.3708 26.7143 16.367 26.7187 16.3619C26.7231 16.3567 26.7259 16.3503 26.7267 16.3435C26.7275 16.3368 26.7262 16.3299 26.7231 16.3239C26.72 16.3178 26.7151 16.3129 26.7092 16.3096C26.7032 16.3063 26.6964 16.3049 26.6896 16.3055C26.6828 16.3061 26.6764 16.3087 26.6711 16.313C26.6658 16.3173 26.6619 16.3231 26.6599 16.3296C26.6573 16.3381 26.6582 16.3474 26.6623 16.3553C26.6664 16.3632 26.6734 16.3692 26.6818 16.3721Z" fill="#E6E6E6" fill-opacity="0.8"/>
<path d="M25.4029 16.9335C25.4072 16.935 25.4118 16.9356 25.4163 16.9353C25.4209 16.935 25.4254 16.9338 25.4294 16.9318C25.4335 16.9297 25.4371 16.9269 25.4401 16.9234C25.4431 16.92 25.4453 16.9159 25.4467 16.9116C25.4494 16.9029 25.4486 16.8935 25.4445 16.8853C25.4404 16.8772 25.4334 16.8709 25.4248 16.8678C25.4204 16.8663 25.4158 16.8657 25.4111 16.8661C25.4065 16.8665 25.402 16.8678 25.3979 16.87C25.3938 16.8722 25.3902 16.8752 25.3873 16.8788C25.3844 16.8824 25.3822 16.8866 25.381 16.891C25.3784 16.8996 25.3792 16.9088 25.3833 16.9167C25.3874 16.9246 25.3944 16.9307 25.4029 16.9335Z" fill="#E6E6E6" fill-opacity="0.8"/>
<path d="M21.8784 15.4355C21.8784 15.4355 23.4093 15.3218 23.601 16.8541C23.7927 18.3863 22.4083 18.3822 22.4083 18.3822L21.8784 15.4355Z" fill="#ADBBC9"/>
<path d="M30.5042 15.8749C31.1987 15.5075 31.4639 14.6466 31.0964 13.9521C30.729 13.2575 29.8681 12.9924 29.1736 13.3598C28.479 13.7272 28.2139 14.5881 28.5813 15.2827C28.9487 15.9772 29.8096 16.2424 30.5042 15.8749Z" fill="#ADBBC9"/>
<path d="M31.3922 13.1213L31.2909 7.14709L30.2242 6.90472L28.2839 13.465L30.761 13.706L31.3922 13.1213Z" fill="#E6E6E6" fill-opacity="0.8"/>
<g opacity="0.3">
<path opacity="0.3" d="M30.0093 7.63319L30.7953 8.40137L30.7514 13.7362L31.3923 13.1213L31.2909 7.14709L30.2243 6.90472L30.0093 7.63319Z" fill="#ADBBC9"/>
</g>
<path d="M30.0094 7.63321C30.0094 7.63321 30.0313 7.64827 30.0697 7.68113L30.2313 7.82902L30.8146 8.37674H30.8228V8.38906C30.8228 8.95595 30.8228 9.69537 30.8146 10.5074C30.8064 11.396 30.7954 12.1998 30.7844 12.7818L30.768 13.4664C30.768 13.5404 30.7612 13.6033 30.7598 13.654C30.7606 13.6758 30.7578 13.6975 30.7516 13.7184C30.7464 13.6973 30.7441 13.6757 30.7447 13.654C30.7447 13.602 30.7447 13.5404 30.7447 13.4664C30.7447 13.2911 30.7447 13.0556 30.7447 12.7818C30.7447 12.1998 30.7447 11.3947 30.753 10.506C30.7639 9.69537 30.7735 8.95458 30.7803 8.38906L30.7886 8.40823L30.2217 7.8386L30.0697 7.67976C30.0245 7.65512 30.0067 7.63458 30.0094 7.63321Z" fill="#E6E6E6" fill-opacity="0.8"/>
<path d="M31.0171 10.1993C31.0139 10.196 31.0101 10.1933 31.0058 10.1915C31.0016 10.1897 30.997 10.1888 30.9924 10.1888C30.9878 10.1888 30.9833 10.1897 30.979 10.1915C30.9748 10.1933 30.971 10.196 30.9678 10.1993C30.9615 10.2057 30.958 10.2143 30.958 10.2233C30.958 10.2322 30.9615 10.2408 30.9678 10.2472C30.9709 10.2505 30.9746 10.2531 30.9787 10.2549C30.9828 10.2567 30.9873 10.2576 30.9918 10.2576C30.9962 10.2576 31.0007 10.2567 31.0048 10.2549C31.0089 10.2531 31.0126 10.2505 31.0157 10.2472C31.0222 10.241 31.0259 10.2325 31.0262 10.2235C31.0264 10.2146 31.0232 10.2059 31.0171 10.1993Z" fill="#E6E6E6" fill-opacity="0.8"/>
<path d="M30.9993 8.84094C31.0032 8.83857 31.0075 8.83704 31.0121 8.83646C31.0166 8.83587 31.0212 8.83623 31.0256 8.83752C31.0299 8.83881 31.034 8.84099 31.0375 8.84394C31.041 8.84688 31.0438 8.85053 31.0458 8.85463C31.0502 8.86262 31.0512 8.87201 31.0486 8.88074C31.046 8.88947 31.0401 8.89683 31.0321 8.90118C31.0241 8.90554 31.0147 8.90655 31.006 8.90398C30.9973 8.90141 30.9899 8.89548 30.9856 8.88749C30.9815 8.87944 30.9807 8.87016 30.9833 8.86152C30.9858 8.85288 30.9915 8.84553 30.9993 8.84094Z" fill="#E6E6E6" fill-opacity="0.8"/>
<path d="M31.0282 11.4275C31.025 11.4242 31.0212 11.4216 31.0169 11.4198C31.0127 11.418 31.0082 11.4171 31.0035 11.4171C30.9989 11.4171 30.9944 11.418 30.9902 11.4198C30.9859 11.4216 30.9821 11.4242 30.9789 11.4275C30.9726 11.4339 30.9691 11.4425 30.9691 11.4515C30.9691 11.4605 30.9726 11.4691 30.9789 11.4755C30.9855 11.4818 30.9944 11.4854 31.0035 11.4854C31.0127 11.4854 31.0216 11.4818 31.0282 11.4755C31.0345 11.4691 31.038 11.4605 31.038 11.4515C31.038 11.4425 31.0345 11.4339 31.0282 11.4275Z" fill="#E6E6E6" fill-opacity="0.8"/>
<path d="M12.5301 26.3118L12.9628 26.3913L13.3325 26.7815L13.1956 27.0718L13.4421 27.8153C13.4421 27.8153 13.4599 28.0495 13.2928 28.0892L13.1258 28.1289C13.1258 28.1289 13.1614 28.3274 12.9039 28.4137L12.5383 28.5356C12.5383 28.5356 12.4082 28.7286 12.2809 28.6205C12.1536 28.5123 12.0645 28.5575 12.0645 28.5575C12.0645 28.5575 11.8756 28.6657 11.7811 28.6068C11.6866 28.5479 11.2471 27.5908 11.2471 27.5908L11.0513 27.4374L12.1399 26.2201L12.322 26.3652L12.5301 26.3118Z" fill="#ADBBC9"/>
<path d="M12.0221 26.1357L10.8932 27.2647C10.8215 27.3363 10.8215 27.4525 10.8932 27.5242L10.898 27.529C10.9697 27.6007 11.0858 27.6007 11.1575 27.529L12.2865 26.4C12.3581 26.3284 12.3581 26.2122 12.2865 26.1405L12.2816 26.1357C12.21 26.064 12.0938 26.064 12.0221 26.1357Z" fill="#ADBBC9"/>
<path d="M12.3056 26.3885C12.1373 26.6031 11.9514 26.8033 11.7497 26.9869C11.5638 27.1868 11.3608 27.37 11.1431 27.5346C11.3109 27.3196 11.4969 27.1194 11.699 26.9362C11.8846 26.736 12.0876 26.5527 12.3056 26.3885Z" fill="#ADBBC9"/>
<path d="M31.5017 7.10877L31.6729 6.02977L32.0002 4.97541C32.0002 4.97541 32.0823 4.70155 31.9098 4.70155C31.7372 4.70155 31.3292 5.52313 31.3292 5.52313C31.3292 5.52313 31.6359 4.56462 31.6031 4.36607C31.5702 4.16752 31.4743 4.17026 31.3525 4.28802C31.2306 4.40578 30.9417 5.1096 30.9417 5.1096C30.9417 5.1096 31.0458 4.16478 30.9417 4.06893C30.8376 3.97308 30.7377 3.97719 30.687 4.08126C30.6363 4.18532 30.5268 5.03977 30.5131 5.08084C30.4994 5.12192 30.3762 4.27981 30.2461 4.25927C30.116 4.23873 29.9996 4.21408 30.0174 4.49752C30.0352 4.78097 29.9777 5.61487 29.9777 5.61487C29.9777 5.61487 29.7381 4.98089 29.5669 4.93022C29.3643 4.86723 29.3396 4.96719 29.4464 5.32047C29.5738 5.74358 29.5477 5.84217 29.5477 5.84217C29.5477 5.84217 29.7257 6.49533 29.797 6.98828L31.5017 7.10877Z" fill="#ADBBC9"/>
<path d="M29.9696 5.91613C29.9696 5.91613 30.0257 5.90791 30.1065 5.90655C30.22 5.90381 30.3321 5.93172 30.4311 5.98733C30.5293 6.04373 30.611 6.12495 30.6679 6.22285C30.7118 6.29816 30.7268 6.35157 30.7337 6.3502C30.732 6.30196 30.7184 6.2549 30.694 6.21327C30.6414 6.10416 30.5566 6.01379 30.4511 5.9543C30.3456 5.89481 30.2244 5.86907 30.1038 5.88053C30.0569 5.88148 30.0108 5.89369 29.9696 5.91613Z" fill="#ADBBC9"/>
<path d="M30.9061 6.33513C30.9143 6.34335 30.9951 6.26256 31.1102 6.18451C31.1845 6.1432 31.2563 6.09747 31.3251 6.04758C31.2381 6.06036 31.1559 6.09578 31.0869 6.15027C31.0108 6.19412 30.9482 6.25807 30.9061 6.33513Z" fill="#ADBBC9"/>
<path d="M29.834 7.29639H31.4307C31.532 7.29639 31.6141 7.21424 31.6141 7.1129V7.10605C31.6141 7.00472 31.532 6.92257 31.4307 6.92257H29.834C29.7327 6.92257 29.6506 7.00472 29.6506 7.10605V7.1129C29.6506 7.21424 29.7327 7.29639 29.834 7.29639Z" fill="#ADBBC9"/>
<path d="M29.8108 6.9239C30.0831 6.88859 30.3582 6.8785 30.6324 6.89377C30.9069 6.8828 31.1819 6.89655 31.4539 6.93485C31.1815 6.96837 30.9066 6.97845 30.6324 6.96497C30.3578 6.97428 30.083 6.96054 29.8108 6.9239Z" fill="#ADBBC9"/>
</g>
<defs>
<filter id="filter0_d" x="0.75275" y="0.501834" width="36.5142" height="59.2899" filterUnits="userSpaceOnUse" color-interpolation-filters="sRGB">
<feFlood flood-opacity="0" result="BackgroundImageFix"/>
<feColorMatrix in="SourceAlpha" type="matrix" values="0 0 0 0 0 0 0 0 0 0 0 0 0 0 0 0 0 0 127 0" result="hardAlpha"/>
<feOffset dy="1.74908"/>
<feGaussianBlur stdDeviation="2.62362"/>
<feComposite in2="hardAlpha" operator="out"/>
<feColorMatrix type="matrix" values="0 0 0 0 0.101961 0 0 0 0 0.101961 0 0 0 0 0.101961 0 0 0 0.07 0"/>
<feBlend mode="normal" in2="BackgroundImageFix" result="effect1_dropShadow"/>
<feBlend mode="normal" in="SourceGraphic" in2="effect1_dropShadow" result="shape"/>
</filter>
</defs>
</svg>
