<svg width="49" height="58" viewBox="0 0 49 58" fill="none" xmlns="http://www.w3.org/2000/svg">
<path d="M25.25 51.5C25.5261 51.5 25.75 51.2761 25.75 51C25.75 50.7239 25.5261 50.5 25.25 50.5V51.5ZM27.75 50.5C27.4739 50.5 27.25 50.7239 27.25 51C27.25 51.2761 27.4739 51.5 27.75 51.5V50.5ZM30.25 51.5C30.5261 51.5 30.75 51.2761 30.75 51C30.75 50.7239 30.5261 50.5 30.25 50.5V51.5ZM32.75 50.5C32.4739 50.5 32.25 50.7239 32.25 51C32.25 51.2761 32.4739 51.5 32.75 51.5V50.5ZM35.25 51.5C35.5261 51.5 35.75 51.2761 35.75 51C35.75 50.7239 35.5261 50.5 35.25 50.5V51.5ZM37.75 50.5C37.4739 50.5 37.25 50.7239 37.25 51C37.25 51.2761 37.4739 51.5 37.75 51.5V50.5ZM40.25 51.5C40.5261 51.5 40.75 51.2761 40.75 51C40.75 50.7239 40.5261 50.5 40.25 50.5V51.5ZM42.75 50.5C42.4739 50.5 42.25 50.7239 42.25 51C42.25 51.2761 42.4739 51.5 42.75 51.5V50.5ZM45.7227 51.1583C45.9778 51.0526 46.0988 50.76 45.993 50.505C45.8872 50.2499 45.5947 50.1288 45.3396 50.2346L45.7227 51.1583ZM47.2346 48.3396C47.1288 48.5947 47.2499 48.8872 47.505 48.993C47.76 49.0988 48.0526 48.9778 48.1583 48.7227L47.2346 48.3396ZM48.5 45.8125C48.5 45.5364 48.2761 45.3125 48 45.3125C47.7239 45.3125 47.5 45.5364 47.5 45.8125H48.5ZM47.5 43.4375C47.5 43.7136 47.7239 43.9375 48 43.9375C48.2761 43.9375 48.5 43.7136 48.5 43.4375H47.5ZM48.5 41.0625C48.5 40.7864 48.2761 40.5625 48 40.5625C47.7239 40.5625 47.5 40.7864 47.5 41.0625H48.5ZM47.5 38.6875C47.5 38.9636 47.7239 39.1875 48 39.1875C48.2761 39.1875 48.5 38.9636 48.5 38.6875H47.5ZM48.5 36.3125C48.5 36.0364 48.2761 35.8125 48 35.8125C47.7239 35.8125 47.5 36.0364 47.5 36.3125H48.5ZM47.5 33.9375C47.5 34.2136 47.7239 34.4375 48 34.4375C48.2761 34.4375 48.5 34.2136 48.5 33.9375H47.5ZM48.5 31.5625C48.5 31.2864 48.2761 31.0625 48 31.0625C47.7239 31.0625 47.5 31.2864 47.5 31.5625H48.5ZM47.5 29.1875C47.5 29.4636 47.7239 29.6875 48 29.6875C48.2761 29.6875 48.5 29.4636 48.5 29.1875H47.5ZM48.5 26.8125C48.5 26.5364 48.2761 26.3125 48 26.3125C47.7239 26.3125 47.5 26.5364 47.5 26.8125H48.5ZM47.5 24.4375C47.5 24.7136 47.7239 24.9375 48 24.9375C48.2761 24.9375 48.5 24.7136 48.5 24.4375H47.5ZM48.5 22.0625C48.5 21.7864 48.2761 21.5625 48 21.5625C47.7239 21.5625 47.5 21.7864 47.5 22.0625H48.5ZM47.5 19.6875C47.5 19.9636 47.7239 20.1875 48 20.1875C48.2761 20.1875 48.5 19.9636 48.5 19.6875H47.5ZM48.5 17.3125C48.5 17.0364 48.2761 16.8125 48 16.8125C47.7239 16.8125 47.5 17.0364 47.5 17.3125H48.5ZM47.5 14.9375C47.5 15.2136 47.7239 15.4375 48 15.4375C48.2761 15.4375 48.5 15.2136 48.5 14.9375H47.5ZM48.5 12.5625C48.5 12.2864 48.2761 12.0625 48 12.0625C47.7239 12.0625 47.5 12.2864 47.5 12.5625H48.5ZM47.5 10.1875C47.5 10.4636 47.7239 10.6875 48 10.6875C48.2761 10.6875 48.5 10.4636 48.5 10.1875H47.5ZM48.1583 7.27732C48.0526 7.02224 47.76 6.90121 47.505 7.00698C47.2499 7.11276 47.1288 7.40529 47.2346 7.66037L48.1583 7.27732ZM45.3396 5.76538C45.5947 5.87116 45.8872 5.75013 45.993 5.49505C46.0988 5.23997 45.9778 4.94744 45.7227 4.84166L45.3396 5.76538ZM42.4824 4.5C42.2062 4.5 41.9824 4.72386 41.9824 5C41.9824 5.27614 42.2062 5.5 42.4824 5.5V4.5ZM39.4471 5.5C39.7233 5.5 39.9471 5.27614 39.9471 5C39.9471 4.72386 39.7233 4.5 39.4471 4.5V5.5ZM36.4119 4.5C36.1357 4.5 35.9119 4.72386 35.9119 5C35.9119 5.27614 36.1357 5.5 36.4119 5.5V4.5ZM33.3766 5.5C33.6528 5.5 33.8766 5.27614 33.8766 5C33.8766 4.72386 33.6528 4.5 33.3766 4.5V5.5ZM24 51.5H25.25V50.5H24V51.5ZM27.75 51.5H30.25V50.5H27.75V51.5ZM32.75 51.5H35.25V50.5H32.75V51.5ZM37.75 51.5H40.25V50.5H37.75V51.5ZM42.75 51.5H44V50.5H42.75V51.5ZM44 51.5C44.6092 51.5 45.1914 51.3787 45.7227 51.1583L45.3396 50.2346C44.9276 50.4055 44.4755 50.5 44 50.5V51.5ZM48.1583 48.7227C48.3787 48.1914 48.5 47.6092 48.5 47H47.5C47.5 47.4755 47.4055 47.9276 47.2346 48.3396L48.1583 48.7227ZM48.5 47V45.8125H47.5V47H48.5ZM48.5 43.4375V41.0625H47.5V43.4375H48.5ZM48.5 38.6875V36.3125H47.5V38.6875H48.5ZM48.5 33.9375V31.5625H47.5V33.9375H48.5ZM48.5 29.1875V26.8125H47.5V29.1875H48.5ZM48.5 24.4375V22.0625H47.5V24.4375H48.5ZM48.5 19.6875V17.3125H47.5V19.6875H48.5ZM48.5 14.9375V12.5625H47.5V14.9375H48.5ZM48.5 10.1875V9H47.5V10.1875H48.5ZM48.5 9C48.5 8.39076 48.3787 7.8086 48.1583 7.27732L47.2346 7.66037C47.4055 8.07236 47.5 8.52451 47.5 9H48.5ZM45.7227 4.84166C45.1914 4.62135 44.6092 4.5 44 4.5V5.5C44.4755 5.5 44.9276 5.59454 45.3396 5.76538L45.7227 4.84166ZM44 4.5H42.4824V5.5H44V4.5ZM39.4471 4.5H36.4119V5.5H39.4471V4.5ZM33.3766 4.5H31.859V5.5H33.3766V4.5Z" fill="#DDDDDD"/>
<g filter="url(#filter0_d)">
<path d="M13.8718 24.0513C13.8718 24.0513 14.3319 27.863 16.9435 27.98C19.9666 28.1114 20.1125 24.0513 20.1125 24.0513H13.8718Z" fill="#ADBBC9"/>
<path d="M14.2437 25.5379C14.2437 25.5379 12.882 25.8888 13.3171 27.0415L15.6948 29.0197C15.9355 28.8865 16.1424 28.7 16.2999 28.4744C16.4573 28.2489 16.561 27.9903 16.603 27.7184L14.3081 25.6601" fill="#ADBBC9"/>
<path d="M13.8718 24.0513C13.8718 24.0513 17.004 27.0507 20.1125 24.0513H13.8718Z" fill="#ADBBC9"/>
<path d="M17.5138 14.0791C17.5138 14.0856 17.5119 14.092 17.5083 14.0974C17.5047 14.1028 17.4996 14.107 17.4936 14.1095C17.4875 14.112 17.4809 14.1126 17.4746 14.1114C17.4682 14.1101 17.4623 14.107 17.4577 14.1024C17.4531 14.0978 17.45 14.0919 17.4488 14.0855C17.4475 14.0792 17.4481 14.0726 17.4506 14.0665C17.4531 14.0605 17.4573 14.0554 17.4627 14.0518C17.4681 14.0482 17.4745 14.0463 17.481 14.0463C17.4897 14.0463 17.4981 14.0497 17.5042 14.0559C17.5104 14.0621 17.5138 14.0704 17.5138 14.0791Z" fill="#E6E6E6" fill-opacity="0.8"/>
<path d="M18.5444 11.2072H15.7461V13.7939H18.5444V11.2072Z" fill="#ADBBC9"/>
<path d="M17.6979 12.6083C17.6979 12.6083 19.1319 12.5754 19.3343 11.173C19.4329 10.4948 19.5196 9.08445 19.584 7.80556C19.655 6.43072 18.7547 5.02959 17.1577 5.03616C15.6843 4.92839 14.7708 6.12053 14.7037 7.59526C14.7037 7.59526 14.8128 10.5763 15.0599 11.2584C15.307 11.9406 16.0786 12.7043 17.3575 12.6136" fill="#E6E6E6" fill-opacity="0.8"/>
<path d="M18.593 7.93176H15.6974C15.3461 7.93176 15.0613 8.21658 15.0613 8.56792V8.5929C15.0613 8.94424 15.3461 9.22906 15.6974 9.22906H18.593C18.9444 9.22906 19.2292 8.94424 19.2292 8.5929V8.56792C19.2292 8.21658 18.9444 7.93176 18.593 7.93176Z" fill="#ADBBC9"/>
<path d="M18.5431 8.57188C18.5431 8.62594 18.5219 8.67783 18.484 8.71642C18.4462 8.75501 18.3947 8.77721 18.3406 8.77824C18.3144 8.77966 18.2881 8.77577 18.2634 8.76681C18.2386 8.75785 18.216 8.744 18.1967 8.7261C18.1775 8.70819 18.162 8.68658 18.1513 8.66257C18.1406 8.63856 18.1348 8.61263 18.1343 8.58634C18.1353 8.5323 18.1575 8.48082 18.1961 8.44297C18.2347 8.40512 18.2866 8.38392 18.3406 8.38393C18.3923 8.38249 18.4424 8.40138 18.4803 8.43653C18.5181 8.47168 18.5407 8.52028 18.5431 8.57188Z" fill="#E6E6E6" fill-opacity="0.8"/>
<path d="M14.7117 8.8308C14.7117 9.29609 14.625 9.67463 14.5185 9.67463C14.4121 9.67463 14.3253 9.29609 14.3253 8.8308C14.3253 8.36551 14.4121 7.98566 14.5185 7.98566C14.625 7.98566 14.7117 8.3642 14.7117 8.8308Z" fill="#ADBBC9"/>
<path d="M14.8917 8.83079C14.8917 9.29608 14.797 9.67462 14.6801 9.67462H14.5289C14.4422 9.56947 14.4737 9.21196 14.4737 8.83079C14.4737 8.44962 14.4264 8.09605 14.5131 7.98958C14.5328 7.96461 14.663 7.98958 14.6853 7.98958C14.7918 7.98958 14.8917 8.36418 14.8917 8.83079Z" fill="#ADBBC9"/>
<path d="M19.5314 8.77822C19.5314 8.31161 19.6181 7.93439 19.7246 7.93439C19.8311 7.93439 19.9178 8.31161 19.9178 8.77822C19.9178 9.24482 19.8311 9.62336 19.7246 9.62336C19.6181 9.62336 19.5314 9.24482 19.5314 8.77822Z" fill="#ADBBC9"/>
<path d="M19.3514 8.77822C19.3514 8.31161 19.4461 7.93439 19.5631 7.93439H19.7182C19.8049 8.03822 19.7734 8.39705 19.7734 8.77822C19.7734 9.15939 19.8207 9.51296 19.7352 9.61942C19.7155 9.64439 19.5841 9.61942 19.5631 9.61942C19.4461 9.62336 19.3514 9.24482 19.3514 8.77822Z" fill="#ADBBC9"/>
<g opacity="0.3">
<path opacity="0.3" d="M19.483 9.56683C19.483 9.63781 19.4133 10.5303 19.3515 11.0547C19.2963 11.5187 19.1557 11.8985 18.7956 12.1969C18.5073 12.4487 18.1454 12.6004 17.7638 12.6293C17.2998 12.6701 16.8319 12.6832 16.3916 12.5347C15.9512 12.3862 15.4925 12.0865 15.2704 11.679C15.2704 11.679 17.242 12.7305 18.5708 11.8407C18.5708 11.8407 19.0571 11.6107 19.228 10.5999C19.3923 9.63124 19.483 9.56683 19.483 9.56683Z" fill="#ADBBC9"/>
</g>
<path d="M18.564 9.41306C18.564 9.41306 18.6008 9.41306 18.6705 9.39729C18.7713 9.38178 18.8679 9.34601 18.9544 9.29214C19.0925 9.20897 19.2013 9.08496 19.2659 8.93725C19.3053 8.84586 19.3263 8.7476 19.3277 8.64809C19.3333 8.53652 19.3154 8.42501 19.2751 8.32081C19.2288 8.20212 19.1536 8.09689 19.0563 8.0147C18.9589 7.93251 18.8426 7.87599 18.7178 7.85026C18.5747 7.83463 18.4306 7.82979 18.2867 7.8358H17.8227H15.7526C15.5799 7.83565 15.4124 7.89486 15.2781 8.00349C15.1439 8.11213 15.0511 8.2636 15.0152 8.43253C14.9829 8.5935 14.997 8.76036 15.056 8.91359C15.1163 9.05497 15.2177 9.17494 15.3471 9.25792C15.4765 9.34089 15.6278 9.38304 15.7815 9.37888H16.2192H17.0078L18.1474 9.39071H18.4563C18.4925 9.38708 18.5291 9.38708 18.5653 9.39071C18.529 9.3935 18.4926 9.3935 18.4563 9.39071L18.1474 9.39729L17.0078 9.4078H16.2192H15.7815C15.6149 9.41339 15.4505 9.36859 15.3098 9.27924C15.1691 9.18989 15.0586 9.06017 14.9929 8.90702C14.9265 8.74002 14.9105 8.55725 14.9469 8.38127C14.9851 8.19628 15.0858 8.03004 15.232 7.9104C15.3782 7.79076 15.561 7.72499 15.7499 7.72408H17.8201H18.2841C18.432 7.71766 18.5802 7.72381 18.727 7.74248C18.8599 7.77137 18.9836 7.83286 19.0869 7.92143C19.1901 8.00999 19.2697 8.12285 19.3185 8.24983C19.3967 8.46337 19.3892 8.69892 19.2975 8.90702C19.228 9.05977 19.1121 9.18671 18.9662 9.26979C18.8753 9.32279 18.774 9.35553 18.6692 9.36574C18.636 9.3854 18.6007 9.40127 18.564 9.41306Z" fill="#E6E6E6" fill-opacity="0.8"/>
<path d="M17.1577 5.03619C17.1786 5.17009 17.1883 5.30551 17.1866 5.44102C17.1958 5.69076 17.205 6.03775 17.2089 6.42024C17.2129 6.80272 17.2155 7.14972 17.2089 7.40076C17.2142 7.53598 17.208 7.6714 17.1905 7.80559C17.1695 7.67169 17.1594 7.5363 17.1603 7.40076C17.1511 7.14972 17.1432 6.80403 17.138 6.42155C17.1327 6.03907 17.138 5.69338 17.138 5.44234C17.1335 5.30665 17.1401 5.17081 17.1577 5.03619Z" fill="#E6E6E6" fill-opacity="0.8"/>
<path d="M17.2181 12.6504C17.1997 12.6504 17.184 11.9367 17.184 11.056C17.184 10.1754 17.1997 9.46301 17.2181 9.46301C17.2365 9.46301 17.2523 10.1754 17.2523 11.056C17.2523 11.9367 17.2379 12.6504 17.2181 12.6504Z" fill="#E6E6E6" fill-opacity="0.8"/>
<path d="M17.4061 6.018C17.4061 6.0245 17.4041 6.03085 17.4005 6.03625C17.3969 6.04166 17.3918 6.04587 17.3858 6.04836C17.3798 6.05084 17.3732 6.05149 17.3668 6.05023C17.3604 6.04896 17.3546 6.04583 17.35 6.04123C17.3454 6.03664 17.3422 6.03078 17.341 6.02441C17.3397 6.01803 17.3403 6.01143 17.3428 6.00542C17.3453 5.99942 17.3495 5.99429 17.3549 5.99068C17.3603 5.98707 17.3667 5.98514 17.3732 5.98514C17.3819 5.98514 17.3903 5.9886 17.3964 5.99476C17.4026 6.00092 17.4061 6.00928 17.4061 6.018Z" fill="#E6E6E6" fill-opacity="0.8"/>
<path d="M17.5519 10.9088C17.5519 10.9153 17.55 10.9217 17.5464 10.9271C17.5428 10.9325 17.5376 10.9367 17.5316 10.9392C17.5256 10.9417 17.519 10.9423 17.5127 10.9411C17.5063 10.9398 17.5004 10.9367 17.4958 10.9321C17.4912 10.9275 17.4881 10.9216 17.4868 10.9152C17.4856 10.9089 17.4862 10.9023 17.4887 10.8963C17.4912 10.8903 17.4954 10.8851 17.5008 10.8815C17.5062 10.8779 17.5126 10.876 17.5191 10.876C17.5278 10.876 17.5361 10.8794 17.5423 10.8856C17.5485 10.8918 17.5519 10.9001 17.5519 10.9088Z" fill="#E6E6E6" fill-opacity="0.8"/>
<path d="M17.439 6.65945C17.439 6.66595 17.4371 6.6723 17.4335 6.6777C17.4299 6.68311 17.4247 6.68732 17.4187 6.6898C17.4127 6.69229 17.4061 6.69294 17.3997 6.69168C17.3934 6.69041 17.3875 6.68728 17.3829 6.68268C17.3783 6.67809 17.3752 6.67223 17.3739 6.66586C17.3727 6.65948 17.3733 6.65288 17.3758 6.64687C17.3783 6.64087 17.3825 6.63574 17.3879 6.63213C17.3933 6.62851 17.3997 6.62659 17.4062 6.62659C17.4149 6.62659 17.4232 6.63005 17.4294 6.63621C17.4355 6.64237 17.439 6.65073 17.439 6.65945Z" fill="#E6E6E6" fill-opacity="0.8"/>
<path d="M17.5519 9.87966C17.5519 9.88616 17.55 9.89251 17.5464 9.89792C17.5428 9.90332 17.5376 9.90753 17.5316 9.91002C17.5256 9.91251 17.519 9.91316 17.5127 9.91189C17.5063 9.91062 17.5004 9.90749 17.4958 9.9029C17.4912 9.8983 17.4881 9.89245 17.4868 9.88607C17.4856 9.8797 17.4862 9.87309 17.4887 9.86709C17.4912 9.86108 17.4954 9.85595 17.5008 9.85234C17.5062 9.84873 17.5126 9.8468 17.5191 9.8468C17.5278 9.8468 17.5361 9.85026 17.5423 9.85643C17.5485 9.86259 17.5519 9.87095 17.5519 9.87966Z" fill="#E6E6E6" fill-opacity="0.8"/>
<path d="M19.7326 9.61156C19.6815 9.54671 19.6444 9.47197 19.6236 9.39206C19.5587 9.20372 19.5241 9.00631 19.521 8.80716C19.5175 8.60755 19.5464 8.4087 19.6065 8.21831C19.6264 8.13851 19.6612 8.06316 19.709 7.99619C19.6372 8.26039 19.5971 8.53217 19.5894 8.80584C19.6044 9.07922 19.6525 9.34977 19.7326 9.61156Z" fill="#ADBBC9"/>
<path d="M14.4778 9.74427C14.4673 9.74427 14.5252 9.64832 14.5777 9.48797C14.6427 9.27767 14.6755 9.05876 14.675 8.83866C14.675 8.70722 14.675 8.58499 14.675 8.47195C14.6785 8.3741 14.6706 8.27617 14.6513 8.18016C14.6441 8.14966 14.6307 8.12098 14.612 8.09588C14.5932 8.07078 14.5695 8.04981 14.5423 8.03426C14.5028 8.01323 14.4752 8.01586 14.4752 8.00929C14.4752 8.00272 14.5028 7.99352 14.5528 8.00929C14.587 8.02224 14.6178 8.04283 14.6428 8.06947C14.6679 8.09612 14.6865 8.12813 14.6974 8.16307C14.7247 8.26239 14.7384 8.36498 14.7381 8.46801C14.7381 8.58104 14.7486 8.70722 14.7381 8.83866C14.7391 9.06579 14.6985 9.29119 14.6185 9.50374C14.5904 9.5935 14.5423 9.67574 14.4778 9.74427Z" fill="#ADBBC9"/>
<path d="M16.2377 8.72302C16.2259 8.72302 16.2377 8.67045 16.2075 8.6021C16.1903 8.5591 16.1607 8.52223 16.1224 8.49625C16.0841 8.47028 16.0389 8.45639 15.9926 8.45639C15.9463 8.45639 15.9011 8.47028 15.8627 8.49625C15.8244 8.52223 15.7948 8.5591 15.7777 8.6021C15.7474 8.67045 15.7553 8.72171 15.7448 8.72302C15.7343 8.72434 15.7093 8.67308 15.7317 8.59159C15.7458 8.54059 15.7746 8.49488 15.8145 8.46015C15.8492 8.42971 15.8913 8.40873 15.9365 8.39922C15.9817 8.38972 16.0286 8.39201 16.0727 8.40587C16.1168 8.41973 16.1566 8.44469 16.1883 8.47837C16.2199 8.51204 16.2424 8.55329 16.2535 8.59816C16.2784 8.67439 16.2495 8.72697 16.2377 8.72302Z" fill="#E6E6E6" fill-opacity="0.8"/>
<path d="M18.5378 13.3404C18.076 13.3751 17.6128 13.3865 17.1498 13.3746C16.6869 13.3865 16.2236 13.3751 15.7618 13.3404C15.7618 13.322 16.3835 13.3062 17.1498 13.3062C17.9161 13.3062 18.5378 13.322 18.5378 13.3404Z" fill="#ADBBC9"/>
<path d="M18.5378 13.004C18.076 13.0386 17.6128 13.05 17.1498 13.0381C16.6869 13.05 16.2236 13.0386 15.7618 13.004C15.7618 12.9856 16.3835 12.9698 17.1498 12.9698C17.9161 12.9698 18.5378 12.9842 18.5378 13.004Z" fill="#ADBBC9"/>
<path d="M16.9369 13.6598C16.9369 13.6598 12.9439 13.8281 12.313 15.3764C11.6821 16.9247 11.9633 22.6489 14.1439 23.1128C15.5187 23.4059 17.8149 23.3297 19.3199 23.2324C19.7651 23.2035 20.1897 23.0347 20.5332 22.75C20.8766 22.4653 21.1213 22.0794 21.2323 21.6473C21.6937 19.8571 22.2549 16.8564 21.4242 15.1438C20.5265 14.1764 19.015 13.6927 16.9369 13.6598Z" fill="#E6E6E6" fill-opacity="0.8"/>
<path d="M17.5796 20.8087C17.5796 20.8152 17.5777 20.8216 17.5741 20.827C17.5705 20.8324 17.5654 20.8366 17.5593 20.8391C17.5533 20.8416 17.5467 20.8422 17.5404 20.841C17.534 20.8397 17.5281 20.8366 17.5235 20.832C17.5189 20.8274 17.5158 20.8215 17.5145 20.8151C17.5133 20.8088 17.5139 20.8022 17.5164 20.7962C17.5189 20.7902 17.5231 20.785 17.5285 20.7814C17.5339 20.7778 17.5403 20.7759 17.5468 20.7759C17.5555 20.7759 17.5638 20.7793 17.57 20.7855C17.5762 20.7917 17.5796 20.8 17.5796 20.8087Z" fill="#E6E6E6" fill-opacity="0.8"/>
<path d="M18.254 20.2804C18.254 20.2869 18.252 20.2932 18.2484 20.2986C18.2448 20.304 18.2397 20.3082 18.2337 20.3107C18.2277 20.3132 18.2211 20.3139 18.2147 20.3126C18.2083 20.3113 18.2025 20.3082 18.1979 20.3036C18.1933 20.299 18.1901 20.2931 18.1889 20.2868C18.1876 20.2804 18.1882 20.2738 18.1907 20.2678C18.1932 20.2618 18.1974 20.2566 18.2028 20.253C18.2082 20.2494 18.2146 20.2475 18.2211 20.2475C18.2298 20.2475 18.2382 20.251 18.2443 20.2571C18.2505 20.2633 18.254 20.2716 18.254 20.2804Z" fill="#E6E6E6" fill-opacity="0.8"/>
<path d="M19.5945 20.2133C19.5945 20.222 19.5911 20.2304 19.5849 20.2365C19.5787 20.2427 19.5704 20.2462 19.5617 20.2462C19.553 20.2462 19.5446 20.2427 19.5384 20.2365C19.5323 20.2304 19.5288 20.222 19.5288 20.2133C19.5288 20.2046 19.5323 20.1962 19.5384 20.1901C19.5446 20.1839 19.553 20.1805 19.5617 20.1805C19.5704 20.1805 19.5787 20.1839 19.5849 20.1901C19.5911 20.1962 19.5945 20.2046 19.5945 20.2133Z" fill="#E6E6E6" fill-opacity="0.8"/>
<path d="M20.5751 19.6876C20.5751 19.6963 20.5717 19.7046 20.5655 19.7108C20.5593 19.717 20.551 19.7204 20.5423 19.7204C20.5335 19.7204 20.5252 19.717 20.519 19.7108C20.5129 19.7046 20.5094 19.6963 20.5094 19.6876C20.5094 19.6789 20.5129 19.6705 20.519 19.6643C20.5252 19.6582 20.5335 19.6547 20.5423 19.6547C20.551 19.6547 20.5593 19.6582 20.5655 19.6643C20.5717 19.6705 20.5751 19.6789 20.5751 19.6876Z" fill="#E6E6E6" fill-opacity="0.8"/>
<path d="M21.1849 18.8227C21.1849 18.8292 21.1829 18.8356 21.1793 18.841C21.1757 18.8464 21.1706 18.8506 21.1646 18.8531C21.1586 18.8555 21.152 18.8562 21.1456 18.8549C21.1392 18.8537 21.1334 18.8505 21.1288 18.8459C21.1242 18.8413 21.121 18.8355 21.1198 18.8291C21.1185 18.8227 21.1192 18.8161 21.1216 18.8101C21.1241 18.8041 21.1283 18.799 21.1337 18.7954C21.1391 18.7918 21.1455 18.7898 21.152 18.7898C21.1607 18.7898 21.1691 18.7933 21.1752 18.7995C21.1814 18.8056 21.1849 18.814 21.1849 18.8227Z" fill="#E6E6E6" fill-opacity="0.8"/>
<path d="M21.407 17.904C21.407 17.9105 21.4051 17.9168 21.4015 17.9222C21.3979 17.9276 21.3927 17.9318 21.3867 17.9343C21.3807 17.9368 21.3741 17.9375 21.3678 17.9362C21.3614 17.9349 21.3555 17.9318 21.3509 17.9272C21.3463 17.9226 21.3432 17.9168 21.3419 17.9104C21.3407 17.904 21.3413 17.8974 21.3438 17.8914C21.3463 17.8854 21.3505 17.8803 21.3559 17.8766C21.3613 17.873 21.3677 17.8711 21.3742 17.8711C21.3829 17.8711 21.3912 17.8746 21.3974 17.8807C21.4036 17.8869 21.407 17.8953 21.407 17.904Z" fill="#E6E6E6" fill-opacity="0.8"/>
<path d="M21.3072 17.0141C21.3072 17.0206 21.3052 17.027 21.3016 17.0324C21.298 17.0378 21.2929 17.042 21.2869 17.0445C21.2809 17.047 21.2743 17.0476 21.2679 17.0463C21.2615 17.0451 21.2557 17.042 21.2511 17.0374C21.2465 17.0328 21.2434 17.0269 21.2421 17.0205C21.2408 17.0142 21.2415 17.0076 21.244 17.0015C21.2464 16.9955 21.2507 16.9904 21.2561 16.9868C21.2615 16.9832 21.2678 16.9813 21.2743 16.9813C21.283 16.9813 21.2914 16.9847 21.2975 16.9909C21.3037 16.997 21.3072 17.0054 21.3072 17.0141Z" fill="#E6E6E6" fill-opacity="0.8"/>
<path d="M20.8971 16.1388C20.8971 16.1453 20.8952 16.1516 20.8916 16.157C20.888 16.1624 20.8829 16.1666 20.8769 16.1691C20.8709 16.1716 20.8642 16.1723 20.8579 16.171C20.8515 16.1697 20.8456 16.1666 20.841 16.162C20.8365 16.1574 20.8333 16.1515 20.8321 16.1452C20.8308 16.1388 20.8314 16.1322 20.8339 16.1262C20.8364 16.1202 20.8406 16.115 20.846 16.1114C20.8514 16.1078 20.8578 16.1059 20.8643 16.1059C20.873 16.1059 20.8814 16.1094 20.8875 16.1155C20.8937 16.1217 20.8971 16.13 20.8971 16.1388Z" fill="#E6E6E6" fill-opacity="0.8"/>
<path d="M20.3122 15.5762C20.3122 15.5827 20.3103 15.589 20.3066 15.5944C20.303 15.5999 20.2979 15.6041 20.2919 15.6066C20.2859 15.609 20.2793 15.6097 20.2729 15.6084C20.2665 15.6072 20.2607 15.604 20.2561 15.5994C20.2515 15.5948 20.2484 15.589 20.2471 15.5826C20.2458 15.5762 20.2465 15.5696 20.249 15.5636C20.2515 15.5576 20.2557 15.5525 20.2611 15.5489C20.2665 15.5453 20.2728 15.5433 20.2793 15.5433C20.288 15.5433 20.2964 15.5468 20.3026 15.553C20.3087 15.5591 20.3122 15.5675 20.3122 15.5762Z" fill="#E6E6E6" fill-opacity="0.8"/>
<path d="M19.4684 15.2187C19.4684 15.2274 19.465 15.2358 19.4588 15.2419C19.4526 15.2481 19.4443 15.2515 19.4356 15.2515C19.4269 15.2515 19.4185 15.2481 19.4123 15.2419C19.4062 15.2358 19.4027 15.2274 19.4027 15.2187C19.4027 15.21 19.4062 15.2016 19.4123 15.1954C19.4185 15.1893 19.4269 15.1858 19.4356 15.1858C19.4443 15.1858 19.4526 15.1893 19.4588 15.1954C19.465 15.2016 19.4684 15.21 19.4684 15.2187Z" fill="#E6E6E6" fill-opacity="0.8"/>
<path d="M18.405 15.1911C18.405 15.1998 18.4015 15.2082 18.3953 15.2143C18.3892 15.2205 18.3808 15.224 18.3721 15.224C18.3634 15.224 18.355 15.2205 18.3489 15.2143C18.3427 15.2082 18.3392 15.1998 18.3392 15.1911C18.3392 15.1824 18.3427 15.174 18.3489 15.1679C18.355 15.1617 18.3634 15.1582 18.3721 15.1582C18.3808 15.1582 18.3892 15.1617 18.3953 15.1679C18.4015 15.174 18.405 15.1824 18.405 15.1911Z" fill="#E6E6E6" fill-opacity="0.8"/>
<path d="M17.3982 15.2187C17.3982 15.2252 17.3963 15.2315 17.3927 15.2369C17.3891 15.2423 17.384 15.2466 17.378 15.249C17.3719 15.2515 17.3653 15.2522 17.359 15.2509C17.3526 15.2496 17.3467 15.2465 17.3421 15.2419C17.3375 15.2373 17.3344 15.2315 17.3332 15.2251C17.3319 15.2187 17.3325 15.2121 17.335 15.2061C17.3375 15.2001 17.3417 15.195 17.3471 15.1914C17.3525 15.1877 17.3589 15.1858 17.3654 15.1858C17.3741 15.1858 17.3825 15.1893 17.3886 15.1954C17.3948 15.2016 17.3982 15.21 17.3982 15.2187Z" fill="#E6E6E6" fill-opacity="0.8"/>
<path d="M16.2206 15.1582C16.2206 15.1647 16.2187 15.1711 16.2151 15.1765C16.2115 15.1819 16.2063 15.1861 16.2003 15.1886C16.1943 15.1911 16.1877 15.1917 16.1814 15.1905C16.175 15.1892 16.1691 15.1861 16.1645 15.1815C16.1599 15.1769 16.1568 15.171 16.1555 15.1646C16.1543 15.1583 16.1549 15.1517 16.1574 15.1457C16.1599 15.1396 16.1641 15.1345 16.1695 15.1309C16.1749 15.1273 16.1813 15.1254 16.1878 15.1254C16.1965 15.1254 16.2048 15.1288 16.211 15.135C16.2172 15.1412 16.2206 15.1495 16.2206 15.1582Z" fill="#E6E6E6" fill-opacity="0.8"/>
<path d="M15.1086 15.1582C15.1086 15.1669 15.1051 15.1753 15.0989 15.1815C15.0928 15.1876 15.0844 15.1911 15.0757 15.1911C15.067 15.1911 15.0586 15.1876 15.0525 15.1815C15.0463 15.1753 15.0428 15.1669 15.0428 15.1582C15.0428 15.1495 15.0463 15.1412 15.0525 15.135C15.0586 15.1288 15.067 15.1254 15.0757 15.1254C15.0844 15.1254 15.0928 15.1288 15.0989 15.135C15.1051 15.1412 15.1086 15.1495 15.1086 15.1582Z" fill="#E6E6E6" fill-opacity="0.8"/>
<path d="M13.9849 15.4421C13.9849 15.4508 13.9814 15.4592 13.9753 15.4654C13.9691 15.4715 13.9608 15.475 13.952 15.475C13.9434 15.4747 13.9353 15.4711 13.9292 15.465C13.9231 15.4589 13.9195 15.4507 13.9192 15.4421C13.9192 15.4334 13.9227 15.4251 13.9288 15.4189C13.935 15.4127 13.9433 15.4093 13.952 15.4093C13.9608 15.4093 13.9691 15.4127 13.9753 15.4189C13.9814 15.4251 13.9849 15.4334 13.9849 15.4421Z" fill="#E6E6E6" fill-opacity="0.8"/>
<path d="M12.9976 16.165C12.9976 16.1715 12.9957 16.1779 12.9921 16.1833C12.9885 16.1887 12.9833 16.1929 12.9773 16.1954C12.9713 16.1979 12.9647 16.1985 12.9583 16.1973C12.952 16.196 12.9461 16.1929 12.9415 16.1883C12.9369 16.1837 12.9338 16.1778 12.9325 16.1714C12.9312 16.1651 12.9319 16.1585 12.9344 16.1525C12.9369 16.1465 12.9411 16.1413 12.9465 16.1377C12.9519 16.1341 12.9582 16.1322 12.9647 16.1322C12.9735 16.1322 12.9818 16.1356 12.988 16.1418C12.9941 16.148 12.9976 16.1563 12.9976 16.165Z" fill="#E6E6E6" fill-opacity="0.8"/>
<path d="M12.5574 17.3007C12.5574 17.3072 12.5555 17.3135 12.5519 17.3189C12.5483 17.3243 12.5431 17.3285 12.5371 17.331C12.5311 17.3335 12.5245 17.3342 12.5181 17.3329C12.5118 17.3316 12.5059 17.3285 12.5013 17.3239C12.4967 17.3193 12.4936 17.3135 12.4923 17.3071C12.4911 17.3007 12.4917 17.2941 12.4942 17.2881C12.4967 17.2821 12.5009 17.277 12.5063 17.2733C12.5117 17.2697 12.5181 17.2678 12.5246 17.2678C12.5333 17.2678 12.5416 17.2713 12.5478 17.2774C12.554 17.2836 12.5574 17.292 12.5574 17.3007Z" fill="#E6E6E6" fill-opacity="0.8"/>
<path d="M12.6534 18.4534C12.6534 18.4621 12.6499 18.4704 12.6437 18.4766C12.6376 18.4828 12.6292 18.4862 12.6205 18.4862C12.6118 18.4862 12.6034 18.4828 12.5973 18.4766C12.5911 18.4704 12.5876 18.4621 12.5876 18.4534C12.5876 18.4447 12.5911 18.4363 12.5973 18.4301C12.6034 18.424 12.6118 18.4205 12.6205 18.4205C12.6292 18.4205 12.6376 18.424 12.6437 18.4301C12.6499 18.4363 12.6534 18.4447 12.6534 18.4534Z" fill="#E6E6E6" fill-opacity="0.8"/>
<path d="M13.1908 19.3787C13.1908 19.3852 13.1889 19.3915 13.1853 19.3969C13.1817 19.4023 13.1766 19.4066 13.1706 19.409C13.1646 19.4115 13.1579 19.4122 13.1516 19.4109C13.1452 19.4096 13.1393 19.4065 13.1347 19.4019C13.1302 19.3973 13.127 19.3915 13.1258 19.3851C13.1245 19.3787 13.1251 19.3721 13.1276 19.3661C13.1301 19.3601 13.1343 19.355 13.1397 19.3514C13.1451 19.3478 13.1515 19.3458 13.158 19.3458C13.1667 19.3458 13.1751 19.3493 13.1812 19.3554C13.1874 19.3616 13.1908 19.37 13.1908 19.3787Z" fill="#E6E6E6" fill-opacity="0.8"/>
<path d="M14.1413 20.1818C14.1413 20.1883 14.1394 20.1946 14.1357 20.2C14.1321 20.2054 14.127 20.2097 14.121 20.2121C14.115 20.2146 14.1084 20.2153 14.102 20.214C14.0956 20.2127 14.0898 20.2096 14.0852 20.205C14.0806 20.2004 14.0775 20.1946 14.0762 20.1882C14.0749 20.1818 14.0756 20.1752 14.0781 20.1692C14.0805 20.1632 14.0848 20.1581 14.0902 20.1545C14.0956 20.1509 14.1019 20.1489 14.1084 20.1489C14.1171 20.1489 14.1255 20.1524 14.1317 20.1586C14.1378 20.1647 14.1413 20.1731 14.1413 20.1818Z" fill="#E6E6E6" fill-opacity="0.8"/>
<path d="M15.4412 20.2133C15.4412 20.222 15.4377 20.2304 15.4316 20.2365C15.4254 20.2427 15.4171 20.2462 15.4083 20.2462C15.3996 20.2462 15.3913 20.2427 15.3851 20.2365C15.379 20.2304 15.3755 20.222 15.3755 20.2133C15.3755 20.2046 15.379 20.1962 15.3851 20.1901C15.3913 20.1839 15.3996 20.1805 15.4083 20.1805C15.4171 20.1805 15.4254 20.1839 15.4316 20.1901C15.4377 20.1962 15.4412 20.2046 15.4412 20.2133Z" fill="#E6E6E6" fill-opacity="0.8"/>
<path d="M16.6885 20.2475C16.6885 20.254 16.6866 20.2603 16.683 20.2657C16.6794 20.2712 16.6742 20.2754 16.6682 20.2778C16.6622 20.2803 16.6556 20.281 16.6493 20.2797C16.6429 20.2785 16.637 20.2753 16.6324 20.2707C16.6278 20.2661 16.6247 20.2603 16.6234 20.2539C16.6222 20.2475 16.6228 20.2409 16.6253 20.2349C16.6278 20.2289 16.632 20.2238 16.6374 20.2202C16.6428 20.2166 16.6492 20.2146 16.6557 20.2146C16.6644 20.2146 16.6727 20.2181 16.6789 20.2243C16.6851 20.2304 16.6885 20.2388 16.6885 20.2475Z" fill="#E6E6E6" fill-opacity="0.8"/>
<path d="M17.5519 21.9877C17.5519 21.9942 17.55 22.0006 17.5464 22.006C17.5428 22.0114 17.5376 22.0156 17.5316 22.0181C17.5256 22.0206 17.519 22.0212 17.5127 22.02C17.5063 22.0187 17.5004 22.0156 17.4958 22.011C17.4912 22.0064 17.4881 22.0005 17.4868 21.9941C17.4856 21.9878 17.4862 21.9812 17.4887 21.9751C17.4912 21.9691 17.4954 21.964 17.5008 21.9604C17.5062 21.9568 17.5126 21.9549 17.5191 21.9549C17.5278 21.9549 17.5361 21.9583 17.5423 21.9645C17.5485 21.9707 17.5519 21.979 17.5519 21.9877Z" fill="#E6E6E6" fill-opacity="0.8"/>
<path d="M17.0933 15.4816C17.0595 15.1849 17.0481 14.8861 17.0591 14.5878C17.0481 14.2894 17.0595 13.9906 17.0933 13.694C17.1272 13.9906 17.1386 14.2894 17.1275 14.5878C17.1385 14.8861 17.1271 15.1849 17.0933 15.4816Z" fill="#E6E6E6" fill-opacity="0.8"/>
<path d="M17.1327 23.1733C17.1143 23.1733 17.0985 22.4412 17.0985 21.5369C17.0985 20.6326 17.1143 19.8992 17.1327 19.8992C17.1511 19.8992 17.1682 20.6326 17.1682 21.5369C17.1682 22.4412 17.1577 23.1733 17.1327 23.1733Z" fill="#E6E6E6" fill-opacity="0.8"/>
<path d="M18.8046 19.8992C19.0801 19.8894 19.3518 19.832 19.6077 19.7296C19.9066 19.608 20.174 19.4202 20.3898 19.1802C20.5253 19.0322 20.6386 18.8653 20.7262 18.6847C20.8277 18.4839 20.8947 18.2676 20.9247 18.0446C21.0039 17.5325 20.9066 17.0088 20.6487 16.5594C20.4981 16.3061 20.2972 16.0864 20.0585 15.9137C19.8198 15.741 19.5483 15.619 19.2607 15.5552C18.9571 15.4842 18.6324 15.5144 18.3025 15.5079H15.1664C14.8162 15.5078 14.4713 15.5939 14.1621 15.7584C13.8529 15.923 13.5889 16.161 13.3933 16.4516C13.2099 16.728 13.0921 17.0427 13.0489 17.3716C13.009 17.6884 13.0313 18.0098 13.1147 18.318C13.1966 18.6006 13.336 18.8632 13.5242 19.0894C13.7124 19.3156 13.9452 19.5004 14.2082 19.6324C14.4474 19.7525 14.7068 19.8274 14.9732 19.8532L15.1638 19.8624H15.7198L17.9766 19.8729L18.5917 19.8795H18.7507C18.7686 19.8778 18.7867 19.8778 18.8046 19.8795H18.7507H18.5917L17.9766 19.886L15.7198 19.8966H15.1638L14.9693 19.8874C14.5284 19.8473 14.1098 19.6754 13.768 19.3941C13.4262 19.1128 13.177 18.735 13.0529 18.3101C12.9667 17.9935 12.9435 17.663 12.9845 17.3375C13.0278 16.9973 13.1488 16.6717 13.3381 16.3859C13.5389 16.0852 13.8109 15.8389 14.1299 15.6687C14.4488 15.4986 14.8049 15.4099 15.1664 15.4106H18.7902L19.0333 15.4224C19.1135 15.4356 19.1937 15.4448 19.2712 15.4618C19.5704 15.5313 19.8518 15.6624 20.0974 15.8469C20.343 16.0313 20.5473 16.2651 20.6973 16.5331C20.9583 16.9938 21.0543 17.5298 20.9694 18.0525C20.9382 18.2816 20.8684 18.5038 20.763 18.7097C20.672 18.8927 20.5547 19.0615 20.4147 19.2105C20.1943 19.4528 19.9208 19.6409 19.6156 19.7599C19.4238 19.8346 19.2225 19.8819 19.0175 19.9005H18.8572L18.8046 19.8992Z" fill="#E6E6E6" fill-opacity="0.8"/>
<g opacity="0.3">
<path opacity="0.3" d="M12.4903 21.0348C13.7259 22.0403 15.2045 23.0248 16.8396 23.0576C18.4913 23.0824 20.0901 22.4749 21.3085 21.3595C21.3085 21.3595 21.0877 22.963 19.5472 23.1996C18.5641 23.3534 16.8988 23.3481 15.7355 23.2903C15.0783 23.2587 14.5868 23.1825 14.4658 23.1694C14.0597 23.126 13.3329 22.9932 12.8886 22.0061C12.8202 21.8576 12.7414 21.7354 12.6954 21.6289C12.443 21.0493 12.4903 21.0348 12.4903 21.0348Z" fill="#ADBBC9"/>
</g>
<path d="M19.9377 23.1602H14.0335C13.9406 23.1602 13.8652 23.2355 13.8652 23.3284V23.3337C13.8652 23.4266 13.9406 23.5019 14.0335 23.5019H19.9377C20.0306 23.5019 20.1059 23.4266 20.1059 23.3337V23.3284C20.1059 23.2355 20.0306 23.1602 19.9377 23.1602Z" fill="#ADBBC9"/>
<path d="M16.8317 27.9484C16.7829 27.9482 16.7343 27.9415 16.6872 27.9287C16.5563 27.9005 16.4277 27.8632 16.302 27.817C15.8852 27.6654 15.5035 27.4308 15.1799 27.1274C14.8564 26.824 14.5978 26.4581 14.4198 26.0518C14.3668 25.9295 14.3228 25.8034 14.2884 25.6746C14.2721 25.6283 14.262 25.5802 14.2582 25.5313C14.27 25.5313 14.3226 25.7298 14.4672 26.0308C14.8444 26.8243 15.5072 27.4462 16.3231 27.7723C16.6319 27.8972 16.8344 27.9366 16.8317 27.9484Z" fill="#ADBBC9"/>
<path d="M19.9614 25.5418C19.9614 25.5418 21.3231 25.8927 20.888 27.0455L18.5103 29.0275C18.2696 28.8944 18.0627 28.7078 17.9052 28.4823C17.7478 28.2567 17.6441 27.9981 17.6021 27.7263L19.897 25.668" fill="#ADBBC9"/>
<path d="M17.3733 27.9524C17.3733 27.9406 17.5757 27.8998 17.8859 27.7749C18.702 27.45 19.3651 26.8283 19.7418 26.0347C19.8864 25.7337 19.939 25.5313 19.9508 25.5352C19.9469 25.5841 19.9367 25.6322 19.9206 25.6785C19.8863 25.8074 19.8424 25.9335 19.7891 26.0557C19.6111 26.462 19.3525 26.8279 19.029 27.1313C18.7055 27.4348 18.3238 27.6694 17.9069 27.8209C17.7815 27.8674 17.6528 27.9043 17.5218 27.9314C17.4735 27.9453 17.4235 27.9523 17.3733 27.9524Z" fill="#ADBBC9"/>
<path d="M17.1577 27.9826C17.1238 27.5594 17.1124 27.1347 17.1235 26.7103C17.1124 26.2854 17.1238 25.8603 17.1577 25.4367C17.1916 25.8603 17.203 26.2854 17.1918 26.7103C17.2029 27.1347 17.1915 27.5594 17.1577 27.9826Z" fill="#ADBBC9"/>
<path d="M13.5722 37.5171L12.5404 38.4503C12.5404 38.4503 12.4221 41.852 13.7233 45.0104C15.0246 48.1689 15.8737 49.0942 15.8737 49.0942L16.8502 49.0311L16.1063 37.6538L15.0364 37.4212L13.5722 37.5171Z" fill="#E6E6E6" fill-opacity="0.8"/>
<g opacity="0.3">
<path opacity="0.3" d="M14.6143 37.4567L16.2217 48.7406L16.8553 48.8155L16.1074 37.6538L15.0375 37.4212L14.6143 37.4567Z" fill="#ADBBC9"/>
</g>
<path d="M16.2219 48.7354C16.2021 48.7354 15.8275 46.2157 15.3925 43.1006C14.9574 39.9855 14.613 37.458 14.6328 37.4554C14.6525 37.4527 15.0271 39.975 15.4608 43.0914C15.8946 46.2078 16.2376 48.7354 16.2219 48.7354Z" fill="#E6E6E6" fill-opacity="0.8"/>
<path d="M15.4294 40.3562C15.4298 40.3605 15.4293 40.3649 15.4279 40.369C15.4266 40.3731 15.4245 40.3769 15.4217 40.3802C15.4189 40.3835 15.4154 40.3862 15.4116 40.3882C15.4077 40.3902 15.4035 40.3913 15.3992 40.3917C15.3903 40.392 15.3817 40.389 15.375 40.3831C15.3684 40.3772 15.3643 40.369 15.3637 40.3601C15.3635 40.3558 15.3642 40.3515 15.3657 40.3475C15.3672 40.3434 15.3694 40.3397 15.3724 40.3365C15.3753 40.3333 15.3788 40.3308 15.3827 40.329C15.3867 40.3271 15.3909 40.3261 15.3952 40.326C15.4037 40.3256 15.412 40.3285 15.4184 40.3342C15.4248 40.3398 15.4287 40.3477 15.4294 40.3562Z" fill="#E6E6E6" fill-opacity="0.8"/>
<path d="M15.7998 43.1282C15.8002 43.1368 15.7973 43.1453 15.7917 43.1519C15.7861 43.1585 15.7782 43.1627 15.7696 43.1637C15.7608 43.1641 15.7521 43.161 15.7455 43.1551C15.7389 43.1492 15.7348 43.141 15.7341 43.1321C15.7341 43.1234 15.7376 43.1151 15.7438 43.1089C15.7499 43.1028 15.7583 43.0993 15.767 43.0993C15.7757 43.0993 15.7841 43.1028 15.7902 43.1089C15.7964 43.1151 15.7998 43.1234 15.7998 43.1321V43.1282Z" fill="#E6E6E6" fill-opacity="0.8"/>
<path d="M16.1838 46.3143C16.1841 46.3186 16.1837 46.3229 16.1823 46.327C16.181 46.3312 16.1789 46.335 16.1761 46.3383C16.1732 46.3416 16.1698 46.3443 16.166 46.3463C16.1621 46.3482 16.1579 46.3494 16.1536 46.3497C16.1449 46.3501 16.1364 46.3472 16.1299 46.3416C16.1233 46.336 16.1191 46.3281 16.1181 46.3195C16.1177 46.3107 16.1208 46.302 16.1267 46.2954C16.1326 46.2888 16.1408 46.2847 16.1496 46.284C16.1581 46.2837 16.1664 46.2866 16.1728 46.2922C16.1792 46.2979 16.1831 46.3058 16.1838 46.3143Z" fill="#E6E6E6" fill-opacity="0.8"/>
<path d="M14.989 38.0889C14.9893 38.0977 14.9862 38.1064 14.9804 38.113C14.9745 38.1196 14.9663 38.1237 14.9574 38.1244C14.9487 38.1244 14.9403 38.1209 14.9342 38.1148C14.928 38.1086 14.9246 38.1002 14.9246 38.0915C14.9246 38.0828 14.928 38.0744 14.9342 38.0683C14.9403 38.0621 14.9487 38.0587 14.9574 38.0587C14.9654 38.0592 14.9729 38.0626 14.9787 38.0681C14.9844 38.0736 14.9881 38.081 14.989 38.0889Z" fill="#E6E6E6" fill-opacity="0.8"/>
<path d="M13.3171 27.0481H12.3655C12.3655 27.0481 11.1826 32.993 13.3171 35.6888H14.9811C14.9811 35.6888 15.6948 34.3403 15.6948 33.6279V29.0197L13.3171 27.0481Z" fill="#E6E6E6" fill-opacity="0.8"/>
<g opacity="0.3">
<path opacity="0.3" d="M12.6653 34.5466L14.4844 33.829V28.0155L15.6949 29.0236L15.6818 33.6121C15.6821 33.762 15.6658 33.9114 15.6332 34.0577C15.4999 34.6301 15.2782 35.1782 14.976 35.6823H13.3172C13.0482 35.3359 12.8287 34.9536 12.6653 34.5466Z" fill="#ADBBC9"/>
</g>
<path d="M14.4843 28.0155C14.4904 28.0413 14.493 28.0678 14.4922 28.0944C14.4922 28.1535 14.4922 28.2258 14.4988 28.3204C14.4988 28.5255 14.4988 28.8081 14.5093 29.1524C14.5093 29.8635 14.5159 30.8309 14.5198 31.8995C14.5198 32.6053 14.5198 33.2651 14.5198 33.829V33.85L14.5014 33.8566L13.1778 34.3653L12.8045 34.5033C12.762 34.5214 12.7181 34.5359 12.6731 34.5466C12.7152 34.5229 12.7591 34.5027 12.8045 34.4862L13.1712 34.3324L14.4856 33.8066L14.4672 33.8342C14.4672 33.2704 14.4672 32.6106 14.4672 31.9047C14.4672 30.8361 14.4751 29.8688 14.4777 29.1577C14.4777 28.8133 14.4856 28.5307 14.4883 28.3257C14.4883 28.2337 14.4883 28.1588 14.4948 28.0996C14.489 28.0719 14.4855 28.0438 14.4843 28.0155Z" fill="#E6E6E6" fill-opacity="0.8"/>
<path d="M14.7918 32.4594C14.7918 32.4659 14.7899 32.4723 14.7863 32.4777C14.7826 32.4831 14.7775 32.4873 14.7715 32.4898C14.7655 32.4922 14.7589 32.4929 14.7525 32.4916C14.7461 32.4904 14.7403 32.4872 14.7357 32.4826C14.7311 32.478 14.728 32.4722 14.7267 32.4658C14.7254 32.4594 14.7261 32.4528 14.7286 32.4468C14.7311 32.4408 14.7353 32.4357 14.7407 32.4321C14.7461 32.4285 14.7524 32.4265 14.7589 32.4265C14.7676 32.4265 14.776 32.43 14.7822 32.4362C14.7883 32.4423 14.7918 32.4507 14.7918 32.4594Z" fill="#E6E6E6" fill-opacity="0.8"/>
<path d="M13.7692 34.6281C13.7692 34.6346 13.7673 34.641 13.7637 34.6464C13.7601 34.6518 13.7549 34.656 13.7489 34.6585C13.7429 34.661 13.7363 34.6616 13.7299 34.6603C13.7236 34.6591 13.7177 34.6559 13.7131 34.6514C13.7085 34.6468 13.7054 34.6409 13.7041 34.6345C13.7029 34.6282 13.7035 34.6215 13.706 34.6155C13.7085 34.6095 13.7127 34.6044 13.7181 34.6008C13.7235 34.5972 13.7299 34.5953 13.7364 34.5953C13.7451 34.5953 13.7534 34.5987 13.7596 34.6049C13.7657 34.611 13.7692 34.6194 13.7692 34.6281Z" fill="#E6E6E6" fill-opacity="0.8"/>
<path d="M14.7918 30.6324C14.7918 30.6411 14.7883 30.6495 14.7822 30.6556C14.776 30.6618 14.7676 30.6653 14.7589 30.6653C14.7502 30.6653 14.7419 30.6618 14.7357 30.6556C14.7295 30.6495 14.7261 30.6411 14.7261 30.6324C14.7261 30.6237 14.7295 30.6153 14.7357 30.6092C14.7419 30.603 14.7502 30.5995 14.7589 30.5995C14.7676 30.5995 14.776 30.603 14.7822 30.6092C14.7883 30.6153 14.7918 30.6237 14.7918 30.6324Z" fill="#E6E6E6" fill-opacity="0.8"/>
<path d="M14.7918 28.8041C14.7918 28.8106 14.7899 28.817 14.7863 28.8224C14.7826 28.8278 14.7775 28.832 14.7715 28.8345C14.7655 28.8369 14.7589 28.8376 14.7525 28.8363C14.7461 28.8351 14.7403 28.8319 14.7357 28.8273C14.7311 28.8227 14.728 28.8169 14.7267 28.8105C14.7254 28.8041 14.7261 28.7975 14.7286 28.7915C14.7311 28.7855 14.7353 28.7804 14.7407 28.7768C14.7461 28.7732 14.7524 28.7712 14.7589 28.7712C14.7676 28.7712 14.776 28.7747 14.7822 28.7809C14.7883 28.787 14.7918 28.7954 14.7918 28.8041Z" fill="#E6E6E6" fill-opacity="0.8"/>
<path d="M14.5512 35.6363H13.8086C13.3121 35.6363 12.9095 36.0388 12.9095 36.5353V36.5721C12.9095 37.0686 13.3121 37.4711 13.8086 37.4711H14.5512C15.0477 37.4711 15.4502 37.0686 15.4502 36.5721V36.5353C15.4502 36.0388 15.0477 35.6363 14.5512 35.6363Z" fill="#ADBBC9"/>
<path d="M13.9677 37.4632C13.9677 37.4632 13.9388 37.4632 13.8954 37.4448C13.835 37.4107 13.7847 37.3613 13.7495 37.3016C13.6546 37.101 13.6095 36.8805 13.6181 36.6588C13.6143 36.4392 13.6481 36.2205 13.718 36.0122C13.7398 35.9236 13.7786 35.8401 13.8323 35.7664C13.7433 36.0554 13.6942 36.3552 13.6864 36.6575C13.68 36.8697 13.7176 37.081 13.7969 37.2779C13.8361 37.354 13.8951 37.418 13.9677 37.4632Z" fill="#ADBBC9"/>
<path d="M17.4207 50.8384C17.4207 50.5624 17.4207 49.7869 17.3406 49.524C17.2759 49.2514 17.1063 49.0152 16.8687 48.8668C16.6734 48.7798 16.4604 48.7401 16.2468 48.7508C16.0333 48.7615 15.8253 48.8224 15.6397 48.9286C15.5083 49.0332 15.4034 49.1674 15.3335 49.3201C15.2636 49.4729 15.2307 49.64 15.2375 49.8079L15.181 50.8305" fill="#ADBBC9"/>
<path d="M15.2466 49.7698C15.3406 49.8228 15.4421 49.8613 15.5476 49.8841C16.0495 50.0241 16.5764 50.0492 17.0893 49.9577C17.1965 49.9453 17.3011 49.9165 17.3995 49.8723C17.041 49.9197 16.6795 49.9412 16.3178 49.9367C15.9572 49.9068 15.5992 49.851 15.2466 49.7698Z" fill="#ADBBC9"/>
<path d="M20.6054 37.3003L21.695 38.1638C21.695 38.1638 22.0328 41.5457 20.9432 44.7764C19.8536 48.0072 19.065 48.9825 19.065 48.9825H18.0884V37.5999L19.1399 37.2989L20.6054 37.3003Z" fill="#E6E6E6" fill-opacity="0.8"/>
<g opacity="0.3">
<path opacity="0.3" d="M19.5881 37.3502L18.7153 48.7143L18.0884 48.8313L18.1107 37.6433L19.1635 37.3423L19.5881 37.3502Z" fill="#ADBBC9"/>
</g>
<path d="M18.7245 48.7143C18.7061 48.7143 18.8822 46.1697 19.1188 43.0323C19.3554 39.8948 19.5617 37.3542 19.5801 37.3555C19.5985 37.3568 19.4237 39.9001 19.1858 43.0375C18.9479 46.175 18.7442 48.7157 18.7245 48.7143Z" fill="#E6E6E6" fill-opacity="0.8"/>
<path d="M18.9492 40.3089C18.9492 40.3253 18.9557 40.341 18.9673 40.3526C18.9789 40.3641 18.9946 40.3706 19.011 40.3706C19.0274 40.3706 19.0431 40.3641 19.0547 40.3526C19.0663 40.341 19.0728 40.3253 19.0728 40.3089C19.0728 40.2925 19.0663 40.2768 19.0547 40.2652C19.0431 40.2536 19.0274 40.2471 19.011 40.2471C18.9946 40.2471 18.9789 40.2536 18.9673 40.2652C18.9557 40.2768 18.9492 40.2925 18.9492 40.3089Z" fill="#E6E6E6" fill-opacity="0.8"/>
<path d="M18.7035 43.1374C18.7032 43.1497 18.7066 43.1618 18.7133 43.1721C18.7199 43.1824 18.7295 43.1905 18.7407 43.1954C18.752 43.2003 18.7644 43.2017 18.7765 43.1995C18.7886 43.1972 18.7997 43.1915 18.8085 43.1829C18.8172 43.1743 18.8233 43.1633 18.8258 43.1513C18.8282 43.1393 18.8271 43.1268 18.8225 43.1154C18.8178 43.104 18.8099 43.0943 18.7997 43.0875C18.7895 43.0806 18.7776 43.077 18.7653 43.077C18.7491 43.077 18.7336 43.0833 18.7221 43.0946C18.7105 43.1059 18.7038 43.1213 18.7035 43.1374Z" fill="#E6E6E6" fill-opacity="0.8"/>
<path d="M18.5798 46.3353C18.5798 46.3475 18.5835 46.3595 18.5902 46.3696C18.597 46.3798 18.6067 46.3877 18.618 46.3924C18.6293 46.3971 18.6417 46.3983 18.6537 46.3959C18.6656 46.3935 18.6767 46.3876 18.6853 46.379C18.6939 46.3703 18.6998 46.3593 18.7022 46.3474C18.7046 46.3354 18.7034 46.323 18.6987 46.3117C18.694 46.3004 18.6861 46.2907 18.6759 46.2839C18.6658 46.2772 18.6538 46.2735 18.6416 46.2735C18.6252 46.2735 18.6095 46.28 18.5979 46.2916C18.5863 46.3032 18.5798 46.3189 18.5798 46.3353Z" fill="#E6E6E6" fill-opacity="0.8"/>
<path d="M19.195 37.9719C19.1947 37.9842 19.1981 37.9962 19.2047 38.0066C19.2114 38.0169 19.2209 38.025 19.2322 38.0299C19.2434 38.0348 19.2559 38.0362 19.268 38.034C19.28 38.0317 19.2912 38.0259 19.2999 38.0174C19.3087 38.0088 19.3147 37.9978 19.3172 37.9858C19.3197 37.9737 19.3186 37.9613 19.3139 37.9499C19.3093 37.9385 19.3014 37.9288 19.2912 37.9219C19.281 37.9151 19.269 37.9114 19.2567 37.9114C19.2406 37.9114 19.2251 37.9178 19.2135 37.9291C19.202 37.9404 19.1953 37.9557 19.195 37.9719Z" fill="#E6E6E6" fill-opacity="0.8"/>
<path d="M20.8263 26.9653H21.7753C21.7753 26.9653 22.9582 32.8892 20.8263 35.5745H19.1688C19.1688 35.5745 18.4578 34.2312 18.4578 33.5214V28.9395L20.8263 26.9653Z" fill="#E6E6E6" fill-opacity="0.8"/>
<g opacity="0.3">
<path opacity="0.3" d="M21.5374 34.4389L19.6867 33.7212V27.9077L18.4578 28.9158L18.4722 33.5017C18.4728 33.6538 18.49 33.8054 18.5235 33.9538C18.6567 34.525 18.8784 35.0718 19.1807 35.5745H20.8736C21.1471 35.229 21.3705 34.8467 21.5374 34.4389Z" fill="#ADBBC9"/>
</g>
<path d="M19.6865 27.9498C19.6926 27.9756 19.6952 28.0021 19.6944 28.0286C19.6944 28.0878 19.6944 28.1601 19.701 28.2547C19.701 28.4611 19.7009 28.7423 19.7115 29.088C19.7115 29.7991 19.7115 30.7678 19.7207 31.8364C19.7207 32.5435 19.7207 33.2047 19.7207 33.7698L19.7023 33.7422L21.0166 34.268L21.3834 34.4218C21.4288 34.4376 21.4728 34.4574 21.5148 34.4809C21.4697 34.4714 21.4256 34.4573 21.3834 34.4389L21.0101 34.2995L19.6865 33.7922L19.6681 33.7843V33.7646C19.6681 33.1994 19.6681 32.5383 19.6681 31.8311C19.6681 30.7625 19.676 29.7938 19.6786 29.0828C19.6786 28.7371 19.6865 28.4558 19.6891 28.2494C19.6891 28.1574 19.6891 28.0825 19.6957 28.0234C19.6909 27.9991 19.6878 27.9745 19.6865 27.9498Z" fill="#E6E6E6" fill-opacity="0.8"/>
<path d="M19.3185 32.437C19.3185 32.4493 19.3221 32.4613 19.329 32.4715C19.3358 32.4817 19.3456 32.4896 19.3569 32.4942C19.3683 32.4989 19.3808 32.5 19.3928 32.4975C19.4048 32.495 19.4158 32.489 19.4244 32.4802C19.433 32.4715 19.4388 32.4603 19.441 32.4483C19.4432 32.4362 19.4418 32.4237 19.4369 32.4125C19.4321 32.4012 19.4239 32.3917 19.4136 32.385C19.4033 32.3784 19.3912 32.375 19.3789 32.3753C19.3628 32.3756 19.3474 32.3823 19.3361 32.3938C19.3248 32.4054 19.3185 32.4209 19.3185 32.437Z" fill="#E6E6E6" fill-opacity="0.8"/>
<path d="M20.3016 34.5295C20.3016 34.5418 20.3053 34.5537 20.312 34.5639C20.3188 34.574 20.3285 34.5819 20.3398 34.5866C20.3511 34.5913 20.3635 34.5925 20.3755 34.5901C20.3874 34.5878 20.3985 34.5819 20.4071 34.5732C20.4157 34.5646 20.4216 34.5536 20.424 34.5416C20.4264 34.5296 20.4252 34.5172 20.4205 34.5059C20.4158 34.4946 20.4079 34.485 20.3977 34.4782C20.3876 34.4714 20.3756 34.4678 20.3634 34.4678C20.347 34.4678 20.3313 34.4743 20.3197 34.4859C20.3081 34.4974 20.3016 34.5132 20.3016 34.5295Z" fill="#E6E6E6" fill-opacity="0.8"/>
<path d="M19.3185 30.5969C19.3172 30.6057 19.3179 30.6146 19.3203 30.6232C19.3228 30.6317 19.3271 30.6396 19.3329 30.6463C19.3387 30.653 19.3459 30.6584 19.3539 30.6621C19.362 30.6658 19.3708 30.6677 19.3796 30.6677C19.3885 30.6677 19.3973 30.6658 19.4054 30.6621C19.4134 30.6584 19.4206 30.653 19.4264 30.6463C19.4322 30.6396 19.4365 30.6317 19.439 30.6232C19.4414 30.6146 19.4421 30.6057 19.4408 30.5969C19.4386 30.5822 19.4312 30.5688 19.42 30.5592C19.4088 30.5495 19.3945 30.5441 19.3796 30.5441C19.3648 30.5441 19.3505 30.5495 19.3393 30.5592C19.328 30.5688 19.3207 30.5822 19.3185 30.5969Z" fill="#E6E6E6" fill-opacity="0.8"/>
<path d="M19.3185 28.7489C19.3185 28.7612 19.3221 28.7732 19.329 28.7834C19.3358 28.7935 19.3456 28.8015 19.3569 28.8061C19.3683 28.8107 19.3808 28.8119 19.3928 28.8094C19.4048 28.8069 19.4158 28.8009 19.4244 28.7921C19.433 28.7833 19.4388 28.7722 19.441 28.7601C19.4432 28.7481 19.4418 28.7356 19.4369 28.7243C19.4321 28.7131 19.4239 28.7035 19.4136 28.6969C19.4033 28.6903 19.3912 28.6869 19.3789 28.6871C19.3628 28.6875 19.3474 28.6941 19.3361 28.7057C19.3248 28.7172 19.3185 28.7327 19.3185 28.7489Z" fill="#E6E6E6" fill-opacity="0.8"/>
<path d="M19.6077 37.2963H20.3818C20.8813 37.2963 21.2861 36.8915 21.2861 36.392V36.3552C21.2861 35.8558 20.8813 35.4509 20.3818 35.4509H19.6077C19.1082 35.4509 18.7034 35.8558 18.7034 36.3552V36.392C18.7034 36.8915 19.1082 37.2963 19.6077 37.2963Z" fill="#ADBBC9"/>
<path d="M20.1625 37.3423C20.2368 37.2975 20.2976 37.2335 20.3386 37.157C20.4171 36.9603 20.4546 36.7496 20.449 36.5379C20.4405 36.2351 20.391 35.9349 20.3018 35.6454C20.3557 35.7193 20.3949 35.8027 20.4175 35.8912C20.4861 36.0998 20.5198 36.3183 20.5174 36.5379C20.5262 36.7596 20.4811 36.9802 20.3859 37.1806C20.3512 37.2408 20.3008 37.2903 20.24 37.3239C20.1914 37.3449 20.1638 37.3463 20.1625 37.3423Z" fill="#ADBBC9"/>
<path d="M17.2971 50.8173C17.2971 50.5413 17.2971 49.7737 17.3773 49.503C17.4419 49.2299 17.612 48.9936 17.8505 48.8458C18.0458 48.7588 18.2588 48.719 18.4723 48.7298C18.6859 48.7405 18.8938 48.8014 19.0794 48.9075C19.2108 49.0118 19.3157 49.1458 19.3854 49.2984C19.455 49.451 19.4876 49.6179 19.4803 49.7855L19.5381 50.8081" fill="#ADBBC9"/>
<path d="M19.7142 49.729C19.6201 49.7817 19.5186 49.8202 19.4132 49.8434C18.9114 49.9833 18.3844 50.0085 17.8715 49.917C17.7644 49.9039 17.6599 49.8751 17.5613 49.8315C17.5613 49.8079 18.0437 49.9262 18.643 49.8946C19.0036 49.8655 19.3617 49.8102 19.7142 49.729Z" fill="#ADBBC9"/>
<path d="M12.7506 14.8073C12.7506 14.8073 11.2811 14.6982 11.0971 16.1703C10.9131 17.6424 12.2419 17.6372 12.2419 17.6372L12.7506 14.8073Z" fill="#ADBBC9"/>
<path d="M6.83447 20.2094L8.50242 21.2898L11.5386 18.1642L11.7897 14.5181L10.1217 15.3041L6.83447 20.2094Z" fill="#E6E6E6" fill-opacity="0.8"/>
<g opacity="0.3">
<path opacity="0.3" d="M11.5387 18.1642L8.50249 21.2898L7.80981 20.8416L11.6465 16.6067L11.5387 18.1642Z" fill="#ADBBC9"/>
</g>
<path d="M11.6189 16.6198C11.6334 16.633 10.8934 17.4715 9.96807 18.4928C9.04275 19.5141 8.28041 20.3329 8.26726 20.3198C8.25412 20.3066 8.99149 19.4681 9.91812 18.4468C10.8448 17.4255 11.6045 16.6067 11.6189 16.6198Z" fill="#E6E6E6" fill-opacity="0.8"/>
<path d="M9.05583 20.0517C9.05551 20.0603 9.05194 20.0684 9.04585 20.0745C9.03975 20.0806 9.03158 20.0842 9.02297 20.0845C9.01426 20.0845 9.0059 20.0811 8.99974 20.0749C8.99357 20.0687 8.99011 20.0604 8.99011 20.0517C8.99011 20.0429 8.99357 20.0346 8.99974 20.0284C9.0059 20.0223 9.01426 20.0188 9.02297 20.0188C9.03169 20.0188 9.04004 20.0223 9.04621 20.0284C9.05237 20.0346 9.05583 20.0429 9.05583 20.0517Z" fill="#E6E6E6" fill-opacity="0.8"/>
<path d="M9.94304 19.0475C9.94304 19.054 9.94111 19.0603 9.9375 19.0657C9.93389 19.0711 9.92876 19.0753 9.92275 19.0778C9.91675 19.0803 9.91014 19.081 9.90377 19.0797C9.89739 19.0784 9.89154 19.0753 9.88694 19.0707C9.88235 19.0661 9.87922 19.0603 9.87795 19.0539C9.87668 19.0475 9.87733 19.0409 9.87982 19.0349C9.88231 19.0289 9.88652 19.0238 9.89192 19.0202C9.89733 19.0165 9.90368 19.0146 9.91018 19.0146C9.91889 19.0146 9.92725 19.0181 9.93341 19.0242C9.93958 19.0304 9.94304 19.0388 9.94304 19.0475Z" fill="#E6E6E6" fill-opacity="0.8"/>
<path d="M10.8302 18.0433C10.8302 18.0498 10.8283 18.0561 10.8247 18.0616C10.8211 18.067 10.816 18.0712 10.81 18.0737C10.804 18.0761 10.7973 18.0768 10.791 18.0755C10.7846 18.0743 10.7787 18.0711 10.7742 18.0665C10.7696 18.0619 10.7664 18.0561 10.7652 18.0497C10.7639 18.0433 10.7645 18.0367 10.767 18.0307C10.7695 18.0247 10.7737 18.0196 10.7791 18.016C10.7845 18.0124 10.7909 18.0104 10.7974 18.0104C10.8061 18.0104 10.8145 18.0139 10.8206 18.0201C10.8268 18.0262 10.8302 18.0346 10.8302 18.0433Z" fill="#E6E6E6" fill-opacity="0.8"/>
<path d="M7.41166 22.7829C8.16588 22.7829 8.7773 22.1715 8.7773 21.4173C8.7773 20.6631 8.16588 20.0517 7.41166 20.0517C6.65744 20.0517 6.04602 20.6631 6.04602 21.4173C6.04602 22.1715 6.65744 22.7829 7.41166 22.7829Z" fill="#ADBBC9"/>
<path d="M8.72602 21.5369L12.3222 26.0045L11.6847 26.8378L6.22344 23.193L6 21.345L8.72602 21.5369Z" fill="#E6E6E6" fill-opacity="0.8"/>
<g opacity="0.3">
<path opacity="0.3" d="M11.0788 26.4343L11.1878 25.3841L7.87561 21.4764L8.72601 21.5369L12.3222 26.0045L11.6847 26.8378L11.0788 26.4343Z" fill="#ADBBC9"/>
</g>
<path d="M11.0788 26.4343C11.0753 26.4099 11.0753 26.3851 11.0788 26.3607C11.0788 26.3042 11.088 26.2292 11.0945 26.1504C11.1103 25.9572 11.134 25.6969 11.1616 25.3815L11.1681 25.4012L9.84718 23.8555C9.29514 23.1983 8.79568 22.6134 8.44211 22.1823L8.02282 21.671L7.9111 21.529C7.89708 21.5131 7.88516 21.4954 7.87561 21.4764C7.87561 21.4764 7.89401 21.4909 7.92161 21.5198C7.94921 21.5487 7.99522 21.6 8.04254 21.6513L8.47891 22.1481C8.84562 22.5713 9.34772 23.1575 9.89844 23.8082C10.4005 24.4049 10.8566 24.949 11.2128 25.3644L11.2194 25.3736V25.3841C11.1826 25.6995 11.151 25.9585 11.1287 26.1504C11.1182 26.2345 11.1077 26.3028 11.1011 26.3594C11.0971 26.3852 11.0896 26.4105 11.0788 26.4343Z" fill="#E6E6E6" fill-opacity="0.8"/>
<path d="M10.2454 23.9225C10.2454 23.929 10.2435 23.9354 10.2399 23.9408C10.2363 23.9462 10.2311 23.9504 10.2251 23.9529C10.2191 23.9554 10.2125 23.956 10.2061 23.9547C10.1998 23.9535 10.1939 23.9503 10.1893 23.9457C10.1847 23.9411 10.1816 23.9353 10.1803 23.9289C10.1791 23.9225 10.1797 23.9159 10.1822 23.9099C10.1847 23.9039 10.1889 23.8988 10.1943 23.8952C10.1997 23.8916 10.206 23.8896 10.2125 23.8896C10.2213 23.8896 10.2296 23.8931 10.2358 23.8993C10.2419 23.9054 10.2454 23.9138 10.2454 23.9225Z" fill="#E6E6E6" fill-opacity="0.8"/>
<path d="M11.1115 24.8873C11.1115 24.8938 11.1096 24.9001 11.106 24.9055C11.1023 24.9109 11.0972 24.9151 11.0912 24.9176C11.0852 24.9201 11.0786 24.9208 11.0722 24.9195C11.0659 24.9182 11.06 24.9151 11.0554 24.9105C11.0508 24.9059 11.0477 24.9 11.0464 24.8937C11.0451 24.8873 11.0458 24.8807 11.0483 24.8747C11.0508 24.8687 11.055 24.8635 11.0604 24.8599C11.0658 24.8563 11.0721 24.8544 11.0786 24.8544C11.0874 24.8544 11.0957 24.8579 11.1019 24.864C11.108 24.8702 11.1115 24.8785 11.1115 24.8873Z" fill="#E6E6E6" fill-opacity="0.8"/>
<path d="M9.4987 23.0103C9.4987 23.0168 9.49678 23.0232 9.49316 23.0286C9.48955 23.034 9.48442 23.0382 9.47842 23.0407C9.47241 23.0432 9.46581 23.0438 9.45943 23.0425C9.45306 23.0413 9.4472 23.0382 9.44261 23.0336C9.43801 23.029 9.43488 23.0231 9.43361 23.0167C9.43235 23.0104 9.433 23.0038 9.43548 22.9977C9.43797 22.9917 9.44218 22.9866 9.44759 22.983C9.45299 22.9794 9.45934 22.9775 9.46584 22.9775C9.47456 22.9775 9.48292 22.9809 9.48908 22.9871C9.49524 22.9932 9.4987 23.0016 9.4987 23.0103Z" fill="#E6E6E6" fill-opacity="0.8"/>
<path d="M8.74577 22.1849C8.74577 22.1914 8.74385 22.1977 8.74024 22.2031C8.73662 22.2085 8.73149 22.2128 8.72549 22.2152C8.71948 22.2177 8.71288 22.2184 8.7065 22.2171C8.70013 22.2158 8.69427 22.2127 8.68968 22.2081C8.68508 22.2035 8.68195 22.1977 8.68069 22.1913C8.67942 22.1849 8.68007 22.1783 8.68255 22.1723C8.68504 22.1663 8.68925 22.1612 8.69466 22.1576C8.70006 22.154 8.70641 22.152 8.71291 22.152C8.72163 22.152 8.72999 22.1555 8.73615 22.1616C8.74231 22.1678 8.74577 22.1762 8.74577 22.1849Z" fill="#E6E6E6" fill-opacity="0.8"/>
<path d="M27.9079 13.2708L28.4271 15.1897L24.5234 17.1271L22.9185 16.7315L22.2324 14.9032L27.9079 13.2708Z" fill="#E6E6E6" fill-opacity="0.8"/>
<g opacity="0.3">
<path opacity="0.3" d="M24.5234 17.1272L28.4271 15.1898L28.2116 14.3932L23.0079 16.7539L24.5234 17.1272Z" fill="#ADBBC9"/>
</g>
<path d="M23.0291 16.7315C23.0212 16.7144 24.0333 16.2386 25.2885 15.6682C26.5437 15.0978 27.5677 14.6522 27.5755 14.6693C27.5834 14.6864 26.5727 15.1622 25.3161 15.7313C24.0596 16.3004 23.037 16.7486 23.0291 16.7315Z" fill="#E6E6E6" fill-opacity="0.8"/>
<path d="M27.08 15.3383C27.0883 15.3409 27.0974 15.3401 27.1052 15.336C27.1129 15.3319 27.1188 15.325 27.1214 15.3166C27.124 15.3082 27.1232 15.2992 27.1191 15.2914C27.115 15.2836 27.1081 15.2778 27.0997 15.2752C27.0913 15.2726 27.0823 15.2734 27.0745 15.2773C27.0666 15.2812 27.0606 15.288 27.0576 15.2962C27.0552 15.3048 27.0561 15.3139 27.0603 15.3218C27.0644 15.3296 27.0715 15.3356 27.08 15.3383Z" fill="#E6E6E6" fill-opacity="0.8"/>
<path d="M25.8523 15.8759C25.8585 15.8779 25.8652 15.8781 25.8715 15.8764C25.8778 15.8746 25.8834 15.871 25.8877 15.8661C25.8919 15.8611 25.8946 15.855 25.8953 15.8485C25.8961 15.842 25.8949 15.8354 25.8919 15.8296C25.8889 15.8238 25.8842 15.819 25.8785 15.8159C25.8728 15.8127 25.8662 15.8114 25.8597 15.812C25.8532 15.8126 25.847 15.8151 25.842 15.8192C25.8369 15.8233 25.8332 15.8289 25.8313 15.8351C25.8288 15.8433 25.8296 15.8521 25.8335 15.8598C25.8374 15.8674 25.8442 15.8731 25.8523 15.8759Z" fill="#E6E6E6" fill-opacity="0.8"/>
<path d="M24.6248 16.4148C24.6289 16.4162 24.6333 16.4168 24.6376 16.4165C24.642 16.4162 24.6463 16.4151 24.6502 16.4131C24.6541 16.4111 24.6576 16.4084 24.6605 16.4051C24.6633 16.4018 24.6655 16.3979 24.6668 16.3937C24.6694 16.3854 24.6686 16.3763 24.6647 16.3685C24.6608 16.3607 24.654 16.3547 24.6458 16.3517C24.6416 16.3503 24.6371 16.3497 24.6326 16.3501C24.6282 16.3505 24.6239 16.3517 24.62 16.3538C24.616 16.3559 24.6126 16.3588 24.6098 16.3622C24.607 16.3657 24.6049 16.3697 24.6037 16.374C24.6012 16.3822 24.602 16.391 24.606 16.3987C24.6099 16.4063 24.6166 16.412 24.6248 16.4148Z" fill="#E6E6E6" fill-opacity="0.8"/>
<path d="M21.2415 14.9768C21.2415 14.9768 22.7109 14.8677 22.8949 16.3385C23.079 17.8093 21.7501 17.8054 21.7501 17.8054L21.2415 14.9768Z" fill="#ADBBC9"/>
<path d="M29.5213 15.3987C30.188 15.046 30.4425 14.2196 30.0898 13.5529C29.7372 12.8863 28.9108 12.6317 28.2441 12.9844C27.5774 13.3371 27.3229 14.1635 27.6756 14.8301C28.0283 15.4968 28.8546 15.7514 29.5213 15.3987Z" fill="#ADBBC9"/>
<path d="M30.3738 12.7555L30.2765 7.02088L29.2526 6.78824L27.3901 13.0854L29.7678 13.3168L30.3738 12.7555Z" fill="#E6E6E6" fill-opacity="0.8"/>
<g opacity="0.3">
<path opacity="0.3" d="M29.0464 7.48749L29.8008 8.22486L29.7588 13.3457L30.3739 12.7555L30.2766 7.02088L29.2527 6.78824L29.0464 7.48749Z" fill="#ADBBC9"/>
</g>
<path d="M29.0464 7.48749C29.0464 7.48749 29.0674 7.50195 29.1042 7.53349L29.2593 7.67544L29.8193 8.2012H29.8271V8.21302C29.8271 8.75718 29.8271 9.46694 29.8193 10.2464C29.8114 11.0994 29.8009 11.8709 29.7903 12.4296L29.7746 13.0867C29.7746 13.1577 29.768 13.2182 29.7667 13.2668C29.7674 13.2877 29.7647 13.3086 29.7588 13.3286C29.7538 13.3084 29.7516 13.2876 29.7522 13.2668C29.7522 13.2169 29.7522 13.1577 29.7522 13.0867C29.7522 12.9185 29.7522 12.6924 29.7522 12.4296C29.7522 11.8709 29.7522 11.0981 29.7601 10.2451C29.7706 9.46694 29.7798 8.75586 29.7864 8.21302L29.7943 8.23143L29.2501 7.68464L29.1042 7.53218C29.0609 7.50852 29.0438 7.4888 29.0464 7.48749Z" fill="#E6E6E6" fill-opacity="0.8"/>
<path d="M30.0136 9.95064C30.0106 9.94746 30.0069 9.94493 30.0028 9.9432C29.9987 9.94147 29.9944 9.94058 29.99 9.94058C29.9855 9.94058 29.9812 9.94147 29.9771 9.9432C29.973 9.94493 29.9694 9.94746 29.9663 9.95064C29.9603 9.95678 29.9569 9.96504 29.9569 9.97364C29.9569 9.98224 29.9603 9.9905 29.9663 9.99664C29.9693 9.99978 29.9728 10.0023 29.9768 10.004C29.9807 10.0057 29.985 10.0066 29.9893 10.0066C29.9936 10.0066 29.9979 10.0057 30.0018 10.004C30.0058 10.0023 30.0094 9.99978 30.0123 9.99664C30.0185 9.99067 30.0221 9.98251 30.0224 9.97391C30.0226 9.96531 30.0195 9.95695 30.0136 9.95064Z" fill="#E6E6E6" fill-opacity="0.8"/>
<path d="M29.9966 8.64677C30.0004 8.6445 30.0045 8.64304 30.0089 8.64248C30.0132 8.64191 30.0176 8.64226 30.0219 8.64349C30.0261 8.64473 30.03 8.64683 30.0333 8.64966C30.0367 8.65249 30.0394 8.65598 30.0413 8.65992C30.0455 8.66759 30.0464 8.6766 30.044 8.68499C30.0415 8.69337 30.0358 8.70042 30.0282 8.70461C30.0205 8.70879 30.0115 8.70976 30.0031 8.70729C29.9947 8.70483 29.9876 8.69913 29.9835 8.69146C29.9796 8.68373 29.9788 8.67483 29.9812 8.66653C29.9837 8.65824 29.9892 8.65118 29.9966 8.64677Z" fill="#E6E6E6" fill-opacity="0.8"/>
<path d="M30.0242 11.1296C30.0212 11.1264 30.0175 11.1239 30.0134 11.1222C30.0094 11.1205 30.005 11.1196 30.0006 11.1196C29.9962 11.1196 29.9918 11.1205 29.9877 11.1222C29.9837 11.1239 29.98 11.1264 29.9769 11.1296C29.9709 11.1358 29.9675 11.144 29.9675 11.1526C29.9675 11.1612 29.9709 11.1695 29.9769 11.1756C29.9833 11.1817 29.9918 11.1851 30.0006 11.1851C30.0094 11.1851 30.0179 11.1817 30.0242 11.1756C30.0303 11.1695 30.0336 11.1612 30.0336 11.1526C30.0336 11.144 30.0303 11.1358 30.0242 11.1296Z" fill="#E6E6E6" fill-opacity="0.8"/>
<path d="M12.2682 25.417L12.6835 25.4932L13.0384 25.8678L12.907 26.1464L13.1435 26.8601C13.1435 26.8601 13.1606 27.0849 13.0003 27.123L12.8399 27.1611C12.8399 27.1611 12.8741 27.3517 12.627 27.4345L12.276 27.5515C12.276 27.5515 12.1512 27.7368 12.0289 27.633C11.9067 27.5292 11.8213 27.5725 11.8213 27.5725C11.8213 27.5725 11.6399 27.6764 11.5492 27.6199C11.4585 27.5633 11.0366 26.6446 11.0366 26.6446L10.8486 26.4974L11.8936 25.3289L12.0684 25.4682L12.2682 25.417Z" fill="#ADBBC9"/>
<path d="M11.7806 25.2479L10.6969 26.3316C10.6281 26.4004 10.6281 26.5119 10.6969 26.5807L10.7016 26.5853C10.7704 26.6541 10.8819 26.6541 10.9507 26.5853L12.0343 25.5016C12.1031 25.4329 12.1031 25.3213 12.0343 25.2526L12.0297 25.2479C11.9609 25.1791 11.8494 25.1791 11.7806 25.2479Z" fill="#ADBBC9"/>
<path d="M12.0527 25.4906C11.8912 25.6966 11.7127 25.8887 11.519 26.0649C11.3406 26.2568 11.1458 26.4327 10.9368 26.5907C11.0979 26.3843 11.2764 26.1921 11.4704 26.0163C11.6485 25.8241 11.8434 25.6482 12.0527 25.4906Z" fill="#ADBBC9"/>
<path d="M30.4789 6.98409L30.6432 5.94836L30.9574 4.93629C30.9574 4.93629 31.0362 4.67341 30.8706 4.67341C30.705 4.67341 30.3133 5.46204 30.3133 5.46204C30.3133 5.46204 30.6077 4.54197 30.5762 4.35139C30.5447 4.1608 30.4526 4.16343 30.3357 4.27647C30.2187 4.38951 29.9414 5.0651 29.9414 5.0651C29.9414 5.0651 30.0412 4.15818 29.9414 4.06617C29.8415 3.97416 29.7455 3.97811 29.6969 4.078C29.6482 4.17789 29.5431 4.99806 29.53 5.0375C29.5168 5.07693 29.3985 4.26858 29.2736 4.24887C29.1488 4.22915 29.0371 4.20549 29.0541 4.47757C29.0712 4.74965 29.016 5.5501 29.016 5.5501C29.016 5.5501 28.786 4.94155 28.6217 4.89291C28.4272 4.83245 28.4035 4.9284 28.5061 5.26751C28.6283 5.67366 28.6033 5.76829 28.6033 5.76829C28.6033 5.76829 28.7742 6.39525 28.8425 6.86843L30.4789 6.98409Z" fill="#ADBBC9"/>
<path d="M29.0082 5.83928C29.0082 5.83928 29.0621 5.83139 29.1396 5.83008C29.2485 5.82745 29.3561 5.85424 29.4511 5.90763C29.5454 5.96176 29.6238 6.03972 29.6785 6.1337C29.7206 6.20599 29.735 6.25725 29.7416 6.25594C29.74 6.20964 29.7269 6.16446 29.7035 6.1245C29.653 6.01977 29.5716 5.93302 29.4703 5.87592C29.3691 5.81882 29.2527 5.7941 29.137 5.80511C29.0919 5.80601 29.0478 5.81773 29.0082 5.83928Z" fill="#ADBBC9"/>
<path d="M29.9071 6.24147C29.915 6.24936 29.9925 6.17181 30.1029 6.09689C30.1743 6.05724 30.2432 6.01335 30.3093 5.96545C30.2258 5.97773 30.1469 6.01172 30.0806 6.06403C30.0076 6.10612 29.9475 6.16751 29.9071 6.24147Z" fill="#ADBBC9"/>
<path d="M28.878 7.16415H30.4105C30.5078 7.16415 30.5867 7.0853 30.5867 6.98803V6.98146C30.5867 6.88418 30.5078 6.80533 30.4105 6.80533H28.878C28.7807 6.80533 28.7019 6.88418 28.7019 6.98146V6.98803C28.7019 7.0853 28.7807 7.16415 28.878 7.16415Z" fill="#ADBBC9"/>
<path d="M28.8557 6.80663C29.1171 6.77273 29.3811 6.76305 29.6443 6.77771C29.9079 6.76718 30.1718 6.78038 30.433 6.81714C30.1714 6.84932 29.9076 6.85899 29.6443 6.84606C29.3808 6.85499 29.117 6.8418 28.8557 6.80663Z" fill="#ADBBC9"/>
</g>
<defs>
<filter id="filter0_d" x="0.963201" y="0.642134" width="35.0497" height="56.912" filterUnits="userSpaceOnUse" color-interpolation-filters="sRGB">
<feFlood flood-opacity="0" result="BackgroundImageFix"/>
<feColorMatrix in="SourceAlpha" type="matrix" values="0 0 0 0 0 0 0 0 0 0 0 0 0 0 0 0 0 0 127 0" result="hardAlpha"/>
<feOffset dy="1.67893"/>
<feGaussianBlur stdDeviation="2.5184"/>
<feComposite in2="hardAlpha" operator="out"/>
<feColorMatrix type="matrix" values="0 0 0 0 0.101961 0 0 0 0 0.101961 0 0 0 0 0.101961 0 0 0 0.07 0"/>
<feBlend mode="normal" in2="BackgroundImageFix" result="effect1_dropShadow"/>
<feBlend mode="normal" in="SourceGraphic" in2="effect1_dropShadow" result="shape"/>
</filter>
</defs>
</svg>
